  0
SECTION
  2
HEADER
  9
$ACADVER
  1
AC1024
  9
$ACADMAINTVER
 70
     6
  9
$DWGCODEPAGE
  3
ANSI_1252
  9
$INSBASE
 10
0.0
 20
0.0
 30
0.0
  9
$EXTMIN
 10
1.000000000000000E+20
 20
1.000000000000000E+20
 30
1.000000000000000E+20
  9
$EXTMAX
 10
-1.000000000000000E+20
 20
-1.000000000000000E+20
 30
-1.000000000000000E+20
  9
$LIMMIN
 10
0.0
 20
0.0
  9
$LIMMAX
 10
12.0
 20
9.0
  9
$ORTHOMODE
 70
     0
  9
$REGENMODE
 70
     1
  9
$FILLMODE
 70
     1
  9
$QTEXTMODE
 70
     0
  9
$MIRRTEXT
 70
     1
  9
$LTSCALE
 40
1.0
  9
$ATTMODE
 70
     1
  9
$TEXTSIZE
 40
0.2
  9
$TRACEWID
 40
0.05
  9
$TEXTSTYLE
  7
Standard
  9
$CLAYER
  8
0
  9
$CELTYPE
  6
ByLayer
  9
$CECOLOR
 62
   256
  9
$CELTSCALE
 40
1.0
  9
$DISPSILH
 70
     0
  9
$DIMSCALE
 40
1.0
  9
$DIMASZ
 40
0.18
  9
$DIMEXO
 40
0.0625
  9
$DIMDLI
 40
0.38
  9
$DIMRND
 40
0.0
  9
$DIMDLE
 40
0.0
  9
$DIMEXE
 40
0.18
  9
$DIMTP
 40
0.0
  9
$DIMTM
 40
0.0
  9
$DIMTXT
 40
0.18
  9
$DIMCEN
 40
0.09
  9
$DIMTSZ
 40
0.0
  9
$DIMTOL
 70
     0
  9
$DIMLIM
 70
     0
  9
$DIMTIH
 70
     1
  9
$DIMTOH
 70
     1
  9
$DIMSE1
 70
     0
  9
$DIMSE2
 70
     0
  9
$DIMTAD
 70
     0
  9
$DIMZIN
 70
     0
  9
$DIMBLK
  1

  9
$DIMASO
 70
     1
  9
$DIMSHO
 70
     1
  9
$DIMPOST
  1

  9
$DIMAPOST
  1

  9
$DIMALT
 70
     0
  9
$DIMALTD
 70
     2
  9
$DIMALTF
 40
25.4
  9
$DIMLFAC
 40
1.0
  9
$DIMTOFL
 70
     0
  9
$DIMTVP
 40
0.0
  9
$DIMTIX
 70
     0
  9
$DIMSOXD
 70
     0
  9
$DIMSAH
 70
     0
  9
$DIMBLK1
  1

  9
$DIMBLK2
  1

  9
$DIMSTYLE
  2
Standard
  9
$DIMCLRD
 70
     0
  9
$DIMCLRE
 70
     0
  9
$DIMCLRT
 70
     0
  9
$DIMTFAC
 40
1.0
  9
$DIMGAP
 40
0.09
  9
$DIMJUST
 70
     0
  9
$DIMSD1
 70
     0
  9
$DIMSD2
 70
     0
  9
$DIMTOLJ
 70
     1
  9
$DIMTZIN
 70
     0
  9
$DIMALTZ
 70
     0
  9
$DIMALTTZ
 70
     0
  9
$DIMUPT
 70
     0
  9
$DIMDEC
 70
     4
  9
$DIMTDEC
 70
     4
  9
$DIMALTU
 70
     2
  9
$DIMALTTD
 70
     2
  9
$DIMTXSTY
  7
Standard
  9
$DIMAUNIT
 70
     0
  9
$DIMADEC
 70
     0
  9
$DIMALTRND
 40
0.0
  9
$DIMAZIN
 70
     0
  9
$DIMDSEP
 70
    46
  9
$DIMATFIT
 70
     3
  9
$DIMFRAC
 70
     0
  9
$DIMLDRBLK
  1

  9
$DIMLUNIT
 70
     2
  9
$DIMLWD
 70
    -2
  9
$DIMLWE
 70
    -2
  9
$DIMTMOVE
 70
     0
  9
$DIMFXL
 40
1.0
  9
$DIMFXLON
 70
     0
  9
$DIMJOGANG
 40
0.7853981633974483
  9
$DIMTFILL
 70
     0
  9
$DIMTFILLCLR
 70
     0
  9
$DIMARCSYM
 70
     0
  9
$DIMLTYPE
  6

  9
$DIMLTEX1
  6

  9
$DIMLTEX2
  6

  9
$DIMTXTDIRECTION
 70
     0
  9
$LUNITS
 70
     2
  9
$LUPREC
 70
     4
  9
$SKETCHINC
 40
0.1
  9
$FILLETRAD
 40
0.5
  9
$AUNITS
 70
     0
  9
$AUPREC
 70
     0
  9
$MENU
  1
.
  9
$ELEVATION
 40
0.0
  9
$PELEVATION
 40
0.0
  9
$THICKNESS
 40
0.0
  9
$LIMCHECK
 70
     0
  9
$CHAMFERA
 40
0.5
  9
$CHAMFERB
 40
0.5
  9
$CHAMFERC
 40
1.0
  9
$CHAMFERD
 40
0.0
  9
$SKPOLY
 70
     0
  9
$TDCREATE
 40
2457767.374324167
  9
$TDUCREATE
 40
2457767.624324167
  9
$TDUPDATE
 40
2457767.374324375
  9
$TDUUPDATE
 40
2457767.624324375
  9
$TDINDWG
 40
0.0000000116
  9
$TDUSRTIMER
 40
0.0000000116
  9
$USRTIMER
 70
     1
  9
$ANGBASE
 50
0.0
  9
$ANGDIR
 70
     0
  9
$PDMODE
 70
     0
  9
$PDSIZE
 40
0.0
  9
$PLINEWID
 40
0.0
  9
$SPLFRAME
 70
     0
  9
$SPLINETYPE
 70
     6
  9
$SPLINESEGS
 70
     8
  9
$HANDSEED
  5
60
  9
$SURFTAB1
 70
     6
  9
$SURFTAB2
 70
     6
  9
$SURFTYPE
 70
     6
  9
$SURFU
 70
     6
  9
$SURFV
 70
     6
  9
$UCSBASE
  2

  9
$UCSNAME
  2

  9
$UCSORG
 10
0.0
 20
0.0
 30
0.0
  9
$UCSXDIR
 10
1.0
 20
0.0
 30
0.0
  9
$UCSYDIR
 10
0.0
 20
1.0
 30
0.0
  9
$UCSORTHOREF
  2

  9
$UCSORTHOVIEW
 70
     0
  9
$UCSORGTOP
 10
0.0
 20
0.0
 30
0.0
  9
$UCSORGBOTTOM
 10
0.0
 20
0.0
 30
0.0
  9
$UCSORGLEFT
 10
0.0
 20
0.0
 30
0.0
  9
$UCSORGRIGHT
 10
0.0
 20
0.0
 30
0.0
  9
$UCSORGFRONT
 10
0.0
 20
0.0
 30
0.0
  9
$UCSORGBACK
 10
0.0
 20
0.0
 30
0.0
  9
$PUCSBASE
  2

  9
$PUCSNAME
  2

  9
$PUCSORG
 10
0.0
 20
0.0
 30
0.0
  9
$PUCSXDIR
 10
1.0
 20
0.0
 30
0.0
  9
$PUCSYDIR
 10
0.0
 20
1.0
 30
0.0
  9
$PUCSORTHOREF
  2

  9
$PUCSORTHOVIEW
 70
     0
  9
$PUCSORGTOP
 10
0.0
 20
0.0
 30
0.0
  9
$PUCSORGBOTTOM
 10
0.0
 20
0.0
 30
0.0
  9
$PUCSORGLEFT
 10
0.0
 20
0.0
 30
0.0
  9
$PUCSORGRIGHT
 10
0.0
 20
0.0
 30
0.0
  9
$PUCSORGFRONT
 10
0.0
 20
0.0
 30
0.0
  9
$PUCSORGBACK
 10
0.0
 20
0.0
 30
0.0
  9
$USERI1
 70
     0
  9
$USERI2
 70
     0
  9
$USERI3
 70
     0
  9
$USERI4
 70
     0
  9
$USERI5
 70
     0
  9
$USERR1
 40
0.0
  9
$USERR2
 40
0.0
  9
$USERR3
 40
0.0
  9
$USERR4
 40
0.0
  9
$USERR5
 40
0.0
  9
$WORLDVIEW
 70
     1
  9
$SHADEDGE
 70
     3
  9
$SHADEDIF
 70
    70
  9
$TILEMODE
 70
     1
  9
$MAXACTVP
 70
    64
  9
$PINSBASE
 10
0.0
 20
0.0
 30
0.0
  9
$PLIMCHECK
 70
     0
  9
$PEXTMIN
 10
1.000000000000000E+20
 20
1.000000000000000E+20
 30
1.000000000000000E+20
  9
$PEXTMAX
 10
-1.000000000000000E+20
 20
-1.000000000000000E+20
 30
-1.000000000000000E+20
  9
$PLIMMIN
 10
0.0
 20
0.0
  9
$PLIMMAX
 10
12.0
 20
9.0
  9
$UNITMODE
 70
     0
  9
$VISRETAIN
 70
     1
  9
$PLINEGEN
 70
     0
  9
$PSLTSCALE
 70
     1
  9
$TREEDEPTH
 70
  3020
  9
$CMLSTYLE
  2
Standard
  9
$CMLJUST
 70
     0
  9
$CMLSCALE
 40
1.0
  9
$PROXYGRAPHICS
 70
     1
  9
$MEASUREMENT
 70
     0
  9
$CELWEIGHT
370
    -1
  9
$ENDCAPS
280
     0
  9
$JOINSTYLE
280
     0
  9
$LWDISPLAY
290
     1
  9
$INSUNITS
 70
     1
  9
$HYPERLINKBASE
  1

  9
$STYLESHEET
  1

  9
$XEDIT
290
     1
  9
$CEPSNTYPE
380
     0
  9
$PSTYLEMODE
290
     1
  9
$FINGERPRINTGUID
  2
{CA2D69F0-3327-4A44-B955-3FE454F68F21}
  9
$VERSIONGUID
  2
{FAEB1C32-E019-11D5-929B-00C0DF256EC4}
  9
$EXTNAMES
290
     1
  9
$PSVPSCALE
 40
0.0
  9
$OLESTARTUP
290
     0
  9
$SORTENTS
280
   127
  9
$INDEXCTL
280
     0
  9
$HIDETEXT
280
     1
  9
$XCLIPFRAME
280
     2
  9
$HALOGAP
280
     0
  9
$OBSCOLOR
 70
   257
  9
$OBSLTYPE
280
     0
  9
$INTERSECTIONDISPLAY
280
     0
  9
$INTERSECTIONCOLOR
 70
   257
  9
$DIMASSOC
280
     2
  9
$PROJECTNAME
  1

  9
$CAMERADISPLAY
290
     0
  9
$LENSLENGTH
 40
50.0
  9
$CAMERAHEIGHT
 40
0.0
  9
$STEPSPERSEC
 40
2.0
  9
$STEPSIZE
 40
6.0
  9
$3DDWFPREC
 40
2.0
  9
$PSOLWIDTH
 40
0.25
  9
$PSOLHEIGHT
 40
4.0
  9
$LOFTANG1
 40
1.570796326794897
  9
$LOFTANG2
 40
1.570796326794897
  9
$LOFTMAG1
 40
0.0
  9
$LOFTMAG2
 40
0.0
  9
$LOFTPARAM
 70
     7
  9
$LOFTNORMALS
280
     1
  9
$LATITUDE
 40
37.795
  9
$LONGITUDE
 40
-122.394
  9
$NORTHDIRECTION
 40
0.0
  9
$TIMEZONE
 70
 -8000
  9
$LIGHTGLYPHDISPLAY
280
     1
  9
$TILEMODELIGHTSYNCH
280
     1
  9
$CMATERIAL
347
3C
  9
$SOLIDHIST
280
     1
  9
$SHOWHIST
280
     1
  9
$DWFFRAME
280
     2
  9
$DGNFRAME
280
     2
  9
$REALWORLDSCALE
290
     1
  9
$INTERFERECOLOR
 62
   256
  9
$CSHADOW
280
     0
  9
$SHADOWPLANELOCATION
 40
0.0
  0
ENDSEC
  0
SECTION
  2
CLASSES
  0
CLASS
  1
ACDBDICTIONARYWDFLT
  2
AcDbDictionaryWithDefault
  3
ObjectDBX Classes
 90
        0
 91
        4
280
     0
281
     0
  0
CLASS
  1
VISUALSTYLE
  2
AcDbVisualStyle
  3
ObjectDBX Classes
 90
     4095
 91
        4
280
     0
281
     0
  0
CLASS
  1
MATERIAL
  2
AcDbMaterial
  3
ObjectDBX Classes
 90
     1153
 91
        4
280
     0
281
     0
  0
CLASS
  1
SUN
  2
AcDbSun
  3
SCENEOE
 90
     1024
 91
        4
280
     0
281
     0
  0
ENDSEC
  0
SECTION
  2
TABLES
  0
TABLE
  2
VPORT
  5
8
330
0
100
AcDbSymbolTable
 70
     1
  0
VPORT
  5
29
330
8
100
AcDbSymbolTableRecord
100
AcDbViewportTableRecord
  2
*Active
 70
     0
 10
0.0
 20
0.0
 11
1.0
 21
1.0
 12
0.0
 22
0.0
 13
0.0
 23
0.0
 14
0.5
 24
0.5
 15
0.5
 25
0.5
 16
0.0
 26
0.0
 36
1.0
 17
2.216049415088138
 27
-0.9430544192952209
 37
0.0
 40
0.9556240807945262
 41
4.249999999999973
 42
50.0
 43
0.0
 44
0.0
 50
0.0
 51
0.0
 71
     0
 72
   100
 73
     1
 74
     3
 75
     0
 76
     0
 77
     0
 78
     0
281
     0
 65
     1
110
0.0
120
0.0
130
0.0
111
1.0
121
0.0
131
0.0
112
0.0
122
1.0
132
0.0
 79
     0
146
0.0
 60
     3
 61
     5
292
     1
282
     1
141
0.0
142
0.0
 63
   250
361
3F
  0
ENDTAB
  0
TABLE
  2
LTYPE
  5
5
330
0
100
AcDbSymbolTable
 70
     1
  0
LTYPE
  5
14
330
5
100
AcDbSymbolTableRecord
100
AcDbLinetypeTableRecord
  2
ByBlock
 70
     0
  3

 72
    65
 73
     0
 40
0.0
  0
LTYPE
  5
15
330
5
100
AcDbSymbolTableRecord
100
AcDbLinetypeTableRecord
  2
ByLayer
 70
     0
  3

 72
    65
 73
     0
 40
0.0
  0
LTYPE
  5
16
330
5
100
AcDbSymbolTableRecord
100
AcDbLinetypeTableRecord
  2
Continuous
 70
     0
  3
Solid line
 72
    65
 73
     0
 40
0.0
  0
ENDTAB
  0
TABLE
  2
LAYER
  5
2
330
0
100
AcDbSymbolTable
 70
     2
  0
LAYER
  5
10
330
2
100
AcDbSymbolTableRecord
100
AcDbLayerTableRecord
  2
0
 70
     0
 62
     7
  6
Continuous
370
    -3
390
F
347
3E
  0
LAYER
  5
40
330
2
100
AcDbSymbolTableRecord
100
AcDbLayerTableRecord
  2
Layer 2
 70
     0
 62
     7
  6
Continuous
370
    -3
390
F
347
3E
  0
ENDTAB
  0
TABLE
  2
STYLE
  5
3
330
0
100
AcDbSymbolTable
 70
     1
  0
STYLE
  5
11
330
3
100
AcDbSymbolTableRecord
100
AcDbTextStyleTableRecord
  2
Standard
 70
     0
 40
0.0
 41
1.0
 50
0.0
 71
     0
 42
0.2
  3
txt
  4

  0
ENDTAB
  0
TABLE
  2
VIEW
  5
6
330
0
100
AcDbSymbolTable
 70
     0
  0
ENDTAB
  0
TABLE
  2
UCS
  5
7
330
0
100
AcDbSymbolTable
 70
     0
  0
ENDTAB
  0
TABLE
  2
APPID
  5
9
330
0
100
AcDbSymbolTable
 70
     1
  0
APPID
  5
12
330
9
100
AcDbSymbolTableRecord
100
AcDbRegAppTableRecord
  2
ACAD
 70
     0
  0
ENDTAB
  0
TABLE
  2
DIMSTYLE
  5
A
330
0
100
AcDbSymbolTable
 70
     1
100
AcDbDimStyleTable
  0
DIMSTYLE
105
27
330
A
100
AcDbSymbolTableRecord
100
AcDbDimStyleTableRecord
  2
Standard
 70
     0
178
     0
340
11
  0
ENDTAB
  0
TABLE
  2
BLOCK_RECORD
  5
1
330
0
100
AcDbSymbolTable
 70
     3
  0
BLOCK_RECORD
  5
1F
330
1
100
AcDbSymbolTableRecord
100
AcDbBlockTableRecord
  2
*Model_Space
340
22
 70
     0
280
     1
281
     0
  0
BLOCK_RECORD
  5
1B
330
1
100
AcDbSymbolTableRecord
100
AcDbBlockTableRecord
  2
*Paper_Space
340
1E
 70
     0
280
     1
281
     0
  0
BLOCK_RECORD
  5
23
330
1
100
AcDbSymbolTableRecord
100
AcDbBlockTableRecord
  2
*Paper_Space0
340
26
 70
     0
280
     1
281
     0
  0
BLOCK_RECORD
  5
41
330
1
100
AcDbSymbolTableRecord
100
AcDbBlockTableRecord
  2
block 2
340
0
102
{BLKREFS
331
42
102
}
 70
     0
280
     1
281
     0
  0
BLOCK_RECORD
  5
46
330
1
100
AcDbSymbolTableRecord
100
AcDbBlockTableRecord
  2
block 3
340
0
102
{BLKREFS
331
47
102
}
 70
     0
280
     1
281
     0
  0
ENDTAB
  0
ENDSEC
  0
SECTION
  2
BLOCKS
  0
BLOCK
  5
20
330
1F
100
AcDbEntity
  8
0
100
AcDbBlockBegin
  2
*Model_Space
 70
     0
 10
0.0
 20
0.0
 30
0.0
  3
*Model_Space
  1

  0
ENDBLK
  5
21
330
1F
100
AcDbEntity
  8
0
100
AcDbBlockEnd
  0
BLOCK
  5
1C
330
1B
100
AcDbEntity
 67
     1
  8
0
100
AcDbBlockBegin
  2
*Paper_Space
 70
     0
 10
0.0
 20
0.0
 30
0.0
  3
*Paper_Space
  1

  0
ENDBLK
  5
1D
330
1B
100
AcDbEntity
 67
     1
  8
0
100
AcDbBlockEnd
  0
BLOCK
  5
24
330
23
100
AcDbEntity
  8
0
100
AcDbBlockBegin
  2
*Paper_Space0
 70
     0
 10
0.0
 20
0.0
 30
0.0
  3
*Paper_Space0
  1

  0
ENDBLK
  5
25
330
23
100
AcDbEntity
  8
0
100
AcDbBlockEnd
  0
BLOCK
  5
43
330
41
100
AcDbEntity
  8
0
100
AcDbBlockBegin
  2
block 2
 70
     0
 10
0.0
 20
0.0
 30
0.0
  3
block 2
  1

  0
SPLINE
  5
45
330
41
100
AcDbEntity
  8
Layer 2
370
     0
100
AcDbSpline
210
0.0
220
0.0
230
1.0
 70
    11
 71
     3
 72
    92
 73
    88
 74
     0
 42
0.0000000001
 43
0.0000000001
 12
1.0
 22
0.0
 32
0.0
 13
1.0
 23
0.0
 33
0.0
 40
0.0
 40
0.0
 40
0.0
 40
0.0
 40
1.0
 40
1.0
 40
1.0
 40
2.0
 40
2.0
 40
2.0
 40
3.0
 40
3.0
 40
3.0
 40
4.0
 40
4.0
 40
4.0
 40
5.0
 40
5.0
 40
5.0
 40
6.0
 40
6.0
 40
6.0
 40
7.0
 40
7.0
 40
7.0
 40
8.0
 40
8.0
 40
8.0
 40
9.0
 40
9.0
 40
9.0
 40
10.0
 40
10.0
 40
10.0
 40
11.0
 40
11.0
 40
11.0
 40
12.0
 40
12.0
 40
12.0
 40
13.0
 40
13.0
 40
13.0
 40
14.0
 40
14.0
 40
14.0
 40
15.0
 40
15.0
 40
15.0
 40
16.0
 40
16.0
 40
16.0
 40
17.0
 40
17.0
 40
17.0
 40
18.0
 40
18.0
 40
18.0
 40
19.0
 40
19.0
 40
19.0
 40
20.0
 40
20.0
 40
20.0
 40
21.0
 40
21.0
 40
21.0
 40
22.0
 40
22.0
 40
22.0
 40
23.0
 40
23.0
 40
23.0
 40
24.0
 40
24.0
 40
24.0
 40
25.0
 40
25.0
 40
25.0
 40
26.0
 40
26.0
 40
26.0
 40
27.0
 40
27.0
 40
27.0
 40
28.0
 40
28.0
 40
28.0
 40
29.0
 40
29.0
 40
29.0
 40
29.0
 10
0.9457477658558748
 20
-0.5081128478127286
 30
0.0
 10
0.9151673278450086
 20
-0.5081128478127286
 30
0.0
 10
0.8901600541608129
 20
-0.5080961115835154
 30
0.0
 10
0.8901600541608129
 20
-0.5080961115835154
 30
0.0
 10
0.8901600541608129
 20
-0.5080961115835154
 30
0.0
 10
0.8651527804766171
 20
-0.5080291666666628
 30
0.0
 10
0.83460916217003
 20
-0.5080291666666628
 30
0.0
 10
0.83460916217003
 20
-0.5080291666666628
 30
0.0
 10
0.286561253243614
 20
-0.5080291666666628
 30
0.0
 10
0.286561253243614
 20
-0.5080291666666628
 30
0.0
 10
0.2560142876911868
 20
-0.5080291666666628
 30
0.0
 10
0.2309902777777779
 20
-0.5330364403508838
 30
0.0
 10
0.2309902777777779
 20
-0.5636001421324989
 30
0.0
 10
0.2309902777777779
 20
-0.5636001421324989
 30
0.0
 10
0.2309902777777779
 20
-0.6760140464840686
 30
0.0
 10
0.2309902777777779
 20
-0.6760140464840686
 30
0.0
 10
0.2309902777777779
 20
-0.7065944844948969
 30
0.0
 10
0.2309902777777779
 20
-0.7326628351109623
 30
0.0
 10
0.2309902777777779
 20
-0.7339347885308724
 30
0.0
 10
0.2309902777777779
 20
-0.7352602978841989
 30
0.0
 10
0.2309902777777779
 20
-0.7613286485002643
 30
0.0
 10
0.2309902777777779
 20
-0.7919090865111178
 30
0.0
 10
0.2309902777777779
 20
-0.7919090865111178
 30
0.0
 10
0.2309902777777779
 20
-1.322219939721738
 30
0.0
 10
0.2309902777777779
 20
-1.322219939721738
 30
0.0
 10
0.2309902777777779
 20
-1.352783641503341
 30
0.0
 10
0.2560142876911868
 20
-1.377790915187587
 30
0.0
 10
0.286561253243614
 20
-1.377790915187587
 30
0.0
 10
0.286561253243614
 20
-1.377790915187587
 30
0.0
 10
0.4036345238069745
 20
-1.377790915187587
 30
0.0
 10
0.4036345238069745
 20
-1.377790915187587
 30
0.0
 10
0.4342116145719501
 20
-1.377790915187587
 30
0.0
 10
0.4592188882561837
 20
-1.352783641503341
 30
0.0
 10
0.4592188882561837
 20
-1.322219939721738
 30
0.0
 10
0.4592188882561837
 20
-1.322219939721738
 30
0.0
 10
0.4592188882561837
 20
-0.7919090865111178
 30
0.0
 10
0.4592188882561837
 20
-0.7919090865111178
 30
0.0
 10
0.4592188882561837
 20
-0.7613286485002643
 30
0.0
 10
0.4842261619403795
 20
-0.7363213748160685
 30
0.0
 10
0.5147898637220198
 20
-0.7363213748160685
 30
0.0
 10
0.5147898637220198
 20
-0.7363213748160685
 30
0.0
 10
0.8168419812416611
 20
-0.7363213748160685
 30
0.0
 10
0.8168419812416611
 20
-0.7363213748160685
 30
0.0
 10
0.8474224192525146
 20
-0.7363213748160685
 30
0.0
 10
0.8724430819200708
 20
-0.7613286485002643
 30
0.0
 10
0.8724430819200708
 20
-0.7919090865111178
 30
0.0
 10
0.8724430819200708
 20
-0.7919090865111178
 30
0.0
 10
0.8724430819200708
 20
-1.09324154617477
 30
0.0
 10
0.8724430819200708
 20
-1.09324154617477
 30
0.0
 10
0.8724430819200708
 20
-1.123838720414824
 30
0.0
 10
0.8474224192525146
 20
-1.148779049182192
 30
0.0
 10
0.8168419812416611
 20
-1.148779049182192
 30
0.0
 10
0.8168419812416611
 20
-1.148779049182192
 30
0.0
 10
0.642959254251006
 20
-1.148779049182192
 30
0.0
 10
0.642959254251006
 20
-1.148779049182192
 30
0.0
 10
0.6123955524693656
 20
-1.148779049182192
 30
0.0
 10
0.5873882787851699
 20
-1.173849920537375
 30
0.0
 10
0.5873882787851699
 20
-1.204380149860577
 30
0.0
 10
0.5873882787851699
 20
-1.204380149860577
 30
0.0
 10
0.5873882787851699
 20
-1.321503629111602
 30
0.0
 10
0.5873882787851699
 20
-1.321503629111602
 30
0.0
 10
0.5873882787851699
 20
-1.35206398364739
 30
0.0
 10
0.6123955524693656
 20
-1.37707125733156
 30
0.0
 10
0.642959254251006
 20
-1.37707125733156
 30
0.0
 10
0.642959254251006
 20
-1.37707125733156
 30
0.0
 10
0.8168419812416611
 20
-1.37707125733156
 30
0.0
 10
0.8168419812416611
 20
-1.37707125733156
 30
0.0
 10
0.8474224192525146
 20
-1.37707125733156
 30
0.0
 10
0.8724430819200708
 20
-1.377104729789986
 30
0.0
 10
0.8724430819200708
 20
-1.377104729789986
 30
0.0
 10
0.8724430819200708
 20
-1.377104729789986
 30
0.0
 10
0.8974670918334797
 20
-1.377104729789986
 30
0.0
 10
0.9280140573859196
 20
-1.377104729789986
 30
0.0
 10
0.9280140573859196
 20
-1.377104729789986
 30
0.0
 10
1.045150925620267
 20
-1.377104729789986
 30
0.0
 10
1.045150925620267
 20
-1.377104729789986
 30
0.0
 10
1.075697891172669
 20
-1.377104729789986
 30
0.0
 10
1.100718553840276
 20
-1.352097456105816
 30
0.0
 10
1.100718553840276
 20
-1.321567226782564
 30
0.0
 10
1.100718553840276
 20
-1.321567226782564
 30
0.0
 10
1.100718553840276
 20
-0.5636804760327246
 30
0.0
 10
1.100718553840276
 20
-0.5636804760327246
 30
0.0
 10
1.100718553840276
 20
-0.5331335104802848
 30
0.0
 10
1.075697891172669
 20
-0.5081128478127286
 30
0.0
 10
1.045150925620267
 20
-0.5081128478127286
 30
0.0
 10
1.045150925620267
 20
-0.5081128478127286
 30
0.0
 10
0.9457477658558748
 20
-0.5081128478127286
 30
0.0
 10
0.9457477658558748
 20
-0.5081128478127286
 30
0.0
  0
INSERT
  5
47
330
41
100
AcDbEntity
  8
Layer 2
100
AcDbBlockReference
  2
block 3
 10
0.0
 20
0.0
 30
0.0
  0
ENDBLK
  5
44
330
41
100
AcDbEntity
  8
0
100
AcDbBlockEnd
  0
BLOCK
  5
48
330
46
100
AcDbEntity
  8
0
100
AcDbBlockBegin
  2
block 3
 70
     0
 10
0.0
 20
0.0
 30
0.0
  3
block 3
  1

  0
SPLINE
  5
4A
330
46
100
AcDbEntity
  8
Layer 2
370
     0
100
AcDbSpline
210
0.0
220
0.0
230
1.0
 70
    11
 71
     3
 72
    38
 73
    34
 74
     0
 42
0.0000000001
 43
0.0000000001
 12
1.0
 22
0.0
 32
0.0
 13
1.0
 23
0.0
 33
0.0
 40
0.0
 40
0.0
 40
0.0
 40
0.0
 40
1.0
 40
1.0
 40
1.0
 40
2.0
 40
2.0
 40
2.0
 40
3.0
 40
3.0
 40
3.0
 40
4.0
 40
4.0
 40
4.0
 40
5.0
 40
5.0
 40
5.0
 40
6.0
 40
6.0
 40
6.0
 40
7.0
 40
7.0
 40
7.0
 40
8.0
 40
8.0
 40
8.0
 40
9.0
 40
9.0
 40
9.0
 40
10.0
 40
10.0
 40
10.0
 40
11.0
 40
11.0
 40
11.0
 40
11.0
 10
1.294443754181227
 20
-0.8775684548490214
 30
0.0
 10
1.294443754181227
 20
-0.8775684548490214
 30
0.0
 10
1.36974339663872
 20
-0.8775684548490214
 30
0.0
 10
1.36974339663872
 20
-0.8775684548490214
 30
0.0
 10
1.36974339663872
 20
-0.8775684548490214
 30
0.0
 10
1.36974339663872
 20
-0.9257654477253506
 30
0.0
 10
1.36974339663872
 20
-0.9257654477253506
 30
0.0
 10
1.36974339663872
 20
-0.9257654477253506
 30
0.0
 10
1.371440450280513
 20
-0.9257654477253506
 30
0.0
 10
1.371440450280513
 20
-0.9257654477253506
 30
0.0
 10
1.392344000562692
 20
-0.9003196848358482
 30
0.0
 10
1.440885759760679
 20
-0.8695250230911521
 30
0.0
 10
1.516232263659958
 20
-0.8695250230911521
 30
0.0
 10
1.640087054298849
 20
-0.8695250230911521
 30
0.0
 10
1.700314048730661
 20
-0.950541761446478
 30
0.0
 10
1.700314048730661
 20
-1.042283075478963
 30
0.0
 10
1.700314048730661
 20
-1.135932319641319
 30
0.0
 10
1.645921303801136
 20
-1.227034309718015
 30
0.0
 10
1.5170657278746
 20
-1.227034309718015
 30
0.0
 10
1.44173596020452
 20
-1.227034309718015
 30
0.0
 10
1.399061922967197
 20
-1.203630366792014
 30
0.0
 10
1.374760918155617
 20
-1.172149519649767
 30
0.0
 10
1.374760918155617
 20
-1.172149519649767
 30
0.0
 10
1.373107378709771
 20
-1.172149519649767
 30
0.0
 10
1.373107378709771
 20
-1.172149519649767
 30
0.0
 10
1.373107378709771
 20
-1.172149519649767
 30
0.0
 10
1.373107378709771
 20
-1.359615370266536
 30
0.0
 10
1.373107378709771
 20
-1.359615370266536
 30
0.0
 10
1.373107378709771
 20
-1.359615370266536
 30
0.0
 10
1.294443754181227
 20
-1.359615370266536
 30
0.0
 10
1.294443754181227
 20
-1.359615370266536
 30
0.0
 10
1.294443754181227
 20
-1.359615370266536
 30
0.0
 10
1.294443754181227
 20
-0.8775684548490214
 30
0.0
 10
1.294443754181227
 20
-0.8775684548490214
 30
0.0
  0
SPLINE
  5
4B
330
46
100
AcDbEntity
  8
Layer 2
370
     0
100
AcDbSpline
210
0.0
220
0.0
230
1.0
 70
    11
 71
     3
 72
    17
 73
    13
 74
     0
 42
0.0000000001
 43
0.0000000001
 12
1.0
 22
0.0
 32
0.0
 13
1.0
 23
0.0
 33
0.0
 40
0.0
 40
0.0
 40
0.0
 40
0.0
 40
1.0
 40
1.0
 40
1.0
 40
2.0
 40
2.0
 40
2.0
 40
3.0
 40
3.0
 40
3.0
 40
4.0
 40
4.0
 40
4.0
 40
4.0
 10
1.499479298221685
 20
-0.9204198961159716
 30
0.0
 10
1.414114487517837
 20
-0.9204198961159716
 30
0.0
 10
1.373107378709771
 20
-0.9853564654471887
 30
0.0
 10
1.373107378709771
 20
-1.04893405296664
 30
0.0
 10
1.373107378709771
 20
-1.10586066299844
 30
0.0
 10
1.409930430215556
 20
-1.176139436693196
 30
0.0
 10
1.498629097777868
 20
-1.176139436693196
 30
0.0
 10
1.583160444267075
 20
-1.176139436693196
 30
0.0
 10
1.618316567343678
 20
-1.100515111389035
 30
0.0
 10
1.616649638914446
 20
-1.046989303132553
 30
0.0
 10
1.618316567343678
 20
-0.9853564654471887
 30
0.0
 10
1.584810636467106
 20
-0.9204198961159716
 30
0.0
 10
1.499479298221685
 20
-0.9204198961159716
 30
0.0
  0
HATCH
  5
4C
330
46
100
AcDbEntity
  8
Layer 2
 62
    18
420
   655875
100
AcDbHatch
 10
0.0
 20
0.0
 30
0.0
210
0.0
220
0.0
230
1.0
  2
SOLID
 70
     1
 71
     0
 91
        2
 92
        1
 93
        1
 72
     4
 94
        3
 73
     0
 74
     1
 95
       38
 96
       34
 40
0.0
 40
0.0
 40
0.0
 40
0.0
 40
1.0
 40
1.0
 40
1.0
 40
2.0
 40
2.0
 40
2.0
 40
3.0
 40
3.0
 40
3.0
 40
4.0
 40
4.0
 40
4.0
 40
5.0
 40
5.0
 40
5.0
 40
6.0
 40
6.0
 40
6.0
 40
7.0
 40
7.0
 40
7.0
 40
8.0
 40
8.0
 40
8.0
 40
9.0
 40
9.0
 40
9.0
 40
10.0
 40
10.0
 40
10.0
 40
11.0
 40
11.0
 40
11.0
 40
11.0
 10
1.294443754181227
 20
-0.8775684548490214
 10
1.294443754181227
 20
-0.8775684548490214
 10
1.36974339663872
 20
-0.8775684548490214
 10
1.36974339663872
 20
-0.8775684548490214
 10
1.36974339663872
 20
-0.8775684548490214
 10
1.36974339663872
 20
-0.9257654477253506
 10
1.36974339663872
 20
-0.9257654477253506
 10
1.36974339663872
 20
-0.9257654477253506
 10
1.371440450280513
 20
-0.9257654477253506
 10
1.371440450280513
 20
-0.9257654477253506
 10
1.392344000562692
 20
-0.9003196848358482
 10
1.440885759760679
 20
-0.8695250230911521
 10
1.516232263659958
 20
-0.8695250230911521
 10
1.640087054298849
 20
-0.8695250230911521
 10
1.700314048730661
 20
-0.950541761446478
 10
1.700314048730661
 20
-1.042283075478963
 10
1.700314048730661
 20
-1.135932319641319
 10
1.645921303801136
 20
-1.227034309718015
 10
1.5170657278746
 20
-1.227034309718015
 10
1.44173596020452
 20
-1.227034309718015
 10
1.399061922967197
 20
-1.203630366792014
 10
1.374760918155617
 20
-1.172149519649767
 10
1.374760918155617
 20
-1.172149519649767
 10
1.373107378709771
 20
-1.172149519649767
 10
1.373107378709771
 20
-1.172149519649767
 10
1.373107378709771
 20
-1.172149519649767
 10
1.373107378709771
 20
-1.359615370266536
 10
1.373107378709771
 20
-1.359615370266536
 10
1.373107378709771
 20
-1.359615370266536
 10
1.294443754181227
 20
-1.359615370266536
 10
1.294443754181227
 20
-1.359615370266536
 10
1.294443754181227
 20
-1.359615370266536
 10
1.294443754181227
 20
-0.8775684548490214
 10
1.294443754181227
 20
-0.8775684548490214
 97
        0
 97
        0
 92
        1
 93
        1
 72
     4
 94
        3
 73
     0
 74
     1
 95
       17
 96
       13
 40
0.0
 40
0.0
 40
0.0
 40
0.0
 40
1.0
 40
1.0
 40
1.0
 40
2.0
 40
2.0
 40
2.0
 40
3.0
 40
3.0
 40
3.0
 40
4.0
 40
4.0
 40
4.0
 40
4.0
 10
1.499479298221685
 20
-0.9204198961159716
 10
1.414114487517837
 20
-0.9204198961159716
 10
1.373107378709771
 20
-0.9853564654471887
 10
1.373107378709771
 20
-1.04893405296664
 10
1.373107378709771
 20
-1.10586066299844
 10
1.409930430215556
 20
-1.176139436693196
 10
1.498629097777868
 20
-1.176139436693196
 10
1.583160444267075
 20
-1.176139436693196
 10
1.618316567343678
 20
-1.100515111389035
 10
1.616649638914446
 20
-1.046989303132553
 10
1.618316567343678
 20
-0.9853564654471887
 10
1.584810636467106
 20
-0.9204198961159716
 10
1.499479298221685
 20
-0.9204198961159716
 97
        0
 97
        0
 75
     2
 76
     1
 98
        0
  0
SPLINE
  5
4D
330
46
100
AcDbEntity
  8
Layer 2
370
     0
100
AcDbSpline
210
0.0
220
0.0
230
1.0
 70
    11
 71
     3
 72
    47
 73
    43
 74
     0
 42
0.0000000001
 43
0.0000000001
 12
1.0
 22
0.0
 32
0.0
 13
1.0
 23
0.0
 33
0.0
 40
0.0
 40
0.0
 40
0.0
 40
0.0
 40
1.0
 40
1.0
 40
1.0
 40
2.0
 40
2.0
 40
2.0
 40
3.0
 40
3.0
 40
3.0
 40
4.0
 40
4.0
 40
4.0
 40
5.0
 40
5.0
 40
5.0
 40
6.0
 40
6.0
 40
6.0
 40
7.0
 40
7.0
 40
7.0
 40
8.0
 40
8.0
 40
8.0
 40
9.0
 40
9.0
 40
9.0
 40
10.0
 40
10.0
 40
10.0
 40
11.0
 40
11.0
 40
11.0
 40
12.0
 40
12.0
 40
12.0
 40
13.0
 40
13.0
 40
13.0
 40
14.0
 40
14.0
 40
14.0
 40
14.0
 10
1.798264503799727
 20
-0.9016753194017736
 30
0.0
 10
1.837621420407787
 20
-0.882927395441786
 30
0.0
 10
1.884446042488965
 20
-0.8695250230911521
 30
0.0
 10
1.938855523647691
 20
-0.8695250230911521
 30
0.0
 10
2.061043385857349
 20
-0.8695250230911521
 30
0.0
 10
2.110418609270002
 20
-0.917742099442522
 30
0.0
 10
2.110418609270002
 20
-1.010802228336691
 30
0.0
 10
2.110418609270002
 20
-1.010802228336691
 30
0.0
 10
2.110418609270002
 20
-1.152079433582205
 30
0.0
 10
2.110418609270002
 20
-1.152079433582205
 30
0.0
 10
2.110418609270002
 20
-1.190880707380529
 30
0.0
 10
2.112102273928435
 20
-1.208989307384804
 30
0.0
 10
2.113752466128416
 20
-1.218994225205986
 30
0.0
 10
2.113752466128416
 20
-1.218994225205986
 30
0.0
 10
2.040106363116769
 20
-1.218994225205986
 30
0.0
 10
2.040106363116769
 20
-1.218994225205986
 30
0.0
 10
2.040106363116769
 20
-1.218994225205986
 30
0.0
 10
2.040106363116769
 20
-1.174830663569032
 30
0.0
 10
2.040106363116769
 20
-1.174830663569032
 30
0.0
 10
2.040106363116769
 20
-1.174830663569032
 30
0.0
 10
2.038439434687562
 20
-1.174830663569032
 30
0.0
 10
2.038439434687562
 20
-1.174830663569032
 30
0.0
 10
2.020019540820057
 20
-1.195556809821609
 30
0.0
 10
1.97819570402655
 20
-1.227034309718015
 30
0.0
 10
1.906216529444135
 20
-1.227034309718015
 30
0.0
 10
1.814184005023384
 20
-1.227034309718015
 30
0.0
 10
1.74972274460169
 20
-1.194900749636569
 30
0.0
 10
1.74972274460169
 20
-1.120618669914974
 30
0.0
 10
1.74972274460169
 20
-1.034909092889443
 30
0.0
 10
1.866876349065276
 20
-1.008107695434041
 30
0.0
 10
1.948073838696043
 20
-1.008107695434041
 30
0.0
 10
1.979029168241191
 20
-1.008107695434041
 30
0.0
 10
2.000782918967136
 20
-1.008107695434041
 30
0.0
 10
2.031754984741458
 20
-1.009446593770766
 30
0.0
 10
2.031754984741458
 20
-0.950541761446478
 30
0.0
 10
2.004966976269391
 20
-0.9204198961159716
 30
0.0
 10
1.926286615511673
 20
-0.9204198961159716
 30
0.0
 10
1.881945649845117
 20
-0.9204198961159716
 30
0.0
 10
1.834220618632521
 20
-0.9337921432539941
 30
0.0
 10
1.802448561101983
 20
-0.9552346001167077
 30
0.0
 10
1.802448561101983
 20
-0.9552346001167077
 30
0.0
 10
1.798264503799727
 20
-0.9016753194017736
 30
0.0
 10
1.798264503799727
 20
-0.9016753194017736
 30
0.0
  0
SPLINE
  5
4E
330
46
100
AcDbEntity
  8
Layer 2
370
     0
100
AcDbSpline
210
0.0
220
0.0
230
1.0
 70
    11
 71
     3
 72
    20
 73
    16
 74
     0
 42
0.0000000001
 43
0.0000000001
 12
1.0
 22
0.0
 32
0.0
 13
1.0
 23
0.0
 33
0.0
 40
0.0
 40
0.0
 40
0.0
 40
0.0
 40
1.0
 40
1.0
 40
1.0
 40
2.0
 40
2.0
 40
2.0
 40
3.0
 40
3.0
 40
3.0
 40
4.0
 40
4.0
 40
4.0
 40
5.0
 40
5.0
 40
5.0
 40
5.0
 10
2.031754984741458
 20
-1.056338160768746
 30
0.0
 10
2.01500201930316
 20
-1.056338160768746
 30
0.0
 10
1.998282526323288
 20
-1.054995915186181
 30
0.0
 10
1.981529560884989
 20
-1.054995915186181
 30
0.0
 10
1.938855523647691
 20
-1.054995915186181
 30
0.0
 10
1.833403890647105
 20
-1.06034146679556
 30
0.0
 10
1.833403890647105
 20
-1.120618669914974
 30
0.0
 10
1.833403890647105
 20
-1.156755536023259
 30
0.0
 10
1.876944864557446
 20
-1.176139436693196
 30
0.0
 10
1.912934451848666
 20
-1.176139436693196
 30
0.0
 10
1.990747875933367
 20
-1.176139436693196
 30
0.0
 10
2.031754984741458
 20
-1.137338162894846
 30
0.0
 10
2.031754984741458
 20
-1.086443289870052
 30
0.0
 10
2.031754984741458
 20
-1.086443289870052
 30
0.0
 10
2.031754984741458
 20
-1.056338160768746
 30
0.0
 10
2.031754984741458
 20
-1.056338160768746
 30
0.0
  0
HATCH
  5
4F
330
46
100
AcDbEntity
  8
Layer 2
 62
    18
420
   655875
100
AcDbHatch
 10
0.0
 20
0.0
 30
0.0
210
0.0
220
0.0
230
1.0
  2
SOLID
 70
     1
 71
     0
 91
        2
 92
        1
 93
        1
 72
     4
 94
        3
 73
     0
 74
     1
 95
       47
 96
       43
 40
0.0
 40
0.0
 40
0.0
 40
0.0
 40
1.0
 40
1.0
 40
1.0
 40
2.0
 40
2.0
 40
2.0
 40
3.0
 40
3.0
 40
3.0
 40
4.0
 40
4.0
 40
4.0
 40
5.0
 40
5.0
 40
5.0
 40
6.0
 40
6.0
 40
6.0
 40
7.0
 40
7.0
 40
7.0
 40
8.0
 40
8.0
 40
8.0
 40
9.0
 40
9.0
 40
9.0
 40
10.0
 40
10.0
 40
10.0
 40
11.0
 40
11.0
 40
11.0
 40
12.0
 40
12.0
 40
12.0
 40
13.0
 40
13.0
 40
13.0
 40
14.0
 40
14.0
 40
14.0
 40
14.0
 10
1.798264503799727
 20
-0.9016753194017736
 10
1.837621420407787
 20
-0.882927395441786
 10
1.884446042488965
 20
-0.8695250230911521
 10
1.938855523647691
 20
-0.8695250230911521
 10
2.061043385857349
 20
-0.8695250230911521
 10
2.110418609270002
 20
-0.917742099442522
 10
2.110418609270002
 20
-1.010802228336691
 10
2.110418609270002
 20
-1.010802228336691
 10
2.110418609270002
 20
-1.152079433582205
 10
2.110418609270002
 20
-1.152079433582205
 10
2.110418609270002
 20
-1.190880707380529
 10
2.112102273928435
 20
-1.208989307384804
 10
2.113752466128416
 20
-1.218994225205986
 10
2.113752466128416
 20
-1.218994225205986
 10
2.040106363116769
 20
-1.218994225205986
 10
2.040106363116769
 20
-1.218994225205986
 10
2.040106363116769
 20
-1.218994225205986
 10
2.040106363116769
 20
-1.174830663569032
 10
2.040106363116769
 20
-1.174830663569032
 10
2.040106363116769
 20
-1.174830663569032
 10
2.038439434687562
 20
-1.174830663569032
 10
2.038439434687562
 20
-1.174830663569032
 10
2.020019540820057
 20
-1.195556809821609
 10
1.97819570402655
 20
-1.227034309718015
 10
1.906216529444135
 20
-1.227034309718015
 10
1.814184005023384
 20
-1.227034309718015
 10
1.74972274460169
 20
-1.194900749636569
 10
1.74972274460169
 20
-1.120618669914974
 10
1.74972274460169
 20
-1.034909092889443
 10
1.866876349065276
 20
-1.008107695434041
 10
1.948073838696043
 20
-1.008107695434041
 10
1.979029168241191
 20
-1.008107695434041
 10
2.000782918967136
 20
-1.008107695434041
 10
2.031754984741458
 20
-1.009446593770766
 10
2.031754984741458
 20
-0.950541761446478
 10
2.004966976269391
 20
-0.9204198961159716
 10
1.926286615511673
 20
-0.9204198961159716
 10
1.881945649845117
 20
-0.9204198961159716
 10
1.834220618632521
 20
-0.9337921432539941
 10
1.802448561101983
 20
-0.9552346001167077
 10
1.802448561101983
 20
-0.9552346001167077
 10
1.798264503799727
 20
-0.9016753194017736
 10
1.798264503799727
 20
-0.9016753194017736
 97
        0
 97
        0
 92
        1
 93
        1
 72
     4
 94
        3
 73
     0
 74
     1
 95
       20
 96
       16
 40
0.0
 40
0.0
 40
0.0
 40
0.0
 40
1.0
 40
1.0
 40
1.0
 40
2.0
 40
2.0
 40
2.0
 40
3.0
 40
3.0
 40
3.0
 40
4.0
 40
4.0
 40
4.0
 40
5.0
 40
5.0
 40
5.0
 40
5.0
 10
2.031754984741458
 20
-1.056338160768746
 10
2.01500201930316
 20
-1.056338160768746
 10
1.998282526323288
 20
-1.054995915186181
 10
1.981529560884989
 20
-1.054995915186181
 10
1.938855523647691
 20
-1.054995915186181
 10
1.833403890647105
 20
-1.06034146679556
 10
1.833403890647105
 20
-1.120618669914974
 10
1.833403890647105
 20
-1.156755536023259
 10
1.876944864557446
 20
-1.176139436693196
 10
1.912934451848666
 20
-1.176139436693196
 10
1.990747875933367
 20
-1.176139436693196
 10
2.031754984741458
 20
-1.137338162894846
 10
2.031754984741458
 20
-1.086443289870052
 10
2.031754984741458
 20
-1.086443289870052
 10
2.031754984741458
 20
-1.056338160768746
 10
2.031754984741458
 20
-1.056338160768746
 97
        0
 97
        0
 75
     2
 76
     1
 98
        0
  0
SPLINE
  5
50
330
46
100
AcDbEntity
  8
Layer 2
370
     0
100
AcDbSpline
210
0.0
220
0.0
230
1.0
 70
    11
 71
     3
 72
    44
 73
    40
 74
     0
 42
0.0000000001
 43
0.0000000001
 12
1.0
 22
0.0
 32
0.0
 13
1.0
 23
0.0
 33
0.0
 40
0.0
 40
0.0
 40
0.0
 40
0.0
 40
1.0
 40
1.0
 40
1.0
 40
2.0
 40
2.0
 40
2.0
 40
3.0
 40
3.0
 40
3.0
 40
4.0
 40
4.0
 40
4.0
 40
5.0
 40
5.0
 40
5.0
 40
6.0
 40
6.0
 40
6.0
 40
7.0
 40
7.0
 40
7.0
 40
8.0
 40
8.0
 40
8.0
 40
9.0
 40
9.0
 40
9.0
 40
10.0
 40
10.0
 40
10.0
 40
11.0
 40
11.0
 40
11.0
 40
12.0
 40
12.0
 40
12.0
 40
13.0
 40
13.0
 40
13.0
 40
13.0
 10
2.184047976052398
 20
-1.311368168702605
 30
0.0
 10
2.194116491544618
 20
-1.314082785080296
 30
0.0
 10
2.207485391436825
 20
-1.316794054212172
 30
0.0
 10
2.220887763787434
 20
-1.316794054212172
 30
0.0
 10
2.291200009940667
 20
-1.316794054212172
 30
0.0
 10
2.314637425325044
 20
-1.239094436486109
 30
0.0
 10
2.314637425325044
 20
-1.232426722769181
 30
0.0
 10
2.314637425325044
 20
-1.225039351196276
 30
0.0
 10
2.304568909832824
 20
-1.207650409048028
 30
0.0
 10
2.299598249757764
 20
-1.196273120431745
 30
0.0
 10
2.299598249757764
 20
-1.196273120431745
 30
0.0
 10
2.154793047394933
 20
-0.8775684548490214
 30
0.0
 10
2.154793047394933
 20
-0.8775684548490214
 30
0.0
 10
2.154793047394933
 20
-0.8775684548490214
 30
0.0
 10
2.240957849854996
 20
-0.8775684548490214
 30
0.0
 10
2.240957849854996
 20
-0.8775684548490214
 30
0.0
 10
2.240957849854996
 20
-0.8775684548490214
 30
0.0
 10
2.35562779790391
 20
-1.160122865340125
 30
0.0
 10
2.35562779790391
 20
-1.160122865340125
 30
0.0
 10
2.35562779790391
 20
-1.160122865340125
 30
0.0
 10
2.357294726333167
 20
-1.160122865340125
 30
0.0
 10
2.357294726333167
 20
-1.160122865340125
 30
0.0
 10
2.357294726333167
 20
-1.160122865340125
 30
0.0
 10
2.474545400926116
 20
-0.8775684548490214
 30
0.0
 10
2.474545400926116
 20
-0.8775684548490214
 30
0.0
 10
2.474545400926116
 20
-0.8775684548490214
 30
0.0
 10
2.553978891998288
 20
-0.8775684548490214
 30
0.0
 10
2.553978891998288
 20
-0.8775684548490214
 30
0.0
 10
2.553978891998288
 20
-0.8775684548490214
 30
0.0
 10
2.396618170482775
 20
-1.226381596778866
 30
0.0
 10
2.396618170482775
 20
-1.226381596778866
 30
0.0
 10
2.367329769366885
 20
-1.291984268032618
 30
0.0
 10
2.336374439821813
 20
-1.367658802024405
 30
0.0
 10
2.232623207708886
 20
-1.367658802024405
 30
0.0
 10
2.207485391436825
 20
-1.367658802024405
 30
0.0
 10
2.193266291100776
 20
-1.364977658105115
 30
0.0
 10
2.179080663223153
 20
-1.362982699583376
 30
0.0
 10
2.179080663223153
 20
-1.362982699583376
 30
0.0
 10
2.184047976052398
 20
-1.311368168702605
 30
0.0
 10
2.184047976052398
 20
-1.311368168702605
 30
0.0
  0
HATCH
  5
51
330
46
100
AcDbEntity
  8
Layer 2
 62
    18
420
   655875
100
AcDbHatch
 10
0.0
 20
0.0
 30
0.0
210
0.0
220
0.0
230
1.0
  2
SOLID
 70
     1
 71
     0
 91
        1
 92
        1
 93
        1
 72
     4
 94
        3
 73
     0
 74
     1
 95
       44
 96
       40
 40
0.0
 40
0.0
 40
0.0
 40
0.0
 40
1.0
 40
1.0
 40
1.0
 40
2.0
 40
2.0
 40
2.0
 40
3.0
 40
3.0
 40
3.0
 40
4.0
 40
4.0
 40
4.0
 40
5.0
 40
5.0
 40
5.0
 40
6.0
 40
6.0
 40
6.0
 40
7.0
 40
7.0
 40
7.0
 40
8.0
 40
8.0
 40
8.0
 40
9.0
 40
9.0
 40
9.0
 40
10.0
 40
10.0
 40
10.0
 40
11.0
 40
11.0
 40
11.0
 40
12.0
 40
12.0
 40
12.0
 40
13.0
 40
13.0
 40
13.0
 40
13.0
 10
2.184047976052398
 20
-1.311368168702605
 10
2.194116491544618
 20
-1.314082785080296
 10
2.207485391436825
 20
-1.316794054212172
 10
2.220887763787434
 20
-1.316794054212172
 10
2.291200009940667
 20
-1.316794054212172
 10
2.314637425325044
 20
-1.239094436486109
 10
2.314637425325044
 20
-1.232426722769181
 10
2.314637425325044
 20
-1.225039351196276
 10
2.304568909832824
 20
-1.207650409048028
 10
2.299598249757764
 20
-1.196273120431745
 10
2.299598249757764
 20
-1.196273120431745
 10
2.154793047394933
 20
-0.8775684548490214
 10
2.154793047394933
 20
-0.8775684548490214
 10
2.154793047394933
 20
-0.8775684548490214
 10
2.240957849854996
 20
-0.8775684548490214
 10
2.240957849854996
 20
-0.8775684548490214
 10
2.240957849854996
 20
-0.8775684548490214
 10
2.35562779790391
 20
-1.160122865340125
 10
2.35562779790391
 20
-1.160122865340125
 10
2.35562779790391
 20
-1.160122865340125
 10
2.357294726333167
 20
-1.160122865340125
 10
2.357294726333167
 20
-1.160122865340125
 10
2.357294726333167
 20
-1.160122865340125
 10
2.474545400926116
 20
-0.8775684548490214
 10
2.474545400926116
 20
-0.8775684548490214
 10
2.474545400926116
 20
-0.8775684548490214
 10
2.553978891998288
 20
-0.8775684548490214
 10
2.553978891998288
 20
-0.8775684548490214
 10
2.553978891998288
 20
-0.8775684548490214
 10
2.396618170482775
 20
-1.226381596778866
 10
2.396618170482775
 20
-1.226381596778866
 10
2.367329769366885
 20
-1.291984268032618
 10
2.336374439821813
 20
-1.367658802024405
 10
2.232623207708886
 20
-1.367658802024405
 10
2.207485391436825
 20
-1.367658802024405
 10
2.193266291100776
 20
-1.364977658105115
 10
2.179080663223153
 20
-1.362982699583376
 10
2.179080663223153
 20
-1.362982699583376
 10
2.184047976052398
 20
-1.311368168702605
 10
2.184047976052398
 20
-1.311368168702605
 97
        0
 97
        0
 75
     2
 76
     1
 98
        0
  0
SPLINE
  5
52
330
46
100
AcDbEntity
  8
Layer 2
370
     0
100
AcDbSpline
210
0.0
220
0.0
230
1.0
 70
    11
 71
     3
 72
    35
 73
    31
 74
     0
 42
0.0000000001
 43
0.0000000001
 12
1.0
 22
0.0
 32
0.0
 13
1.0
 23
0.0
 33
0.0
 40
0.0
 40
0.0
 40
0.0
 40
0.0
 40
1.0
 40
1.0
 40
1.0
 40
2.0
 40
2.0
 40
2.0
 40
3.0
 40
3.0
 40
3.0
 40
4.0
 40
4.0
 40
4.0
 40
5.0
 40
5.0
 40
5.0
 40
6.0
 40
6.0
 40
6.0
 40
7.0
 40
7.0
 40
7.0
 40
8.0
 40
8.0
 40
8.0
 40
9.0
 40
9.0
 40
9.0
 40
10.0
 40
10.0
 40
10.0
 40
10.0
 10
2.8778483579149
 20
-0.9351310415907694
 30
0.0
 10
2.847743228813594
 20
-0.9250959985569756
 30
0.0
 10
2.8175410295829
 20
-0.9204198961159716
 30
0.0
 10
2.792500283440252
 20
-0.9204198961159716
 30
0.0
 10
2.704635080092556
 20
-0.9204198961159716
 30
0.0
 10
2.65531006536758
 20
-0.9833280344670482
 30
0.0
 10
2.65531006536758
 20
-1.048311465240052
 30
0.0
 10
2.65531006536758
 20
-1.109211256086079
 30
0.0
 10
2.696236840275484
 20
-1.176139436693196
 30
0.0
 10
2.797568013644776
 20
-1.176139436693196
 30
0.0
 10
2.82427234097079
 20
-1.176139436693196
 30
0.0
 10
2.857778271847387
 20
-1.169471722976318
 30
0.0
 10
2.882065887675581
 20
-1.156755536023259
 30
0.0
 10
2.882065887675581
 20
-1.156755536023259
 30
0.0
 10
2.887853275736082
 20
-1.212979224428207
 30
0.0
 10
2.887853275736082
 20
-1.212979224428207
 30
0.0
 10
2.855294615432715
 20
-1.225039351196276
 30
0.0
 10
2.8175410295829
 20
-1.227034309718015
 30
0.0
 10
2.78919989904024
 20
-1.227034309718015
 30
0.0
 10
2.660247252984239
 20
-1.227034309718015
 30
0.0
 10
2.571628919322166
 20
-1.14603430759189
 30
0.0
 10
2.571628919322166
 20
-1.048311465240052
 30
0.0
 10
2.571628919322166
 20
-0.9444966354561377
 30
0.0
 10
2.65864392222602
 20
-0.8695250230911521
 30
0.0
 10
2.78919989904024
 20
-0.8695250230911521
 30
0.0
 10
2.820971956570727
 20
-0.8695250230911521
 30
0.0
 10
2.861928856691217
 20
-0.8755400238688809
 30
0.0
 10
2.884549544090178
 20
-0.882927395441786
 30
0.0
 10
2.884549544090178
 20
-0.882927395441786
 30
0.0
 10
2.8778483579149
 20
-0.9351310415907694
 30
0.0
 10
2.8778483579149
 20
-0.9351310415907694
 30
0.0
  0
HATCH
  5
53
330
46
100
AcDbEntity
  8
Layer 2
 62
    18
420
   655875
100
AcDbHatch
 10
0.0
 20
0.0
 30
0.0
210
0.0
220
0.0
230
1.0
  2
SOLID
 70
     1
 71
     0
 91
        1
 92
        1
 93
        1
 72
     4
 94
        3
 73
     0
 74
     1
 95
       35
 96
       31
 40
0.0
 40
0.0
 40
0.0
 40
0.0
 40
1.0
 40
1.0
 40
1.0
 40
2.0
 40
2.0
 40
2.0
 40
3.0
 40
3.0
 40
3.0
 40
4.0
 40
4.0
 40
4.0
 40
5.0
 40
5.0
 40
5.0
 40
6.0
 40
6.0
 40
6.0
 40
7.0
 40
7.0
 40
7.0
 40
8.0
 40
8.0
 40
8.0
 40
9.0
 40
9.0
 40
9.0
 40
10.0
 40
10.0
 40
10.0
 40
10.0
 10
2.8778483579149
 20
-0.9351310415907694
 10
2.847743228813594
 20
-0.9250959985569756
 10
2.8175410295829
 20
-0.9204198961159716
 10
2.792500283440252
 20
-0.9204198961159716
 10
2.704635080092556
 20
-0.9204198961159716
 10
2.65531006536758
 20
-0.9833280344670482
 10
2.65531006536758
 20
-1.048311465240052
 10
2.65531006536758
 20
-1.109211256086079
 10
2.696236840275484
 20
-1.176139436693196
 10
2.797568013644776
 20
-1.176139436693196
 10
2.82427234097079
 20
-1.176139436693196
 10
2.857778271847387
 20
-1.169471722976318
 10
2.882065887675581
 20
-1.156755536023259
 10
2.882065887675581
 20
-1.156755536023259
 10
2.887853275736082
 20
-1.212979224428207
 10
2.887853275736082
 20
-1.212979224428207
 10
2.855294615432715
 20
-1.225039351196276
 10
2.8175410295829
 20
-1.227034309718015
 10
2.78919989904024
 20
-1.227034309718015
 10
2.660247252984239
 20
-1.227034309718015
 10
2.571628919322166
 20
-1.14603430759189
 10
2.571628919322166
 20
-1.048311465240052
 10
2.571628919322166
 20
-0.9444966354561377
 10
2.65864392222602
 20
-0.8695250230911521
 10
2.78919989904024
 20
-0.8695250230911521
 10
2.820971956570727
 20
-0.8695250230911521
 10
2.861928856691217
 20
-0.8755400238688809
 10
2.884549544090178
 20
-0.882927395441786
 10
2.884549544090178
 20
-0.882927395441786
 10
2.8778483579149
 20
-0.9351310415907694
 10
2.8778483579149
 20
-0.9351310415907694
 97
        0
 97
        0
 75
     2
 76
     1
 98
        0
  0
SPLINE
  5
54
330
46
100
AcDbEntity
  8
Layer 2
370
     0
100
AcDbSpline
210
0.0
220
0.0
230
1.0
 70
    11
 71
     3
 72
    17
 73
    13
 74
     0
 42
0.0000000001
 43
0.0000000001
 12
1.0
 22
0.0
 32
0.0
 13
1.0
 23
0.0
 33
0.0
 40
0.0
 40
0.0
 40
0.0
 40
0.0
 40
1.0
 40
1.0
 40
1.0
 40
2.0
 40
2.0
 40
2.0
 40
3.0
 40
3.0
 40
3.0
 40
4.0
 40
4.0
 40
4.0
 40
4.0
 10
3.139810424440939
 20
-0.8695250230911521
 30
0.0
 10
3.269583142449821
 20
-0.8695250230911521
 30
0.0
 10
3.356564670697935
 20
-0.9444966354561377
 30
0.0
 10
3.356564670697935
 20
-1.048311465240052
 30
0.0
 10
3.356564670697935
 20
-1.14603430759189
 30
0.0
 10
3.267882741605136
 20
-1.227034309718015
 30
0.0
 10
3.139810424440939
 20
-1.227034309718015
 30
0.0
 10
3.010887991143717
 20
-1.227034309718015
 30
0.0
 10
2.922239532269057
 20
-1.14603430759189
 30
0.0
 10
2.922239532269057
 20
-1.048311465240052
 30
0.0
 10
2.922239532269057
 20
-0.9444966354561377
 30
0.0
 10
3.009288007631312
 20
-0.8695250230911521
 30
0.0
 10
3.139810424440939
 20
-0.8695250230911521
 30
0.0
  0
SPLINE
  5
55
330
46
100
AcDbEntity
  8
Layer 2
370
     0
100
AcDbSpline
210
0.0
220
0.0
230
1.0
 70
    11
 71
     3
 72
    17
 73
    13
 74
     0
 42
0.0000000001
 43
0.0000000001
 12
1.0
 22
0.0
 32
0.0
 13
1.0
 23
0.0
 33
0.0
 40
0.0
 40
0.0
 40
0.0
 40
0.0
 40
1.0
 40
1.0
 40
1.0
 40
2.0
 40
2.0
 40
2.0
 40
3.0
 40
3.0
 40
3.0
 40
4.0
 40
4.0
 40
4.0
 40
4.0
 10
3.139810424440939
 20
-1.176139436693196
 30
0.0
 10
3.231893155223108
 20
-1.176139436693196
 30
0.0
 10
3.272947124435859
 20
-1.109211256086079
 30
0.0
 10
3.272947124435859
 20
-1.048311465240052
 30
0.0
 10
3.272947124435859
 20
-0.9833280344670482
 30
0.0
 10
3.223491568372386
 20
-0.9204198961159716
 30
0.0
 10
3.139810424440939
 20
-0.9204198961159716
 30
0.0
 10
3.055279080087151
 20
-0.9204198961159716
 30
0.0
 10
3.005920678314447
 20
-0.9833280344670482
 30
0.0
 10
3.005920678314447
 20
-1.048311465240052
 30
0.0
 10
3.005920678314447
 20
-1.109211256086079
 30
0.0
 10
3.046944438151589
 20
-1.176139436693196
 30
0.0
 10
3.139810424440939
 20
-1.176139436693196
 30
0.0
  0
HATCH
  5
56
330
46
100
AcDbEntity
  8
Layer 2
 62
    18
420
   655875
100
AcDbHatch
 10
0.0
 20
0.0
 30
0.0
210
0.0
220
0.0
230
1.0
  2
SOLID
 70
     1
 71
     0
 91
        2
 92
        1
 93
        1
 72
     4
 94
        3
 73
     0
 74
     1
 95
       17
 96
       13
 40
0.0
 40
0.0
 40
0.0
 40
0.0
 40
1.0
 40
1.0
 40
1.0
 40
2.0
 40
2.0
 40
2.0
 40
3.0
 40
3.0
 40
3.0
 40
4.0
 40
4.0
 40
4.0
 40
4.0
 10
3.139810424440939
 20
-0.8695250230911521
 10
3.269583142449821
 20
-0.8695250230911521
 10
3.356564670697935
 20
-0.9444966354561377
 10
3.356564670697935
 20
-1.048311465240052
 10
3.356564670697935
 20
-1.14603430759189
 10
3.267882741605136
 20
-1.227034309718015
 10
3.139810424440939
 20
-1.227034309718015
 10
3.010887991143717
 20
-1.227034309718015
 10
2.922239532269057
 20
-1.14603430759189
 10
2.922239532269057
 20
-1.048311465240052
 10
2.922239532269057
 20
-0.9444966354561377
 10
3.009288007631312
 20
-0.8695250230911521
 10
3.139810424440939
 20
-0.8695250230911521
 97
        0
 97
        0
 92
        1
 93
        1
 72
     4
 94
        3
 73
     0
 74
     1
 95
       17
 96
       13
 40
0.0
 40
0.0
 40
0.0
 40
0.0
 40
1.0
 40
1.0
 40
1.0
 40
2.0
 40
2.0
 40
2.0
 40
3.0
 40
3.0
 40
3.0
 40
4.0
 40
4.0
 40
4.0
 40
4.0
 10
3.139810424440939
 20
-1.176139436693196
 10
3.231893155223108
 20
-1.176139436693196
 10
3.272947124435859
 20
-1.109211256086079
 10
3.272947124435859
 20
-1.048311465240052
 10
3.272947124435859
 20
-0.9833280344670482
 10
3.223491568372386
 20
-0.9204198961159716
 10
3.139810424440939
 20
-0.9204198961159716
 10
3.055279080087151
 20
-0.9204198961159716
 10
3.005920678314447
 20
-0.9833280344670482
 10
3.005920678314447
 20
-1.048311465240052
 10
3.005920678314447
 20
-1.109211256086079
 10
3.046944438151589
 20
-1.176139436693196
 10
3.139810424440939
 20
-1.176139436693196
 97
        0
 97
        0
 75
     2
 76
     1
 98
        0
  0
SPLINE
  5
57
330
46
100
AcDbEntity
  8
Layer 2
370
     0
100
AcDbSpline
210
0.0
220
0.0
230
1.0
 70
    11
 71
     3
 72
    65
 73
    61
 74
     0
 42
0.0000000001
 43
0.0000000001
 12
1.0
 22
0.0
 32
0.0
 13
1.0
 23
0.0
 33
0.0
 40
0.0
 40
0.0
 40
0.0
 40
0.0
 40
1.0
 40
1.0
 40
1.0
 40
2.0
 40
2.0
 40
2.0
 40
3.0
 40
3.0
 40
3.0
 40
4.0
 40
4.0
 40
4.0
 40
5.0
 40
5.0
 40
5.0
 40
6.0
 40
6.0
 40
6.0
 40
7.0
 40
7.0
 40
7.0
 40
8.0
 40
8.0
 40
8.0
 40
9.0
 40
9.0
 40
9.0
 40
10.0
 40
10.0
 40
10.0
 40
11.0
 40
11.0
 40
11.0
 40
12.0
 40
12.0
 40
12.0
 40
13.0
 40
13.0
 40
13.0
 40
14.0
 40
14.0
 40
14.0
 40
15.0
 40
15.0
 40
15.0
 40
16.0
 40
16.0
 40
16.0
 40
17.0
 40
17.0
 40
17.0
 40
18.0
 40
18.0
 40
18.0
 40
19.0
 40
19.0
 40
19.0
 40
20.0
 40
20.0
 40
20.0
 40
20.0
 10
3.433544628623344
 20
-0.8775684548490214
 30
0.0
 10
3.433544628623344
 20
-0.8775684548490214
 30
0.0
 10
3.507224202232085
 20
-0.8775684548490214
 30
0.0
 10
3.507224202232085
 20
-0.8775684548490214
 30
0.0
 10
3.507224202232085
 20
-0.8775684548490214
 30
0.0
 10
3.507224202232085
 20
-0.9271043460620755
 30
0.0
 10
3.507224202232085
 20
-0.9271043460620755
 30
0.0
 10
3.507224202232085
 20
-0.9271043460620755
 30
0.0
 10
3.508891130619203
 20
-0.9271043460620755
 30
0.0
 10
3.508891130619203
 20
-0.9271043460620755
 30
0.0
 10
3.539029829048811
 20
-0.8875867616535641
 30
0.0
 10
3.58168703134806
 20
-0.8695250230911521
 30
0.0
 10
3.644481361754212
 20
-0.8695250230911521
 30
0.0
 10
3.693903445360117
 20
-0.8695250230911521
 30
0.0
 10
3.74322845883906
 20
-0.8896285816170904
 30
0.0
 10
3.765819020454804
 20
-0.9358172269883198
 30
0.0
 10
3.795107420830795
 20
-0.8869307014686001
 30
0.0
 10
3.859565332378325
 20
-0.8695250230911521
 30
0.0
 10
3.898008449900418
 20
-0.8695250230911521
 30
0.0
 10
4.006824062223106
 20
-0.8695250230911521
 30
0.0
 10
4.046150852625134
 20
-0.9257654477253506
 30
0.0
 10
4.046150852625134
 20
-1.000097736134548
 30
0.0
 10
4.046150852625134
 20
-1.000097736134548
 30
0.0
 10
4.046150852625134
 20
-1.218994225205986
 30
0.0
 10
4.046150852625134
 20
-1.218994225205986
 30
0.0
 10
4.046150852625134
 20
-1.218994225205986
 30
0.0
 10
3.967500619066843
 20
-1.218994225205986
 30
0.0
 10
3.967500619066843
 20
-1.218994225205986
 30
0.0
 10
3.967500619066843
 20
-1.218994225205986
 30
0.0
 10
3.967500619066843
 20
-1.015478330777695
 30
0.0
 10
3.967500619066843
 20
-1.015478330777695
 30
0.0
 10
3.967500619066843
 20
-0.9733264638917313
 30
0.0
 10
3.955015392392271
 20
-0.9204198961159716
 30
0.0
 10
3.89130726389438
 20
-0.9204198961159716
 30
0.0
 10
3.810993553696385
 20
-0.9204198961159716
 30
0.0
 10
3.779218045221114
 20
-0.9833280344670482
 30
0.0
 10
3.779218045221114
 20
-1.046989303132553
 30
0.0
 10
3.779218045221114
 20
-1.046989303132553
 30
0.0
 10
3.779218045221114
 20
-1.218994225205986
 30
0.0
 10
3.779218045221114
 20
-1.218994225205986
 30
0.0
 10
3.779218045221114
 20
-1.218994225205986
 30
0.0
 10
3.700571158908562
 20
-1.218994225205986
 30
0.0
 10
3.700571158908562
 20
-1.218994225205986
 30
0.0
 10
3.700571158908562
 20
-1.218994225205986
 30
0.0
 10
3.700571158908562
 20
-1.015478330777695
 30
0.0
 10
3.700571158908562
 20
-1.015478330777695
 30
0.0
 10
3.700571158908562
 20
-0.9733264638917313
 30
0.0
 10
3.687988862107052
 20
-0.9204198961159716
 30
0.0
 10
3.624377803736125
 20
-0.9204198961159716
 30
0.0
 10
3.544030516578914
 20
-0.9204198961159716
 30
0.0
 10
3.51219151493587
 20
-0.9833280344670482
 30
0.0
 10
3.51219151493587
 20
-1.046989303132553
 30
0.0
 10
3.51219151493587
 20
-1.046989303132553
 30
0.0
 10
3.51219151493587
 20
-1.218994225205986
 30
0.0
 10
3.51219151493587
 20
-1.218994225205986
 30
0.0
 10
3.51219151493587
 20
-1.218994225205986
 30
0.0
 10
3.433544628623344
 20
-1.218994225205986
 30
0.0
 10
3.433544628623344
 20
-1.218994225205986
 30
0.0
 10
3.433544628623344
 20
-1.218994225205986
 30
0.0
 10
3.433544628623344
 20
-0.8775684548490214
 30
0.0
 10
3.433544628623344
 20
-0.8775684548490214
 30
0.0
  0
HATCH
  5
58
330
46
100
AcDbEntity
  8
Layer 2
 62
    18
420
   655875
100
AcDbHatch
 10
0.0
 20
0.0
 30
0.0
210
0.0
220
0.0
230
1.0
  2
SOLID
 70
     1
 71
     0
 91
        1
 92
        1
 93
        1
 72
     4
 94
        3
 73
     0
 74
     1
 95
       65
 96
       61
 40
0.0
 40
0.0
 40
0.0
 40
0.0
 40
1.0
 40
1.0
 40
1.0
 40
2.0
 40
2.0
 40
2.0
 40
3.0
 40
3.0
 40
3.0
 40
4.0
 40
4.0
 40
4.0
 40
5.0
 40
5.0
 40
5.0
 40
6.0
 40
6.0
 40
6.0
 40
7.0
 40
7.0
 40
7.0
 40
8.0
 40
8.0
 40
8.0
 40
9.0
 40
9.0
 40
9.0
 40
10.0
 40
10.0
 40
10.0
 40
11.0
 40
11.0
 40
11.0
 40
12.0
 40
12.0
 40
12.0
 40
13.0
 40
13.0
 40
13.0
 40
14.0
 40
14.0
 40
14.0
 40
15.0
 40
15.0
 40
15.0
 40
16.0
 40
16.0
 40
16.0
 40
17.0
 40
17.0
 40
17.0
 40
18.0
 40
18.0
 40
18.0
 40
19.0
 40
19.0
 40
19.0
 40
20.0
 40
20.0
 40
20.0
 40
20.0
 10
3.433544628623344
 20
-0.8775684548490214
 10
3.433544628623344
 20
-0.8775684548490214
 10
3.507224202232085
 20
-0.8775684548490214
 10
3.507224202232085
 20
-0.8775684548490214
 10
3.507224202232085
 20
-0.8775684548490214
 10
3.507224202232085
 20
-0.9271043460620755
 10
3.507224202232085
 20
-0.9271043460620755
 10
3.507224202232085
 20
-0.9271043460620755
 10
3.508891130619203
 20
-0.9271043460620755
 10
3.508891130619203
 20
-0.9271043460620755
 10
3.539029829048811
 20
-0.8875867616535641
 10
3.58168703134806
 20
-0.8695250230911521
 10
3.644481361754212
 20
-0.8695250230911521
 10
3.693903445360117
 20
-0.8695250230911521
 10
3.74322845883906
 20
-0.8896285816170904
 10
3.765819020454804
 20
-0.9358172269883198
 10
3.795107420830795
 20
-0.8869307014686001
 10
3.859565332378325
 20
-0.8695250230911521
 10
3.898008449900418
 20
-0.8695250230911521
 10
4.006824062223106
 20
-0.8695250230911521
 10
4.046150852625134
 20
-0.9257654477253506
 10
4.046150852625134
 20
-1.000097736134548
 10
4.046150852625134
 20
-1.000097736134548
 10
4.046150852625134
 20
-1.218994225205986
 10
4.046150852625134
 20
-1.218994225205986
 10
4.046150852625134
 20
-1.218994225205986
 10
3.967500619066843
 20
-1.218994225205986
 10
3.967500619066843
 20
-1.218994225205986
 10
3.967500619066843
 20
-1.218994225205986
 10
3.967500619066843
 20
-1.015478330777695
 10
3.967500619066843
 20
-1.015478330777695
 10
3.967500619066843
 20
-0.9733264638917313
 10
3.955015392392271
 20
-0.9204198961159716
 10
3.89130726389438
 20
-0.9204198961159716
 10
3.810993553696385
 20
-0.9204198961159716
 10
3.779218045221114
 20
-0.9833280344670482
 10
3.779218045221114
 20
-1.046989303132553
 10
3.779218045221114
 20
-1.046989303132553
 10
3.779218045221114
 20
-1.218994225205986
 10
3.779218045221114
 20
-1.218994225205986
 10
3.779218045221114
 20
-1.218994225205986
 10
3.700571158908562
 20
-1.218994225205986
 10
3.700571158908562
 20
-1.218994225205986
 10
3.700571158908562
 20
-1.218994225205986
 10
3.700571158908562
 20
-1.015478330777695
 10
3.700571158908562
 20
-1.015478330777695
 10
3.700571158908562
 20
-0.9733264638917313
 10
3.687988862107052
 20
-0.9204198961159716
 10
3.624377803736125
 20
-0.9204198961159716
 10
3.544030516578914
 20
-0.9204198961159716
 10
3.51219151493587
 20
-0.9833280344670482
 10
3.51219151493587
 20
-1.046989303132553
 10
3.51219151493587
 20
-1.046989303132553
 10
3.51219151493587
 20
-1.218994225205986
 10
3.51219151493587
 20
-1.218994225205986
 10
3.51219151493587
 20
-1.218994225205986
 10
3.433544628623344
 20
-1.218994225205986
 10
3.433544628623344
 20
-1.218994225205986
 10
3.433544628623344
 20
-1.218994225205986
 10
3.433544628623344
 20
-0.8775684548490214
 10
3.433544628623344
 20
-0.8775684548490214
 97
        0
 97
        0
 75
     2
 76
     1
 98
        0
  0
SPLINE
  5
59
330
46
100
AcDbEntity
  8
Layer 2
370
     0
100
AcDbSpline
210
0.0
220
0.0
230
1.0
 70
    11
 71
     3
 72
    17
 73
    13
 74
     0
 42
0.0000000001
 43
0.0000000001
 12
1.0
 22
0.0
 32
0.0
 13
1.0
 23
0.0
 33
0.0
 40
0.0
 40
0.0
 40
0.0
 40
0.0
 40
1.0
 40
1.0
 40
1.0
 40
2.0
 40
2.0
 40
2.0
 40
3.0
 40
3.0
 40
3.0
 40
4.0
 40
4.0
 40
4.0
 40
4.0
 10
4.090113578400961
 20
-0.9368783039201641
 30
0.0
 10
4.090113578400961
 20
-0.9049422313433853
 30
0.0
 10
4.11610159446031
 20
-0.8789742981025989
 30
0.0
 10
4.148004193772723
 20
-0.8789742981025989
 30
0.0
 10
4.179973738000298
 20
-0.8789742981025989
 30
0.0
 10
4.205961754059646
 20
-0.9049422313433853
 30
0.0
 10
4.205961754059646
 20
-0.9368783039201641
 30
0.0
 10
4.205961754059646
 20
-0.9688143764969178
 30
0.0
 10
4.179973738000298
 20
-0.9947856569835949
 30
0.0
 10
4.148004193772723
 20
-0.9947856569835949
 30
0.0
 10
4.11610159446031
 20
-0.9947856569835949
 30
0.0
 10
4.090113578400961
 20
-0.9688143764969178
 30
0.0
 10
4.090113578400961
 20
-0.9368783039201641
 30
0.0
  0
SPLINE
  5
5A
330
46
100
AcDbEntity
  8
Layer 2
370
     0
100
AcDbSpline
210
0.0
220
0.0
230
1.0
 70
    11
 71
     3
 72
    17
 73
    13
 74
     0
 42
0.0000000001
 43
0.0000000001
 12
1.0
 22
0.0
 32
0.0
 13
1.0
 23
0.0
 33
0.0
 40
0.0
 40
0.0
 40
0.0
 40
0.0
 40
1.0
 40
1.0
 40
1.0
 40
2.0
 40
2.0
 40
2.0
 40
3.0
 40
3.0
 40
3.0
 40
4.0
 40
4.0
 40
4.0
 40
4.0
 10
4.191839724209785
 20
-0.9368783039201641
 30
0.0
 10
4.191839724209785
 20
-0.9097656126014549
 30
0.0
 10
4.172228324945258
 20
-0.8902176968852523
 30
0.0
 10
4.148004193772723
 20
-0.8902176968852523
 30
0.0
 10
4.123847121142591
 20
-0.8902176968852523
 30
0.0
 10
4.104235608250822
 20
-0.9097656126014549
 30
0.0
 10
4.104235608250822
 20
-0.9368783039201641
 30
0.0
 10
4.104235608250822
 20
-0.9640110787139393
 30
0.0
 10
4.123847121142591
 20
-0.9835757306593678
 30
0.0
 10
4.148004193772723
 20
-0.9835757306593678
 30
0.0
 10
4.172228324945258
 20
-0.9835757306593678
 30
0.0
 10
4.191839724209785
 20
-0.9640110787139393
 30
0.0
 10
4.191839724209785
 20
-0.9368783039201641
 30
0.0
  0
SPLINE
  5
5B
330
46
100
AcDbEntity
  8
Layer 2
370
     0
100
AcDbSpline
210
0.0
220
0.0
230
1.0
 70
    11
 71
     3
 72
    35
 73
    31
 74
     0
 42
0.0000000001
 43
0.0000000001
 12
1.0
 22
0.0
 32
0.0
 13
1.0
 23
0.0
 33
0.0
 40
0.0
 40
0.0
 40
0.0
 40
0.0
 40
1.0
 40
1.0
 40
1.0
 40
2.0
 40
2.0
 40
2.0
 40
3.0
 40
3.0
 40
3.0
 40
4.0
 40
4.0
 40
4.0
 40
5.0
 40
5.0
 40
5.0
 40
6.0
 40
6.0
 40
6.0
 40
7.0
 40
7.0
 40
7.0
 40
8.0
 40
8.0
 40
8.0
 40
9.0
 40
9.0
 40
9.0
 40
10.0
 40
10.0
 40
10.0
 40
10.0
 10
4.125711537029398
 20
-0.9038476819531398
 30
0.0
 10
4.125711537029398
 20
-0.9038476819531398
 30
0.0
 10
4.150129694828593
 20
-0.9038476819531398
 30
0.0
 10
4.150129694828593
 20
-0.9038476819531398
 30
0.0
 10
4.165851708150436
 20
-0.9038476819531398
 30
0.0
 10
4.174350365128096
 20
-0.9092735674627318
 30
0.0
 10
4.174350365128096
 20
-0.9230675675768351
 30
0.0
 10
4.174350365128096
 20
-0.9343310498345545
 30
0.0
 10
4.167943850267698
 20
-0.9397569353441213
 30
0.0
 10
4.157222508588221
 20
-0.9407376783757778
 30
0.0
 10
4.157222508588221
 20
-0.9407376783757778
 30
0.0
 10
4.174842410254415
 20
-0.9694369642235061
 30
0.0
 10
4.174842410254415
 20
-0.9694369642235061
 30
0.0
 10
4.174842410254415
 20
-0.9694369642235061
 30
0.0
 10
4.162323711122276
 20
-0.9694369642235061
 30
0.0
 10
4.162323711122276
 20
-0.9694369642235061
 30
0.0
 10
4.162323711122276
 20
-0.9694369642235061
 30
0.0
 10
4.145259452251771
 20
-0.9412263762687113
 30
0.0
 10
4.145259452251771
 20
-0.9412263762687113
 30
0.0
 10
4.145259452251771
 20
-0.9412263762687113
 30
0.0
 10
4.138002623450044
 20
-0.9412263762687113
 30
0.0
 10
4.138002623450044
 20
-0.9412263762687113
 30
0.0
 10
4.138002623450044
 20
-0.9412263762687113
 30
0.0
 10
4.138002623450044
 20
-0.9694369642235061
 30
0.0
 10
4.138002623450044
 20
-0.9694369642235061
 30
0.0
 10
4.138002623450044
 20
-0.9694369642235061
 30
0.0
 10
4.125711537029398
 20
-0.9694369642235061
 30
0.0
 10
4.125711537029398
 20
-0.9694369642235061
 30
0.0
 10
4.125711537029398
 20
-0.9694369642235061
 30
0.0
 10
4.125711537029398
 20
-0.9038476819531398
 30
0.0
 10
4.125711537029398
 20
-0.9038476819531398
 30
0.0
  0
SPLINE
  5
5C
330
46
100
AcDbEntity
  8
Layer 2
370
     0
100
AcDbSpline
210
0.0
220
0.0
230
1.0
 70
    11
 71
     3
 72
    20
 73
    16
 74
     0
 42
0.0000000001
 43
0.0000000001
 12
1.0
 22
0.0
 32
0.0
 13
1.0
 23
0.0
 33
0.0
 40
0.0
 40
0.0
 40
0.0
 40
0.0
 40
1.0
 40
1.0
 40
1.0
 40
2.0
 40
2.0
 40
2.0
 40
3.0
 40
3.0
 40
3.0
 40
4.0
 40
4.0
 40
4.0
 40
5.0
 40
5.0
 40
5.0
 40
5.0
 10
4.138002623450044
 20
-0.9319277273201199
 30
0.0
 10
4.138002623450044
 20
-0.9319277273201199
 30
0.0
 10
4.14866025394114
 20
-0.9319277273201199
 30
0.0
 10
4.14866025394114
 20
-0.9319277273201199
 30
0.0
 10
4.155913735497127
 20
-0.9319277273201199
 30
0.0
 10
4.16212622362261
 20
-0.9309637205176639
 30
0.0
 10
4.16212622362261
 20
-0.9221202970036049
 30
0.0
 10
4.16212622362261
 20
-0.9144082425840577
 30
0.0
 10
4.155097007532352
 20
-0.913149678147546
 30
0.0
 10
4.148790796525696
 20
-0.913149678147546
 30
0.0
 10
4.148790796525696
 20
-0.913149678147546
 30
0.0
 10
4.138002623450044
 20
-0.913149678147546
 30
0.0
 10
4.138002623450044
 20
-0.913149678147546
 30
0.0
 10
4.138002623450044
 20
-0.913149678147546
 30
0.0
 10
4.138002623450044
 20
-0.9319277273201199
 30
0.0
 10
4.138002623450044
 20
-0.9319277273201199
 30
0.0
  0
HATCH
  5
5D
330
46
100
AcDbEntity
  8
Layer 2
 62
    18
420
   655875
100
AcDbHatch
 10
0.0
 20
0.0
 30
0.0
210
0.0
220
0.0
230
1.0
  2
SOLID
 70
     1
 71
     0
 91
        4
 92
        1
 93
        1
 72
     4
 94
        3
 73
     0
 74
     1
 95
       17
 96
       13
 40
0.0
 40
0.0
 40
0.0
 40
0.0
 40
1.0
 40
1.0
 40
1.0
 40
2.0
 40
2.0
 40
2.0
 40
3.0
 40
3.0
 40
3.0
 40
4.0
 40
4.0
 40
4.0
 40
4.0
 10
4.090113578400961
 20
-0.9368783039201641
 10
4.090113578400961
 20
-0.9049422313433853
 10
4.11610159446031
 20
-0.8789742981025989
 10
4.148004193772723
 20
-0.8789742981025989
 10
4.179973738000298
 20
-0.8789742981025989
 10
4.205961754059646
 20
-0.9049422313433853
 10
4.205961754059646
 20
-0.9368783039201641
 10
4.205961754059646
 20
-0.9688143764969178
 10
4.179973738000298
 20
-0.9947856569835949
 10
4.148004193772723
 20
-0.9947856569835949
 10
4.11610159446031
 20
-0.9947856569835949
 10
4.090113578400961
 20
-0.9688143764969178
 10
4.090113578400961
 20
-0.9368783039201641
 97
        0
 97
        0
 92
        1
 93
        1
 72
     4
 94
        3
 73
     0
 74
     1
 95
       17
 96
       13
 40
0.0
 40
0.0
 40
0.0
 40
0.0
 40
1.0
 40
1.0
 40
1.0
 40
2.0
 40
2.0
 40
2.0
 40
3.0
 40
3.0
 40
3.0
 40
4.0
 40
4.0
 40
4.0
 40
4.0
 10
4.191839724209785
 20
-0.9368783039201641
 10
4.191839724209785
 20
-0.9097656126014549
 10
4.172228324945258
 20
-0.8902176968852523
 10
4.148004193772723
 20
-0.8902176968852523
 10
4.123847121142591
 20
-0.8902176968852523
 10
4.104235608250822
 20
-0.9097656126014549
 10
4.104235608250822
 20
-0.9368783039201641
 10
4.104235608250822
 20
-0.9640110787139393
 10
4.123847121142591
 20
-0.9835757306593678
 10
4.148004193772723
 20
-0.9835757306593678
 10
4.172228324945258
 20
-0.9835757306593678
 10
4.191839724209785
 20
-0.9640110787139393
 10
4.191839724209785
 20
-0.9368783039201641
 97
        0
 97
        0
 92
        1
 93
        1
 72
     4
 94
        3
 73
     0
 74
     1
 95
       35
 96
       31
 40
0.0
 40
0.0
 40
0.0
 40
0.0
 40
1.0
 40
1.0
 40
1.0
 40
2.0
 40
2.0
 40
2.0
 40
3.0
 40
3.0
 40
3.0
 40
4.0
 40
4.0
 40
4.0
 40
5.0
 40
5.0
 40
5.0
 40
6.0
 40
6.0
 40
6.0
 40
7.0
 40
7.0
 40
7.0
 40
8.0
 40
8.0
 40
8.0
 40
9.0
 40
9.0
 40
9.0
 40
10.0
 40
10.0
 40
10.0
 40
10.0
 10
4.125711537029398
 20
-0.9038476819531398
 10
4.125711537029398
 20
-0.9038476819531398
 10
4.150129694828593
 20
-0.9038476819531398
 10
4.150129694828593
 20
-0.9038476819531398
 10
4.165851708150436
 20
-0.9038476819531398
 10
4.174350365128096
 20
-0.9092735674627318
 10
4.174350365128096
 20
-0.9230675675768351
 10
4.174350365128096
 20
-0.9343310498345545
 10
4.167943850267698
 20
-0.9397569353441213
 10
4.157222508588221
 20
-0.9407376783757778
 10
4.157222508588221
 20
-0.9407376783757778
 10
4.174842410254415
 20
-0.9694369642235061
 10
4.174842410254415
 20
-0.9694369642235061
 10
4.174842410254415
 20
-0.9694369642235061
 10
4.162323711122276
 20
-0.9694369642235061
 10
4.162323711122276
 20
-0.9694369642235061
 10
4.162323711122276
 20
-0.9694369642235061
 10
4.145259452251771
 20
-0.9412263762687113
 10
4.145259452251771
 20
-0.9412263762687113
 10
4.145259452251771
 20
-0.9412263762687113
 10
4.138002623450044
 20
-0.9412263762687113
 10
4.138002623450044
 20
-0.9412263762687113
 10
4.138002623450044
 20
-0.9412263762687113
 10
4.138002623450044
 20
-0.9694369642235061
 10
4.138002623450044
 20
-0.9694369642235061
 10
4.138002623450044
 20
-0.9694369642235061
 10
4.125711537029398
 20
-0.9694369642235061
 10
4.125711537029398
 20
-0.9694369642235061
 10
4.125711537029398
 20
-0.9694369642235061
 10
4.125711537029398
 20
-0.9038476819531398
 10
4.125711537029398
 20
-0.9038476819531398
 97
        0
 97
        0
 92
        1
 93
        1
 72
     4
 94
        3
 73
     0
 74
     1
 95
       20
 96
       16
 40
0.0
 40
0.0
 40
0.0
 40
0.0
 40
1.0
 40
1.0
 40
1.0
 40
2.0
 40
2.0
 40
2.0
 40
3.0
 40
3.0
 40
3.0
 40
4.0
 40
4.0
 40
4.0
 40
5.0
 40
5.0
 40
5.0
 40
5.0
 10
4.138002623450044
 20
-0.9319277273201199
 10
4.138002623450044
 20
-0.9319277273201199
 10
4.14866025394114
 20
-0.9319277273201199
 10
4.14866025394114
 20
-0.9319277273201199
 10
4.155913735497127
 20
-0.9319277273201199
 10
4.16212622362261
 20
-0.9309637205176639
 10
4.16212622362261
 20
-0.9221202970036049
 10
4.16212622362261
 20
-0.9144082425840577
 10
4.155097007532352
 20
-0.913149678147546
 10
4.148790796525696
 20
-0.913149678147546
 10
4.148790796525696
 20
-0.913149678147546
 10
4.138002623450044
 20
-0.913149678147546
 10
4.138002623450044
 20
-0.913149678147546
 10
4.138002623450044
 20
-0.913149678147546
 10
4.138002623450044
 20
-0.9319277273201199
 10
4.138002623450044
 20
-0.9319277273201199
 97
        0
 97
        0
 75
     2
 76
     1
 98
        0
  0
ENDBLK
  5
49
330
46
100
AcDbEntity
  8
0
100
AcDbBlockEnd
  0
ENDSEC
  0
SECTION
  2
ENTITIES
  0
INSERT
  5
42
330
1F
100
AcDbEntity
  8
Layer 2
100
AcDbBlockReference
  2
block 2
 10
0.0
 20
0.0
 30
0.0
  0
ENDSEC
  0
SECTION
  2
OBJECTS
  0
DICTIONARY
  5
C
330
0
100
AcDbDictionary
281
     1
  3
ACAD_GROUP
350
D
  3
ACAD_LAYOUT
350
1A
  3
ACAD_MATERIAL
350
3B
  3
ACAD_MLEADERSTYLE
350
5F
  3
ACAD_MLINESTYLE
350
17
  3
ACAD_PLOTSETTINGS
350
19
  3
ACAD_PLOTSTYLENAME
350
E
  3
ACAD_TABLESTYLE
350
5E
  3
ACAD_VISUALSTYLE
350
2A
  0
SUN
  5
3F
330
29
100
AcDbSun
 90
        1
290
     0
 63
     7
421
 16777215
 40
1.0
291
     1
 91
  2455826
 92
 54000000
292
     0
 70
     2
 71
   256
280
     1
  0
DICTIONARY
  5
D
102
{ACAD_REACTORS
330
C
102
}
330
C
100
AcDbDictionary
281
     1
  0
DICTIONARY
  5
1A
102
{ACAD_REACTORS
330
C
102
}
330
C
100
AcDbDictionary
281
     1
  3
Layout1
350
1E
  3
Layout2
350
26
  3
Model
350
22
  0
DICTIONARY
  5
3B
102
{ACAD_REACTORS
330
C
102
}
330
C
100
AcDbDictionary
281
     1
  3
ByBlock
350
3D
  3
ByLayer
350
3C
  3
Global
350
3E
  0
DICTIONARY
  5
5F
102
{ACAD_REACTORS
330
C
102
}
330
C
100
AcDbDictionary
281
     1
  0
DICTIONARY
  5
17
102
{ACAD_REACTORS
330
C
102
}
330
C
100
AcDbDictionary
281
     1
  3
Standard
350
18
  0
DICTIONARY
  5
19
102
{ACAD_REACTORS
330
C
102
}
330
C
100
AcDbDictionary
281
     1
  0
ACDBDICTIONARYWDFLT
  5
E
102
{ACAD_REACTORS
330
C
102
}
330
C
100
AcDbDictionary
281
     1
  3
Normal
350
F
100
AcDbDictionaryWithDefault
340
F
  0
DICTIONARY
  5
5E
102
{ACAD_REACTORS
330
C
102
}
330
C
100
AcDbDictionary
281
     1
  0
DICTIONARY
  5
2A
102
{ACAD_REACTORS
330
C
102
}
330
C
100
AcDbDictionary
281
     1
  3
2dWireframe
350
2F
  3
3D Hidden
350
31
  3
3dWireframe
350
30
  3
Basic
350
32
  3
Brighten
350
36
  3
ColorChange
350
3A
  3
Conceptual
350
34
  3
Dim
350
35
  3
Facepattern
350
39
  3
Flat
350
2B
  3
FlatWithEdges
350
2C
  3
Gouraud
350
2D
  3
GouraudWithEdges
350
2E
  3
Linepattern
350
38
  3
Realistic
350
33
  3
Thicken
350
37
  0
LAYOUT
  5
1E
102
{ACAD_REACTORS
330
1A
102
}
330
1A
100
AcDbPlotSettings
  1

  2
none_device
  4

  6

 40
0.0
 41
0.0
 42
0.0
 43
0.0
 44
0.0
 45
0.0
 46
0.0
 47
0.0
 48
0.0
 49
0.0
140
0.0
141
0.0
142
1.0
143
1.0
 70
   688
 72
     0
 73
     0
 74
     5
  7

 75
    16
 76
     0
 77
     2
 78
   300
147
1.0
148
0.0
149
0.0
100
AcDbLayout
  1
Layout1
 70
     1
 71
     1
 10
0.0
 20
0.0
 11
12.0
 21
9.0
 12
0.0
 22
0.0
 32
0.0
 14
1.000000000000000E+20
 24
1.000000000000000E+20
 34
1.000000000000000E+20
 15
-1.000000000000000E+20
 25
-1.000000000000000E+20
 35
-1.000000000000000E+20
146
0.0
 13
0.0
 23
0.0
 33
0.0
 16
1.0
 26
0.0
 36
0.0
 17
0.0
 27
1.0
 37
0.0
 76
     0
330
1B
  0
LAYOUT
  5
26
102
{ACAD_REACTORS
330
1A
102
}
330
1A
100
AcDbPlotSettings
  1

  2
none_device
  4

  6

 40
0.0
 41
0.0
 42
0.0
 43
0.0
 44
0.0
 45
0.0
 46
0.0
 47
0.0
 48
0.0
 49
0.0
140
0.0
141
0.0
142
1.0
143
1.0
 70
   688
 72
     0
 73
     0
 74
     5
  7

 75
    16
 76
     0
 77
     2
 78
   300
147
1.0
148
0.0
149
0.0
100
AcDbLayout
  1
Layout2
 70
     1
 71
     2
 10
0.0
 20
0.0
 11
0.0
 21
0.0
 12
0.0
 22
0.0
 32
0.0
 14
0.0
 24
0.0
 34
0.0
 15
0.0
 25
0.0
 35
0.0
146
0.0
 13
0.0
 23
0.0
 33
0.0
 16
1.0
 26
0.0
 36
0.0
 17
0.0
 27
1.0
 37
0.0
 76
     0
330
23
  0
LAYOUT
  5
22
102
{ACAD_REACTORS
330
1A
102
}
330
1A
100
AcDbPlotSettings
  1

  2
none_device
  4

  6

 40
0.0
 41
0.0
 42
0.0
 43
0.0
 44
0.0
 45
0.0
 46
0.0
 47
0.0
 48
0.0
 49
0.0
140
0.0
141
0.0
142
1.0
143
1.0
 70
  1712
 72
     0
 73
     0
 74
     0
  7

 75
     0
 76
     0
 77
     2
 78
   300
147
1.0
148
0.0
149
0.0
100
AcDbLayout
  1
Model
 70
     1
 71
     0
 10
0.0
 20
0.0
 11
12.0
 21
9.0
 12
0.0
 22
0.0
 32
0.0
 14
1.000000000000000E+20
 24
1.000000000000000E+20
 34
1.000000000000000E+20
 15
-1.000000000000000E+20
 25
-1.000000000000000E+20
 35
-1.000000000000000E+20
146
0.0
 13
0.0
 23
0.0
 33
0.0
 16
1.0
 26
0.0
 36
0.0
 17
0.0
 27
1.0
 37
0.0
 76
     0
330
1F
331
29
  0
MATERIAL
  5
3D
102
{ACAD_REACTORS
330
3B
102
}
330
3B
100
AcDbMaterial
  1
ByBlock
 72
     1
 94
      127
  0
MATERIAL
  5
3C
102
{ACAD_REACTORS
330
3B
102
}
330
3B
100
AcDbMaterial
  1
ByLayer
 72
     1
 94
      127
  0
MATERIAL
  5
3E
102
{ACAD_REACTORS
330
3B
102
}
330
3B
100
AcDbMaterial
  1
Global
 72
     1
 94
      127
  0
MLINESTYLE
  5
18
102
{ACAD_REACTORS
330
17
102
}
330
17
100
AcDbMlineStyle
  2
Standard
 70
     0
  3

 62
   256
 51
90.0
 52
90.0
 71
     2
 49
0.5
 62
   256
  6
BYLAYER
 49
-0.5
 62
   256
  6
BYLAYER
  0
ACDBPLACEHOLDER
  5
F
102
{ACAD_REACTORS
330
E
102
}
330
E
  0
VISUALSTYLE
  5
2F
102
{ACAD_REACTORS
330
2A
102
}
330
2A
100
AcDbVisualStyle
  2
2dWireframe
 70
     4
177
     2
291
     0
 71
     0
176
     1
 72
     2
176
     1
 73
     0
176
     1
 90
        0
176
     1
 40
-0.6
176
     1
 41
-30.0
176
     1
 62
     5
 63
     7
421
 16777215
176
     1
 74
     1
176
     1
 91
        4
176
     1
 64
     7
176
     1
 65
   257
176
     1
 75
     1
176
     1
175
     1
176
     1
 42
1.0
176
     1
 92
        0
176
     1
 66
   257
176
     1
 43
1.0
176
     1
 76
     1
176
     1
 77
     6
176
     1
 78
     2
176
     1
 67
     7
176
     1
 79
     5
176
     1
170
     0
176
     1
171
     0
176
     1
290
     0
176
     1
 93
        1
176
     1
 44
0.0
176
     1
173
     0
176
     1
  0
VISUALSTYLE
  5
31
102
{ACAD_REACTORS
330
2A
102
}
330
2A
100
AcDbVisualStyle
  2
3D Hidden
 70
     6
177
     2
291
     0
 71
     1
176
     1
 72
     2
176
     1
 73
     2
176
     1
 90
        0
176
     1
 40
-0.6
176
     1
 41
-30.0
176
     1
 62
     5
 63
     7
421
 16777215
176
     1
 74
     2
176
     1
 91
        2
176
     1
 64
     7
176
     1
 65
   257
176
     1
 75
     2
176
     1
175
     1
176
     1
 42
40.0
176
     1
 92
        0
176
     1
 66
   257
176
     1
 43
1.0
176
     1
 76
     1
176
     1
 77
     6
176
     1
 78
     2
176
     1
 67
     7
176
     1
 79
     3
176
     1
170
     0
176
     1
171
     0
176
     1
290
     0
176
     1
 93
        1
176
     1
 44
0.0
176
     1
173
     0
176
     1
  0
VISUALSTYLE
  5
30
102
{ACAD_REACTORS
330
2A
102
}
330
2A
100
AcDbVisualStyle
  2
3dWireframe
 70
     5
177
     2
291
     0
 71
     0
176
     1
 72
     2
176
     1
 73
     0
176
     1
 90
        0
176
     1
 40
-0.6
176
     1
 41
-30.0
176
     1
 62
     5
 63
     7
421
 16777215
176
     1
 74
     1
176
     1
 91
        4
176
     1
 64
     7
176
     1
 65
   257
176
     1
 75
     1
176
     1
175
     1
176
     1
 42
1.0
176
     1
 92
        0
176
     1
 66
   257
176
     1
 43
1.0
176
     1
 76
     1
176
     1
 77
     6
176
     1
 78
     2
176
     1
 67
     7
176
     1
 79
     5
176
     1
170
     0
176
     1
171
     0
176
     1
290
     0
176
     1
 93
        1
176
     1
 44
0.0
176
     1
173
     0
176
     1
  0
VISUALSTYLE
  5
32
102
{ACAD_REACTORS
330
2A
102
}
330
2A
100
AcDbVisualStyle
  2
Basic
 70
     7
177
     2
291
     1
 71
     1
176
     1
 72
     0
176
     1
 73
     1
176
     1
 90
        0
176
     1
 40
-0.6
176
     1
 41
-30.0
176
     1
 62
     5
 63
     7
421
 16777215
176
     1
 74
     0
176
     1
 91
        4
176
     1
 64
     7
176
     1
 65
   257
176
     1
 75
     1
176
     1
175
     1
176
     1
 42
1.0
176
     1
 92
        8
176
     1
 66
     7
176
     1
 43
1.0
176
     1
 76
     1
176
     1
 77
     6
176
     1
 78
     2
176
     1
 67
     7
176
     1
 79
     5
176
     1
170
     0
176
     1
171
     0
176
     1
290
     0
176
     1
 93
        1
176
     1
 44
0.0
176
     1
173
     0
176
     1
  0
VISUALSTYLE
  5
36
102
{ACAD_REACTORS
330
2A
102
}
330
2A
100
AcDbVisualStyle
  2
Brighten
 70
    12
177
     2
291
     1
 71
     2
176
     1
 72
     2
176
     1
 73
     0
176
     1
 90
        0
176
     1
 40
-0.6
176
     1
 41
-30.0
176
     1
 62
     5
 63
     7
421
 16777215
176
     1
 74
     1
176
     1
 91
        4
176
     1
 64
     7
176
     1
 65
   257
176
     1
 75
     1
176
     1
175
     1
176
     1
 42
1.0
176
     1
 92
        8
176
     1
 66
     7
176
     1
 43
1.0
176
     1
 76
     1
176
     1
 77
     6
176
     1
 78
     2
176
     1
 67
     7
176
     1
 79
     5
176
     1
170
     0
176
     1
171
     0
176
     1
290
     0
176
     1
 93
        1
176
     1
 44
50.0
176
     1
173
     0
176
     1
  0
VISUALSTYLE
  5
3A
102
{ACAD_REACTORS
330
2A
102
}
330
2A
100
AcDbVisualStyle
  2
ColorChange
 70
    16
177
     2
291
     1
 71
     2
176
     1
 72
     2
176
     1
 73
     3
176
     1
 90
        0
176
     1
 40
-0.6
176
     1
 41
-30.0
176
     1
 62
     5
 63
     8
421
  8421504
176
     1
 74
     1
176
     1
 91
        4
176
     1
 64
     7
176
     1
 65
   257
176
     1
 75
     1
176
     1
175
     1
176
     1
 42
1.0
176
     1
 92
        8
176
     1
 66
     8
424
  8421504
176
     1
 43
1.0
176
     1
 76
     1
176
     1
 77
     6
176
     1
 78
     2
176
     1
 67
     7
176
     1
 79
     5
176
     1
170
     0
176
     1
171
     0
176
     1
290
     0
176
     1
 93
        1
176
     1
 44
0.0
176
     1
173
     0
176
     1
  0
VISUALSTYLE
  5
34
102
{ACAD_REACTORS
330
2A
102
}
330
2A
100
AcDbVisualStyle
  2
Conceptual
 70
     9
177
     2
291
     0
 71
     3
176
     1
 72
     2
176
     1
 73
     0
176
     1
 90
        0
176
     1
 40
-0.6
176
     1
 41
-30.0
176
     1
 62
     5
 63
     7
421
 16777215
176
     1
 74
     2
176
     1
 91
        2
176
     1
 64
     7
176
     1
 65
   257
176
     1
 75
     1
176
     1
175
     1
176
     1
 42
40.0
176
     1
 92
        8
176
     1
 66
     7
176
     1
 43
1.0
176
     1
 76
     1
176
     1
 77
     6
176
     1
 78
     2
176
     1
 67
     7
176
     1
 79
     3
176
     1
170
     0
176
     1
171
     0
176
     1
290
     0
176
     1
 93
        1
176
     1
 44
0.0
176
     1
173
     0
176
     1
  0
VISUALSTYLE
  5
35
102
{ACAD_REACTORS
330
2A
102
}
330
2A
100
AcDbVisualStyle
  2
Dim
 70
    11
177
     2
291
     1
 71
     2
176
     1
 72
     2
176
     1
 73
     0
176
     1
 90
        0
176
     1
 40
-0.6
176
     1
 41
-30.0
176
     1
 62
     5
 63
     7
421
 16777215
176
     1
 74
     1
176
     1
 91
        4
176
     1
 64
     7
176
     1
 65
   257
176
     1
 75
     1
176
     1
175
     1
176
     1
 42
1.0
176
     1
 92
        8
176
     1
 66
     7
176
     1
 43
1.0
176
     1
 76
     1
176
     1
 77
     6
176
     1
 78
     2
176
     1
 67
     7
176
     1
 79
     5
176
     1
170
     0
176
     1
171
     0
176
     1
290
     0
176
     1
 93
        1
176
     1
 44
-50.0
176
     1
173
     0
176
     1
  0
VISUALSTYLE
  5
39
102
{ACAD_REACTORS
330
2A
102
}
330
2A
100
AcDbVisualStyle
  2
Facepattern
 70
    15
177
     2
291
     1
 71
     2
176
     1
 72
     2
176
     1
 73
     0
176
     1
 90
        0
176
     1
 40
-0.6
176
     1
 41
-30.0
176
     1
 62
     5
 63
     7
421
 16777215
176
     1
 74
     1
176
     1
 91
        4
176
     1
 64
     7
176
     1
 65
   257
176
     1
 75
     1
176
     1
175
     1
176
     1
 42
1.0
176
     1
 92
        8
176
     1
 66
     7
176
     1
 43
1.0
176
     1
 76
     1
176
     1
 77
     6
176
     1
 78
     2
176
     1
 67
     7
176
     1
 79
     5
176
     1
170
     0
176
     1
171
     0
176
     1
290
     0
176
     1
 93
        1
176
     1
 44
0.0
176
     1
173
     0
176
     1
  0
VISUALSTYLE
  5
2B
102
{ACAD_REACTORS
330
2A
102
}
330
2A
100
AcDbVisualStyle
  2
Flat
 70
     0
177
     2
291
     1
 71
     2
176
     1
 72
     1
176
     1
 73
     1
176
     1
 90
        2
176
     1
 40
-0.6
176
     1
 41
30.0
176
     1
 62
     5
 63
     7
421
 16777215
176
     1
 74
     0
176
     1
 91
        4
176
     1
 64
     7
176
     1
 65
   257
176
     1
 75
     1
176
     1
175
     1
176
     1
 42
1.0
176
     1
 92
        8
176
     1
 66
     7
176
     1
 43
1.0
176
     1
 76
     1
176
     1
 77
     6
176
     1
 78
     2
176
     1
 67
     7
176
     1
 79
     5
176
     1
170
     0
176
     1
171
     0
176
     1
290
     0
176
     1
 93
       13
176
     1
 44
0.0
176
     1
173
     0
176
     1
  0
VISUALSTYLE
  5
2C
102
{ACAD_REACTORS
330
2A
102
}
330
2A
100
AcDbVisualStyle
  2
FlatWithEdges
 70
     1
177
     2
291
     1
 71
     2
176
     1
 72
     1
176
     1
 73
     1
176
     1
 90
        2
176
     1
 40
-0.6
176
     1
 41
30.0
176
     1
 62
     5
 63
     7
421
 16777215
176
     1
 74
     1
176
     1
 91
        4
176
     1
 64
     7
176
     1
 65
   257
176
     1
 75
     1
176
     1
175
     1
176
     1
 42
1.0
176
     1
 92
        0
176
     1
 66
   257
176
     1
 43
1.0
176
     1
 76
     1
176
     1
 77
     6
176
     1
 78
     2
176
     1
 67
     7
176
     1
 79
     5
176
     1
170
     0
176
     1
171
     0
176
     1
290
     0
176
     1
 93
       13
176
     1
 44
0.0
176
     1
173
     0
176
     1
  0
VISUALSTYLE
  5
2D
102
{ACAD_REACTORS
330
2A
102
}
330
2A
100
AcDbVisualStyle
  2
Gouraud
 70
     2
177
     2
291
     1
 71
     2
176
     1
 72
     2
176
     1
 73
     1
176
     1
 90
        2
176
     1
 40
-0.6
176
     1
 41
30.0
176
     1
 62
     5
 63
     7
421
 16777215
176
     1
 74
     0
176
     1
 91
        4
176
     1
 64
     7
176
     1
 65
   257
176
     1
 75
     1
176
     1
175
     1
176
     1
 42
1.0
176
     1
 92
        0
176
     1
 66
     7
176
     1
 43
1.0
176
     1
 76
     1
176
     1
 77
     6
176
     1
 78
     2
176
     1
 67
     7
176
     1
 79
     5
176
     1
170
     0
176
     1
171
     0
176
     1
290
     0
176
     1
 93
       13
176
     1
 44
0.0
176
     1
173
     0
176
     1
  0
VISUALSTYLE
  5
2E
102
{ACAD_REACTORS
330
2A
102
}
330
2A
100
AcDbVisualStyle
  2
GouraudWithEdges
 70
     3
177
     2
291
     1
 71
     2
176
     1
 72
     2
176
     1
 73
     1
176
     1
 90
        2
176
     1
 40
-0.6
176
     1
 41
30.0
176
     1
 62
     5
 63
     7
421
 16777215
176
     1
 74
     1
176
     1
 91
        4
176
     1
 64
     7
176
     1
 65
   257
176
     1
 75
     1
176
     1
175
     1
176
     1
 42
1.0
176
     1
 92
        0
176
     1
 66
   257
176
     1
 43
1.0
176
     1
 76
     1
176
     1
 77
     6
176
     1
 78
     2
176
     1
 67
     7
176
     1
 79
     5
176
     1
170
     0
176
     1
171
     0
176
     1
290
     0
176
     1
 93
       13
176
     1
 44
0.0
176
     1
173
     0
176
     1
  0
VISUALSTYLE
  5
38
102
{ACAD_REACTORS
330
2A
102
}
330
2A
100
AcDbVisualStyle
  2
Linepattern
 70
    14
177
     2
291
     1
 71
     2
176
     1
 72
     2
176
     1
 73
     0
176
     1
 90
        0
176
     1
 40
-0.6
176
     1
 41
-30.0
176
     1
 62
     5
 63
     7
421
 16777215
176
     1
 74
     1
176
     1
 91
        4
176
     1
 64
     7
176
     1
 65
   257
176
     1
 75
     7
176
     1
175
     7
176
     1
 42
1.0
176
     1
 92
        8
176
     1
 66
     7
176
     1
 43
1.0
176
     1
 76
     1
176
     1
 77
     6
176
     1
 78
     2
176
     1
 67
     7
176
     1
 79
     5
176
     1
170
     0
176
     1
171
     0
176
     1
290
     0
176
     1
 93
        1
176
     1
 44
0.0
176
     1
173
     0
176
     1
  0
VISUALSTYLE
  5
33
102
{ACAD_REACTORS
330
2A
102
}
330
2A
100
AcDbVisualStyle
  2
Realistic
 70
     8
177
     2
291
     0
 71
     2
176
     1
 72
     2
176
     1
 73
     0
176
     1
 90
        0
176
     1
 40
-0.6
176
     1
 41
-30.0
176
     1
 62
     5
 63
     7
421
 16777215
176
     1
 74
     1
176
     1
 91
        0
176
     1
 64
     7
176
     1
 65
   257
176
     1
 75
     1
176
     1
175
     1
176
     1
 42
1.0
176
     1
 92
        8
176
     1
 66
     8
424
  7895160
176
     1
 43
1.0
176
     1
 76
     1
176
     1
 77
     6
176
     1
 78
     2
176
     1
 67
     7
176
     1
 79
     5
176
     1
170
     0
176
     1
171
     0
176
     1
290
     0
176
     1
 93
       13
176
     1
 44
0.0
176
     1
173
     0
176
     1
  0
VISUALSTYLE
  5
37
102
{ACAD_REACTORS
330
2A
102
}
330
2A
100
AcDbVisualStyle
  2
Thicken
 70
    13
177
     2
291
     1
 71
     2
176
     1
 72
     2
176
     1
 73
     0
176
     1
 90
        0
176
     1
 40
-0.6
176
     1
 41
-30.0
176
     1
 62
     5
 63
     7
421
 16777215
176
     1
 74
     1
176
     1
 91
        4
176
     1
 64
     7
176
     1
 65
   257
176
     1
 75
     1
176
     1
175
     1
176
     1
 42
1.0
176
     1
 92
       12
176
     1
 66
     7
176
     1
 43
1.0
176
     1
 76
     1
176
     1
 77
     6
176
     1
 78
     2
176
     1
 67
     7
176
     1
 79
     5
176
     1
170
     0
176
     1
171
     0
176
     1
290
     0
176
     1
 93
        1
176
     1
 44
0.0
176
     1
173
     0
176
     1
  0
ENDSEC
  0
EOF
