<svg id="Layer_1" data-name="Layer 1" xmlns="http://www.w3.org/2000/svg" xmlns:xlink="http://www.w3.org/1999/xlink" viewBox="0 0 295.45 295.46"><defs><style>.cls-1{fill:url(#linear-gradient);}</style><linearGradient id="linear-gradient" x1="21.97" y1="38.56" x2="266.89" y2="253.69" gradientUnits="userSpaceOnUse"><stop offset="0" stop-color="#a3cf60"/><stop offset="0.7" stop-color="#008f4b"/><stop offset="1" stop-color="#006242"/></linearGradient></defs><title>Plogo</title><path class="cls-1" d="M249,6.75H230.13s-8.49,0-18.87,0H25.09A18.94,18.94,0,0,0,6.21,25.61V283.31a18.93,18.93,0,0,0,18.88,18.88H64.86a18.93,18.93,0,0,0,18.88-18.88V103.16a18.93,18.93,0,0,1,18.88-18.88H205.23a18.94,18.94,0,0,1,18.89,18.88V205.53a18.94,18.94,0,0,1-18.89,18.88H146.16a18.93,18.93,0,0,0-18.88,18.88v39.78a18.93,18.93,0,0,0,18.88,18.88H282.78a18.93,18.93,0,0,0,18.88-18.87V25.63A18.94,18.94,0,0,0,282.78,6.75Z" transform="translate(-6.21 -6.73)"/></svg>