<?xml version="1.0" encoding="UTF-8" standalone="no"?>
<svg
   xmlns:dc="http://purl.org/dc/elements/1.1/"
   xmlns:cc="http://creativecommons.org/ns#"
   xmlns:rdf="http://www.w3.org/1999/02/22-rdf-syntax-ns#"
   xmlns:svg="http://www.w3.org/2000/svg"
   xmlns="http://www.w3.org/2000/svg"
   xmlns:sodipodi="http://sodipodi.sourceforge.net/DTD/sodipodi-0.dtd"
   xmlns:inkscape="http://www.inkscape.org/namespaces/inkscape"
   width="536.78pt"
   height="535.47pt"
   viewBox="0 0 536.78 535.47"
   version="1.2"
   id="svg43"
   sodipodi:docname="phillips66-logo-2.svg"
   inkscape:version="0.92.2 5c3e80d, 2017-08-06">
  <metadata
     id="metadata47">
    <rdf:RDF>
      <cc:Work
         rdf:about="">
        <dc:format>image/svg+xml</dc:format>
        <dc:type
           rdf:resource="http://purl.org/dc/dcmitype/StillImage" />
        <dc:title></dc:title>
      </cc:Work>
    </rdf:RDF>
  </metadata>
  <sodipodi:namedview
     pagecolor="#ffffff"
     bordercolor="#666666"
     borderopacity="1"
     objecttolerance="10"
     gridtolerance="10"
     guidetolerance="10"
     inkscape:pageopacity="0"
     inkscape:pageshadow="2"
     inkscape:window-width="742"
     inkscape:window-height="480"
     id="namedview45"
     showgrid="false"
     inkscape:zoom="0.33055075"
     inkscape:cx="357.85335"
     inkscape:cy="356.97998"
     inkscape:window-x="0"
     inkscape:window-y="0"
     inkscape:window-maximized="0"
     inkscape:current-layer="svg43" />
  <defs
     id="defs8">
    <clipPath
       id="clip1">
      <path
         d="M 0 0 L 536.78125 0 L 536.78125 535.46875 L 0 535.46875 Z M 0 0 "
         id="path2" />
    </clipPath>
    <clipPath
       id="clip2">
      <path
         d="M 502 461 L 536.78125 461 L 536.78125 497 L 502 497 Z M 502 461 "
         id="path5" />
    </clipPath>
  </defs>
  <g
     id="surface623">
    <g
       clip-path="url(#clip1)"
       clip-rule="nonzero"
       id="g12">
      <path
         style=" stroke:none;fill-rule:nonzero;fill:rgb(100%,100%,100%);fill-opacity:1;"
         d="M 268.351562 535.46875 C 295.527344 499.4375 333.238281 492.058594 380.03125 487.613281 C 435.386719 482.355469 460.09375 476.71875 491.738281 441.503906 C 511.601562 419.449219 525.429688 383.59375 525.429688 351.101562 C 525.429688 328.417969 524.257812 309.710938 513.015625 277.210938 C 488.957031 207.585938 481.398438 181.464844 536.6875 117.609375 L 421.394531 2.382812 C 396.601562 23.042969 342.8125 59.117188 268.351562 -0.00390625 C 193.289062 59.695312 141.234375 22.496094 115.257812 2.382812 L 0 117.609375 C 54.980469 181.464844 49.871094 207.75 23.65625 277.210938 C 11.847656 308.523438 11.234375 329.238281 11.234375 351.101562 C 11.234375 383.609375 23.945312 419.335938 44.933594 441.503906 C 77.621094 476.03125 102.28125 482.320312 156.636719 487.613281 C 205.097656 492.332031 241.15625 500.015625 268.351562 535.46875 "
         id="path10" />
    </g>
    <path
       style=" stroke:none;fill-rule:nonzero;fill:rgb(13.729858%,12.159729%,12.548828%);fill-opacity:1;"
       d="M 268.351562 521.285156 C 296.125 489.980469 338.199219 482.980469 380.574219 478.726562 C 433.804688 473.402344 454.574219 467.886719 484.0625 436.179688 C 503.195312 415.605469 515.949219 383.59375 515.949219 351.101562 C 515.949219 329.273438 512.476562 302.734375 502.382812 275.4375 C 474.871094 200.953125 481.042969 170.242188 524.257812 118.222656 L 420.21875 14.1875 C 420.21875 14.1875 353.433594 76.234375 268.351562 10.671875 C 183.8125 76.234375 116.4375 14.1875 116.4375 14.1875 L 12.410156 118.222656 C 56.671875 170.242188 62.996094 201.527344 34.316406 275.4375 C 23.65625 302.800781 20.691406 329.273438 20.691406 351.101562 C 20.691406 382.980469 33.261719 416.492188 52.625 436.179688 C 83.144531 467.265625 103.011719 472.828125 156.035156 478.726562 C 198.617188 483.472656 240.585938 489.980469 268.351562 521.285156 "
       id="path14" />
    <path
       style=" stroke:none;fill-rule:nonzero;fill:rgb(100%,100%,100%);fill-opacity:1;"
       d="M 268.351562 495.878906 C 311.507812 468.09375 333.34375 468.675781 377.65625 462.195312 C 416.113281 456.523438 441.273438 453.503906 469.273438 425.566406 C 508.886719 385.925781 505.054688 329.675781 481.128906 265.996094 C 453.308594 192.101562 477.878906 148.941406 501.183594 119.394531 L 418.445312 36.648438 C 418.445312 36.648438 353.433594 88.050781 268.351562 32.511719 C 183.238281 88.050781 118.195312 36.648438 118.195312 36.648438 L 35.402344 119.394531 C 58.519531 148.941406 83.949219 191.507812 55.574219 265.996094 C 31.210938 329.90625 28.386719 385.925781 67.390625 425.566406 C 95.152344 453.710938 120.085938 456.628906 158.984375 462.195312 C 204.511719 468.675781 225.199219 468.09375 268.351562 495.878906 "
       id="path16" />
    <path
       style=" stroke:none;fill-rule:nonzero;fill:rgb(92.939758%,10.978699%,14.118958%);fill-opacity:1;"
       d="M 268.351562 469.28125 C 315.085938 443.359375 343.542969 446 395.964844 437.976562 C 485.601562 424.195312 480.117188 349.222656 474.445312 320.09375 C 473.050781 312.90625 470.441406 301.632812 468.332031 295.507812 C 461.082031 274.449219 444.679688 234.15625 447.382812 193.894531 L 89.285156 193.894531 C 92.648438 235.957031 74.679688 278.828125 67.671875 298.8125 C 66.125 303.273438 64.105469 311.351562 63.039062 316.175781 C 57.433594 341.671875 47.25 423.066406 140.664062 437.976562 C 196.628906 446.914062 221.578125 443.359375 268.351562 469.28125 "
       id="path18" />
    <path
       style=" stroke:none;fill-rule:nonzero;fill:rgb(13.729858%,12.159729%,12.548828%);fill-opacity:1;"
       d="M 148.34375 92.988281 L 162.546875 92.988281 L 162.546875 123.144531 L 177.230469 123.144531 L 177.230469 92.988281 L 192.152344 92.988281 L 192.152344 169.226562 L 177.230469 169.226562 L 177.230469 136.609375 L 162.546875 136.609375 L 162.546875 169.226562 L 148.34375 169.226562 L 148.34375 92.988281 "
       id="path20" />
    <path
       style=" stroke:none;fill-rule:nonzero;fill:rgb(13.729858%,12.159729%,12.548828%);fill-opacity:1;"
       d="M 207.613281 92.953125 L 223.023438 92.953125 L 223.023438 169.242188 L 207.613281 169.242188 L 207.613281 92.953125 "
       id="path22" />
    <path
       style=" stroke:none;fill-rule:nonzero;fill:rgb(13.729858%,12.159729%,12.548828%);fill-opacity:1;"
       d="M 421.796875 90.277344 C 443.5625 90.277344 445.175781 104.050781 444.875 114.8125 L 429.742188 114.8125 C 429.679688 97.996094 413.199219 100.550781 413.34375 110.992188 C 413.398438 116.773438 424 122.878906 432.78125 128.265625 C 440.648438 133.136719 446.082031 140.953125 446.304688 149.511719 C 446.445312 157.011719 443.054688 171.101562 421.796875 171.101562 C 400.113281 171.101562 398.34375 154.972656 398.300781 145.820312 L 412.796875 145.820312 C 412.796875 164.519531 430.351562 162.265625 430.515625 150.058594 C 430.515625 150.058594 431.570312 144.355469 421.898438 138.546875 C 411.011719 132.054688 398.714844 127.175781 399.03125 111.292969 C 399.03125 106.917969 399.964844 90.277344 421.796875 90.277344 "
       id="path24" />
    <path
       style=" stroke:none;fill-rule:nonzero;fill:rgb(13.729858%,12.159729%,12.548828%);fill-opacity:1;"
       d="M 278.183594 92.988281 L 293.558594 92.988281 L 293.558594 157.28125 L 310.230469 157.28125 L 310.230469 169.242188 L 278.183594 169.242188 L 278.183594 92.988281 "
       id="path26" />
    <path
       style=" stroke:none;fill-rule:nonzero;fill:rgb(13.729858%,12.159729%,12.548828%);fill-opacity:1;"
       d="M 238.464844 92.816406 L 253.839844 92.816406 L 253.839844 157.144531 L 270.480469 157.144531 L 270.480469 169.078125 L 238.464844 169.078125 L 238.464844 92.816406 "
       id="path28" />
    <path
       style=" stroke:none;fill-rule:evenodd;fill:rgb(13.729858%,12.159729%,12.548828%);fill-opacity:1;"
       d="M 94.972656 92.695312 L 94.972656 169.609375 L 110.398438 169.609375 L 110.398438 144.523438 C 114.683594 144.355469 139.855469 146.972656 140.441406 119.894531 C 141.246094 89.851562 115.714844 92.695312 110.398438 92.695312 Z M 110.398438 104.269531 L 110.398438 131.8125 C 112.671875 131.8125 126.289062 134.917969 126.253906 117.753906 C 126.199219 102.527344 113.515625 104.269531 110.398438 104.269531 "
       id="path30" />
    <path
       style=" stroke:none;fill-rule:evenodd;fill:rgb(13.729858%,12.159729%,12.548828%);fill-opacity:1;"
       d="M 348.324219 92.695312 L 348.324219 169.609375 L 363.742188 169.609375 L 363.742188 144.523438 C 368.011719 144.355469 393.183594 146.972656 393.804688 119.894531 C 394.570312 89.851562 369.054688 92.695312 363.742188 92.695312 Z M 363.742188 104.269531 L 363.742188 131.8125 C 366.007812 131.8125 379.597656 134.917969 379.574219 117.753906 C 379.515625 102.527344 366.863281 104.269531 363.742188 104.269531 "
       id="path32" />
    <path
       style=" stroke:none;fill-rule:nonzero;fill:rgb(13.729858%,12.159729%,12.548828%);fill-opacity:1;"
       d="M 317.765625 92.988281 L 333.1875 92.988281 L 333.1875 169.226562 L 317.765625 169.226562 L 317.765625 92.988281 "
       id="path34" />
    <path
       style=" stroke:none;fill-rule:evenodd;fill:rgb(100%,100%,100%);fill-opacity:1;"
       d="M 379.15625 288.8125 C 410.777344 300.253906 402.992188 340.691406 387.09375 366.738281 C 367.308594 399.25 324.007812 403.183594 298.445312 393.34375 C 257.710938 377.671875 270.035156 332.363281 283.402344 294.949219 C 302.601562 241.167969 339.847656 215.730469 388.589844 232.027344 C 414.660156 240.667969 418.402344 266.972656 415.789062 274.558594 L 373.535156 271.453125 C 373.535156 271.453125 376.191406 254.089844 364.066406 254.089844 C 345.472656 254.089844 333.453125 293.746094 333.453125 293.746094 C 333.453125 293.746094 351.253906 278.71875 379.15625 288.8125 Z M 320.351562 333.621094 C 325.523438 321.878906 333.519531 309.296875 343.996094 311.476562 C 358.132812 314.417969 353.273438 333.242188 348.3125 346.613281 C 343.335938 360.101562 333.34375 374.753906 321.0625 371.429688 C 309.664062 368.40625 314.402344 347.117188 320.351562 333.621094 Z M 223.367188 288.8125 C 254.980469 300.253906 247.195312 340.691406 231.355469 366.738281 C 211.546875 399.25 168.234375 403.183594 142.660156 393.34375 C 101.90625 377.671875 114.1875 332.304688 127.617188 294.949219 C 146.539062 242.351562 182.585938 215.4375 232.820312 232.027344 C 258.925781 240.570312 262.621094 266.972656 260 274.558594 L 217.75 271.453125 C 217.75 271.453125 220.425781 254.089844 208.300781 254.089844 C 189.699219 254.089844 177.679688 293.746094 177.679688 293.746094 C 177.679688 293.746094 195.464844 278.71875 223.367188 288.8125 Z M 164.894531 333.621094 C 170.117188 321.878906 177.695312 309.296875 188.207031 311.476562 C 202.390625 314.417969 197.46875 333.242188 192.539062 346.613281 C 187.539062 360.101562 177.566406 374.753906 165.300781 371.429688 C 153.851562 368.40625 158.953125 347.117188 164.894531 333.621094 "
       id="path36" />
    <g
       clip-path="url(#clip2)"
       clip-rule="nonzero"
       id="g40">
      <path
         style=" stroke:none;fill-rule:nonzero;fill:rgb(13.729858%,12.159729%,12.548828%);fill-opacity:1;"
         d="M 515.945312 477.777344 L 519.203125 477.777344 C 521.972656 477.777344 524.496094 477.636719 524.496094 474.464844 C 524.496094 471.800781 522.195312 471.382812 520.085938 471.382812 L 515.945312 471.382812 Z M 512.8125 468.851562 L 520.585938 468.851562 C 525.371094 468.851562 527.625 470.742188 527.625 474.597656 C 527.625 478.230469 525.324219 479.75 522.335938 480.070312 L 528.085938 488.945312 L 524.722656 488.945312 L 519.257812 480.304688 L 515.945312 480.304688 L 515.945312 488.945312 L 512.8125 488.945312 Z M 519.527344 493.59375 C 527.488281 493.59375 533.640625 487.25 533.640625 478.835938 C 533.640625 470.601562 527.488281 464.257812 519.527344 464.257812 C 511.480469 464.257812 505.324219 470.601562 505.324219 478.835938 C 505.324219 487.25 511.480469 493.59375 519.527344 493.59375 Z M 519.527344 461.730469 C 528.90625 461.730469 536.777344 469.136719 536.777344 478.835938 C 536.777344 488.71875 528.90625 496.121094 519.527344 496.121094 C 510.109375 496.121094 502.195312 488.71875 502.195312 478.835938 C 502.195312 469.136719 510.109375 461.730469 519.527344 461.730469 "
         id="path38" />
    </g>
  </g>
</svg>
