<?xml version="1.0" encoding="UTF-8" standalone="no"?>
<svg
   xmlns:dc="http://purl.org/dc/elements/1.1/"
   xmlns:cc="http://creativecommons.org/ns#"
   xmlns:rdf="http://www.w3.org/1999/02/22-rdf-syntax-ns#"
   xmlns:svg="http://www.w3.org/2000/svg"
   xmlns="http://www.w3.org/2000/svg"
   xmlns:sodipodi="http://sodipodi.sourceforge.net/DTD/sodipodi-0.dtd"
   xmlns:inkscape="http://www.inkscape.org/namespaces/inkscape"
   width="739.45831"
   height="333.75519"
   viewBox="0 0 554.59376 250.3164"
   version="1.2"
   id="svg93"
   sodipodi:docname="phillips66-logo.svg"
   inkscape:version="0.92.2 5c3e80d, 2017-08-06">
  <metadata
     id="metadata99">
    <rdf:RDF>
      <cc:Work
         rdf:about="">
        <dc:format>image/svg+xml</dc:format>
        <dc:type
           rdf:resource="http://purl.org/dc/dcmitype/StillImage" />
        <dc:title></dc:title>
      </cc:Work>
    </rdf:RDF>
  </metadata>
  <defs
     id="defs97" />
  <sodipodi:namedview
     pagecolor="#ffffff"
     bordercolor="#666666"
     borderopacity="1"
     objecttolerance="10"
     gridtolerance="10"
     guidetolerance="10"
     inkscape:pageopacity="0"
     inkscape:pageshadow="2"
     inkscape:window-width="1440"
     inkscape:window-height="855"
     id="namedview95"
     showgrid="false"
     inkscape:zoom="0.45505017"
     inkscape:cx="-236.39436"
     inkscape:cy="491.31082"
     inkscape:window-x="0"
     inkscape:window-y="1"
     inkscape:window-maximized="1"
     inkscape:current-layer="surface1177"
     fit-margin-left="4"
     fit-margin-top="4"
     fit-margin-right="9"
     fit-margin-bottom="4"
     units="px" />
  <g
     id="surface1177"
     transform="translate(-101.65234,-102.32813)">
    <path
       style="fill:#ffffff;fill-opacity:1;fill-rule:nonzero;stroke:none"
       d="m 227.10156,349.64453 c 12.38672,-16.42187 29.60156,-19.79297 50.95313,-21.83203 25.25781,-2.40234 36.52734,-4.96484 50.96484,-21.04688 9.05859,-10.05859 15.38281,-26.41015 15.38281,-41.24218 0,-10.34375 -0.54297,-18.88282 -5.67968,-33.71094 -10.97657,-31.76563 -14.41407,-43.6875 10.80859,-72.82422 l -52.60938,-52.57031 c -11.3164,9.42578 -35.85546,25.88672 -69.82031,-1.08984 -34.2539,27.23828 -58,10.26562 -69.85156,1.08984 l -52.59766,52.57031 c 25.08203,29.13672 22.75391,41.13672 10.79297,72.82422 -5.39062,14.28906 -5.67187,23.73828 -5.67187,33.71094 0,14.84375 5.80859,31.125 15.3789,41.24218 14.91797,15.76563 26.15625,18.63672 50.98047,21.04688 22.09766,2.15234 38.5586,5.66406 50.96875,21.83203"
       id="path2"
       inkscape:connector-curvature="0" />
    <path
       style="fill:#211e1e;fill-opacity:1;fill-rule:nonzero;stroke:none"
       d="m 227.10156,343.17187 c 12.66406,-14.28125 31.86328,-17.46093 51.20703,-19.41796 24.27344,-2.41797 33.75391,-4.94922 47.21875,-19.41407 8.72266,-9.3789 14.54688,-23.98437 14.54688,-38.8164 0,-9.94922 -1.58203,-22.0625 -6.20313,-34.52344 -12.55859,-33.98047 -9.72656,-47.99219 9.98828,-71.72656 l -47.46484,-47.46875 c 0,0 -30.47656,28.30468 -69.29297,-1.61328 -38.58594,29.91796 -69.3125,1.61328 -69.3125,1.61328 l -47.47265,47.46875 c 20.19531,23.73437 23.08593,38 9.99609,71.72656 -4.86719,12.49219 -6.21875,24.57422 -6.21875,34.52344 0,14.54297 5.72656,29.83593 14.57031,38.8164 13.92578,14.1836 22.99219,16.72657 47.1836,19.41407 19.43359,2.17578 38.57812,5.13671 51.2539,19.41796"
       id="path4"
       inkscape:connector-curvature="0" />
    <path
       style="fill:#ffffff;fill-opacity:1;fill-rule:nonzero;stroke:none"
       d="m 227.10156,331.58203 c 19.6875,-12.66797 29.65235,-12.41797 49.86719,-15.36719 17.55469,-2.58984 29.03516,-3.96875 41.80078,-16.70703 18.06641,-18.08984 16.32422,-43.76562 5.41797,-72.80859 -12.70703,-33.71875 -1.5,-53.41016 9.14062,-66.89453 l -37.74609,-37.75781 c 0,0 -29.66406,23.46484 -68.48047,-1.875 -38.83984,25.33984 -68.51172,1.875 -68.51172,1.875 l -37.78515,37.75781 c 10.55468,13.48437 22.14453,32.91406 9.21093,66.89453 -11.1289,29.16015 -12.41406,54.71875 5.39063,72.80859 12.65625,12.83985 24.04687,14.17188 41.79297,16.70703 20.77734,2.94922 30.20312,2.69922 49.90234,15.36719"
       id="path6"
       inkscape:connector-curvature="0" />
    <path
       style="fill:#eb1923;fill-opacity:1;fill-rule:nonzero;stroke:none"
       d="m 227.10156,319.44531 c 21.31641,-11.82812 34.30078,-10.61719 58.22656,-14.28125 40.89063,-6.28906 38.38672,-40.5039 35.79688,-53.78515 -0.63672,-3.28516 -1.82813,-8.42969 -2.78516,-11.22266 -3.30078,-9.61719 -10.79297,-27.99219 -9.55468,-46.36328 H 145.38281 c 1.54297,19.19531 -6.65234,38.76172 -9.85547,47.88672 -0.69531,2.02343 -1.625,5.71093 -2.11328,7.91015 -2.5625,11.63672 -7.21484,48.76172 35.4336,55.57422 25.51953,4.07031 36.91015,2.45313 58.2539,14.28125"
       id="path8"
       inkscape:connector-curvature="0" />
    <path
       style="fill:#211e1e;fill-opacity:1;fill-rule:nonzero;stroke:none"
       d="m 172.32812,147.75781 h 6.4961 v 13.75781 h 6.69531 v -13.75781 h 6.81641 v 34.78906 h -6.81641 v -14.89843 h -6.69531 v 14.89843 h -6.4961 v -34.78906"
       id="path10"
       inkscape:connector-curvature="0" />
    <path
       style="fill:#211e1e;fill-opacity:1;fill-rule:nonzero;stroke:none"
       d="m 199.37891,147.74219 h 7.03125 v 34.80468 h -7.03125 v -34.80468"
       id="path12"
       inkscape:connector-curvature="0" />
    <path
       style="fill:#211e1e;fill-opacity:1;fill-rule:nonzero;stroke:none"
       d="m 297.10937,146.51562 c 9.92969,0 10.66407,6.28907 10.53125,11.19922 h -6.91406 c -0.0156,-7.66406 -7.53906,-6.51953 -7.46484,-1.75 0.0312,2.64453 4.85547,5.42578 8.85937,7.89063 3.58985,2.21875 6.06641,5.78515 6.17578,9.6875 0.0586,3.42969 -1.49218,9.85547 -11.1875,9.85547 -9.89843,0 -10.69921,-7.35938 -10.71484,-11.53125 h 6.60938 c 0,8.52343 8.01953,7.49218 8.08984,1.92968 0,0 0.46484,-2.59765 -3.94922,-5.2539 -4.96094,-2.96875 -10.57031,-5.19141 -10.41406,-12.44141 0,-1.98828 0.41406,-9.58594 10.3789,-9.58594"
       id="path14"
       inkscape:connector-curvature="0" />
    <path
       style="fill:#211e1e;fill-opacity:1;fill-rule:nonzero;stroke:none"
       d="m 231.58594,147.75781 h 7.01172 v 29.33203 h 7.60937 v 5.45703 h -14.62109 v -34.78906"
       id="path16"
       inkscape:connector-curvature="0" />
    <path
       style="fill:#211e1e;fill-opacity:1;fill-rule:nonzero;stroke:none"
       d="m 213.46875,147.67969 h 7.00781 v 29.34375 h 7.58594 v 5.45312 h -14.59375 v -34.79687"
       id="path18"
       inkscape:connector-curvature="0" />
    <path
       style="fill:#211e1e;fill-opacity:1;fill-rule:evenodd;stroke:none"
       d="m 147.98437,147.63281 v 35.08594 h 7.04297 v -11.44531 c 1.94922,-0.0742 13.4336,1.11718 13.70313,-11.24219 0.37109,-13.71484 -11.26563,-12.39844 -13.70313,-12.39844 z m 7.04297,5.27344 v 12.57031 c 1.04297,0 7.25,1.40625 7.23047,-6.41797 -0.0234,-6.9375 -5.80469,-6.15234 -7.23047,-6.15234"
       id="path20"
       inkscape:connector-curvature="0" />
    <path
       style="fill:#211e1e;fill-opacity:1;fill-rule:evenodd;stroke:none"
       d="m 263.58594,147.63281 v 35.08594 h 7.03906 v -11.44531 c 1.94531,-0.0742 13.42969,1.11718 13.71094,-11.24219 0.34765,-13.71484 -11.29297,-12.39844 -13.71094,-12.39844 z m 7.03906,5.27344 v 12.57031 c 1.01953,0 7.23437,1.40625 7.22656,-6.41797 -0.0312,-6.9375 -5.80078,-6.15234 -7.22656,-6.15234"
       id="path22"
       inkscape:connector-curvature="0" />
    <path
       style="fill:#211e1e;fill-opacity:1;fill-rule:nonzero;stroke:none"
       d="m 249.64062,147.75781 h 7.03907 v 34.78906 h -7.03907 v -34.78906"
       id="path24"
       inkscape:connector-curvature="0" />
    <path
       style="fill:#ffffff;fill-opacity:1;fill-rule:evenodd;stroke:none"
       d="m 277.64453,237.10547 c 14.4375,5.21875 10.89063,23.67187 3.625,35.55469 -9.01953,14.83984 -28.77734,16.63671 -40.4375,12.13281 -18.59375,-7.14453 -12.97266,-27.82031 -6.87109,-44.88281 8.76172,-24.53907 25.7539,-36.15235 48,-28.71094 11.89453,3.9375 13.59765,15.94922 12.41015,19.40234 l -19.27734,-1.41406 c 0,0 1.20703,-7.92188 -4.32422,-7.92188 -8.48828,0 -13.96484,18.08985 -13.96484,18.08985 0,0 8.11718,-6.85938 20.83984,-2.25 z m -26.82422,20.45312 c 2.36719,-5.36328 6.00781,-11.10547 10.78906,-10.10937 6.44922,1.33594 4.2461,9.92969 1.97657,16.02734 -2.28907,6.16016 -6.83203,12.84375 -12.4336,11.32813 -5.20703,-1.375 -3.04297,-11.10157 -0.33203,-17.2461 z m -44.24609,-20.45312 c 14.42578,5.21875 10.87109,23.67187 3.63672,35.55469 -9.03125,14.83984 -28.79688,16.63671 -40.46485,12.13281 -18.59375,-7.14453 -12.98828,-27.83985 -6.86328,-44.88281 8.63672,-24.00782 25.07422,-36.28125 47.9961,-28.71094 11.92578,3.89453 13.60156,15.94922 12.40234,19.40234 l -19.26953,-1.41406 c 0,0 1.22265,-7.92188 -4.3125,-7.92188 -8.4961,0 -13.97656,18.08985 -13.97656,18.08985 0,0 8.1289,-6.85938 20.85156,-2.25 z m -26.67578,20.45312 c 2.37109,-5.36328 5.83593,-11.10547 10.6289,-10.10937 6.46875,1.33594 4.23047,9.92969 1.97657,16.02734 -2.28125,6.16016 -6.82813,12.84375 -12.42969,11.32813 -5.22656,-1.375 -2.89453,-11.10157 -0.17578,-17.2461"
       id="path26"
       inkscape:connector-curvature="0" />
    <path
       style="fill:#211e1e;fill-opacity:1;fill-rule:nonzero;stroke:none"
       d="m 636.92578,249.40234 h 1.16797 c 0.98828,0 1.89062,-0.0469 1.89062,-1.1875 0,-0.95312 -0.82031,-1.10156 -1.57812,-1.10156 h -1.48047 z m -1.12109,-3.1914 h 2.78125 c 1.71875,0 2.52343,0.67187 2.52343,2.05468 0,1.30079 -0.82421,1.84375 -1.89843,1.96094 l 2.0625,3.17578 h -1.20313 l -1.96484,-3.08984 h -1.17969 v 3.08984 h -1.12109 z m 2.40625,8.85937 c 2.84765,0 5.05468,-2.27734 5.05468,-5.28906 0,-2.94531 -2.20703,-5.21875 -5.05468,-5.21875 -2.88672,0 -5.09375,2.27344 -5.09375,5.21875 0,3.01172 2.20703,5.28906 5.09375,5.28906 z m 0,-11.41406 c 3.35547,0 6.17578,2.64844 6.17578,6.125 0,3.54297 -2.82031,6.19141 -6.17578,6.19141 -3.37891,0 -6.21094,-2.64844 -6.21094,-6.19141 0,-3.47656 2.83203,-6.125 6.21094,-6.125"
       id="path28"
       inkscape:connector-curvature="0" />
    <path
       style="fill:#211e1e;fill-opacity:1;fill-rule:nonzero;stroke:none"
       d="m 390.96094,198.01953 v 7.69922 H 392.75 c 1.98437,0 3.65625,-0.42578 3.65625,-3.89063 0,-3.80859 -2.41016,-3.80859 -3.65625,-3.80859 z m 1.78906,-4.20312 c 2.72266,0 5.5625,0 7.50781,1.98437 1.78906,1.86719 2.17969,4.35547 2.17969,6.14453 0,2.57031 -0.70313,5.17578 -2.72656,6.73047 -1.94141,1.51563 -5.13282,1.51563 -6.72657,1.51563 h -2.02343 v 9.57031 h -5.67969 V 193.81641 H 392.75"
       id="path30"
       inkscape:connector-curvature="0" />
    <path
       style="fill:#211e1e;fill-opacity:1;fill-rule:nonzero;stroke:none"
       d="m 410.30469,200.58594 v 4.6289 c 0.46875,-1.63281 1.39843,-4.90234 4.51172,-4.90234 0.39062,0 0.66015,0.0391 0.93359,0.11719 v 5.21093 c -0.46875,-0.0781 -0.69922,-0.0781 -0.89453,-0.0781 -3.92578,0 -3.92578,4.43359 -3.92578,5.91406 v 8.28516 h -5.32813 v -19.17578 h 4.70313"
       id="path32"
       inkscape:connector-curvature="0" />
    <path
       style="fill:#211e1e;fill-opacity:1;fill-rule:nonzero;stroke:none"
       d="m 425.67969,203.89062 c -1.71094,0 -2.25782,1.55469 -2.25782,6.26172 0,5.09766 0.69922,6.26172 2.29688,6.26172 1.55469,0 2.25391,-1.1289 2.25391,-6.26172 0,-4.9375 -0.6211,-6.26172 -2.25391,-6.26172 z m 7.8164,6.26172 c 0,6.14453 -2.21875,9.9961 -7.8164,9.9961 -5.52344,0 -7.78125,-3.8086 -7.78125,-9.9961 0,-5.98828 2.10156,-9.99609 7.82031,-9.99609 5.67578,0 7.77734,4.00781 7.77734,9.99609"
       id="path34"
       inkscape:connector-curvature="0" />
    <path
       style="fill:#211e1e;fill-opacity:1;fill-rule:nonzero;stroke:none"
       d="m 440.01562,200.58594 2.64454,11.3164 2.64453,-11.3164 h 4.47265 l -5.28906,19.17578 h -4.19922 l -5.44531,-19.17578 h 5.17187"
       id="path36"
       inkscape:connector-curvature="0" />
    <path
       style="fill:#211e1e;fill-opacity:1;fill-rule:nonzero;stroke:none"
       d="m 457.66406,200.58594 v 19.17578 h -5.32812 v -19.17578 z m -5.36719,-1.63282 v -5.29296 h 5.40625 v 5.29296 h -5.40625"
       id="path38"
       inkscape:connector-curvature="0" />
    <path
       style="fill:#211e1e;fill-opacity:1;fill-rule:nonzero;stroke:none"
       d="m 471.60156,208.63672 c 0,-1.71094 0,-4.78516 -2.33203,-4.78516 -2.0625,0 -2.33203,2.49219 -2.33203,5.5625 0,3.73438 0,6.92578 2.29297,6.92578 2.37109,0 2.37109,-2.91797 2.37109,-4.32031 z m 5.25,-14.82031 v 25.94531 h -4.9375 v -3.15235 c -0.54687,1.40235 -1.36328,3.42188 -4.39453,3.42188 -5.13281,0 -6.10547,-5.94922 -6.10547,-9.76172 0,-1.51562 0,-9.95703 6.33985,-9.95703 2.5664,0 3.34375,1.24609 3.84765,2.02344 v -8.51953 h 5.25"
       id="path40"
       inkscape:connector-curvature="0" />
    <path
       style="fill:#211e1e;fill-opacity:1;fill-rule:nonzero;stroke:none"
       d="m 486.72266,200.58594 v 19.17578 h -5.32813 v -19.17578 z m -5.36719,-1.63282 v -5.29296 h 5.40625 v 5.29296 h -5.40625"
       id="path42"
       inkscape:connector-curvature="0" />
    <path
       style="fill:#211e1e;fill-opacity:1;fill-rule:nonzero;stroke:none"
       d="m 496.25781,200.58594 v 2.60547 c 0.77735,-1.59375 1.78906,-3.03516 4.78516,-3.03516 0.73828,0 2.91797,0 4.23828,2.02344 0.77734,1.20703 0.77734,3.07422 0.77734,4.97656 v 12.60547 h -5.32812 v -12.60547 c 0,-1.71094 -0.15625,-2.83594 -1.82813,-2.83594 -2.37109,0 -2.37109,1.86719 -2.37109,4.19922 v 11.24219 h -5.32813 v -19.17578 h 5.05469"
       id="path44"
       inkscape:connector-curvature="0" />
    <path
       style="fill:#211e1e;fill-opacity:1;fill-rule:nonzero;stroke:none"
       d="m 515.70703,206.26562 c 0,1.16407 0.11719,2.95313 1.82813,2.95313 1.39843,0 1.75,-1.04688 1.75,-3.07031 0,-2.375 -0.58594,-3.11328 -1.67188,-3.11328 -1.40234,0 -1.90625,1.01171 -1.90625,3.23046 z m -2.17969,14.97266 c 0,1.35938 1.36328,1.94531 4.24219,1.94531 2.75781,0 3.92578,-0.58593 3.92578,-2.02343 0,-1.47657 -1.28125,-1.82813 -2.09765,-1.86719 -0.625,-0.0781 -3.69532,-0.26953 -4.39844,-0.35156 -0.6211,0.3125 -1.67188,0.85937 -1.67188,2.29687 z m 13.03125,-20.33984 c -0.3125,-0.082 -0.66406,-0.16016 -1.16797,-0.16016 -0.62109,0 -1.67187,0.0781 -2.02343,1.75391 1.4414,1.47656 1.4414,3.42187 1.4414,3.85156 0,3.84766 -3.26953,5.75391 -6.92187,5.75391 -1.16797,0 -1.86719,-0.19532 -2.53125,-0.35157 -1.24219,0.70313 -1.24219,1.44141 -1.24219,1.59766 0,1.05078 1.125,1.12891 3.1875,1.28125 4.35547,0.23437 5.67969,0.3125 7.03906,1.28516 1.47657,1.01171 1.98438,2.60546 1.98438,4.23828 0,5.95312 -6.26172,6.3789 -9.375,6.3789 -1.63281,0 -7.85547,0 -7.85547,-4.55078 0,-2.37109 1.90625,-3.14844 3.11328,-3.57812 -0.62109,-0.3086 -2.48828,-1.16797 -2.48828,-3.30469 0,-2.33594 2.01953,-3.5 3.30469,-4.24219 -1.16797,-0.62109 -2.83985,-1.55469 -2.83985,-4.78125 0,-4.55078 3.85157,-5.91406 7.15625,-5.91406 2.10157,0 3.1875,0.46875 4.125,0.89844 0.26953,-1.98828 0.69922,-3.81641 3.61328,-3.81641 0.73829,0 1.08985,0.11719 1.48047,0.19531 v 3.46485"
       id="path46"
       inkscape:connector-curvature="0" />
    <path
       style="fill:#211e1e;fill-opacity:1;fill-rule:nonzero;stroke:none"
       d="m 556.23047,193.81641 v 4.47265 h -10.07422 v 5.99219 h 7.82031 v 4.47266 h -7.82031 v 6.3789 h 10.07422 v 4.62891 h -15.75391 v -25.94531 h 15.75391"
       id="path48"
       inkscape:connector-curvature="0" />
    <path
       style="fill:#211e1e;fill-opacity:1;fill-rule:nonzero;stroke:none"
       d="m 564.64453,200.58594 v 2.60547 c 0.77734,-1.59375 1.78906,-3.03516 4.78516,-3.03516 0.73828,0 2.91797,0 4.23828,2.02344 0.77734,1.20703 0.77734,3.07422 0.77734,4.97656 v 12.60547 h -5.32812 v -12.60547 c 0,-1.71094 -0.15625,-2.83594 -1.82813,-2.83594 -2.37109,0 -2.37109,1.86719 -2.37109,4.19922 v 11.24219 h -5.32813 v -19.17578 h 5.05469"
       id="path50"
       inkscape:connector-curvature="0" />
    <path
       style="fill:#211e1e;fill-opacity:1;fill-rule:nonzero;stroke:none"
       d="m 588.54687,207.97656 c 0.0391,-1.05078 0.11719,-4.28125 -2.48828,-4.28125 -2.41015,0 -2.44922,2.91797 -2.48828,4.28125 z m -5.01562,3.07031 c -0.0391,2.60547 -0.0781,5.40625 2.56641,5.40625 2.29687,0 2.5664,-2.05859 2.72265,-3.30468 l 4.78125,0.3125 c -0.38672,1.78906 -1.4375,6.6875 -7.62109,6.6875 -5.8711,0 -7.97266,-4.62891 -7.97266,-9.72266 0,-1.24609 0.15625,-4.27734 1.4375,-6.60937 1.36328,-2.45313 3.89063,-3.66016 6.4961,-3.66016 3.34375,0 5.40625,1.86719 6.26171,3.5 1.35938,2.60937 1.39844,5.05859 1.39844,7.39062 h -10.07031"
       id="path52"
       inkscape:connector-curvature="0" />
    <path
       style="fill:#211e1e;fill-opacity:1;fill-rule:nonzero;stroke:none"
       d="m 602.03906,200.58594 v 4.6289 c 0.46875,-1.63281 1.40235,-4.90234 4.51563,-4.90234 0.38672,0 0.66015,0.0391 0.92968,0.11719 v 5.21093 c -0.46484,-0.0781 -0.69921,-0.0781 -0.89062,-0.0781 -3.92969,0 -3.92969,4.43359 -3.92969,5.91406 v 8.28516 h -5.32812 v -19.17578 h 4.70312"
       id="path54"
       inkscape:connector-curvature="0" />
    <path
       style="fill:#211e1e;fill-opacity:1;fill-rule:nonzero;stroke:none"
       d="m 615.71484,206.26562 c 0,1.16407 0.11719,2.95313 1.82813,2.95313 1.39844,0 1.75,-1.04688 1.75,-3.07031 0,-2.375 -0.58203,-3.11328 -1.67188,-3.11328 -1.39843,0 -1.90625,1.01171 -1.90625,3.23046 z m -2.17968,14.97266 c 0,1.35938 1.36328,1.94531 4.24218,1.94531 2.76172,0 3.92578,-0.58593 3.92578,-2.02343 0,-1.47657 -1.28125,-1.82813 -2.09765,-1.86719 -0.625,-0.0781 -3.69531,-0.26953 -4.39453,-0.35156 -0.6211,0.3125 -1.67578,0.85937 -1.67578,2.29687 z m 13.03125,-20.33984 c -0.3125,-0.082 -0.66016,-0.16016 -1.16797,-0.16016 -0.6211,0 -1.67188,0.0781 -2.01953,1.75391 1.4375,1.47656 1.4375,3.42187 1.4375,3.85156 0,3.84766 -3.26563,5.75391 -6.92188,5.75391 -1.16797,0 -1.86719,-0.19532 -2.53125,-0.35157 -1.24219,0.70313 -1.24219,1.44141 -1.24219,1.59766 0,1.05078 1.125,1.12891 3.1875,1.28125 4.35547,0.23437 5.67969,0.3125 7.04297,1.28516 1.47656,1.01171 1.98047,2.60546 1.98047,4.23828 0,5.95312 -6.26172,6.3789 -9.37109,6.3789 -1.63672,0 -7.85938,0 -7.85938,-4.55078 0,-2.37109 1.90625,-3.14844 3.11328,-3.57812 -0.62109,-0.3086 -2.48828,-1.16797 -2.48828,-3.30469 0,-2.33594 2.01953,-3.5 3.30469,-4.24219 -1.16797,-0.62109 -2.83984,-1.55469 -2.83984,-4.78125 0,-4.55078 3.85156,-5.91406 7.15625,-5.91406 2.10156,0 3.1914,0.46875 4.125,0.89844 0.26953,-1.98828 0.69921,-3.81641 3.61718,-3.81641 0.73828,0 1.08985,0.11719 1.47657,0.19531 v 3.46485"
       id="path56"
       inkscape:connector-curvature="0" />
    <path
       style="fill:#211e1e;fill-opacity:1;fill-rule:nonzero;stroke:none"
       d="M 633.39453,200.58594 636,212.33203 l 2.48828,-11.74609 h 4.58984 l -5.75781,19.52343 c -1.08594,3.61719 -1.9414,6.45704 -6.17969,6.45704 -1.05078,0 -1.63671,-0.15625 -2.29687,-0.3125 v -4.19922 c 0.50781,0.0781 0.89453,0.11718 1.51562,0.11718 2.10157,0 2.53125,-0.46875 3.19141,-2.76171 l -5.48437,-18.82422 h 5.32812"
       id="path58"
       inkscape:connector-curvature="0" />
    <path
       style="fill:#211e1e;fill-opacity:1;fill-rule:nonzero;stroke:none"
       d="m 649.49609,214.00391 v 5.75781 h -5.28515 v -5.75781 h 5.28515"
       id="path60"
       inkscape:connector-curvature="0" />
    <path
       style="fill:#211e1e;fill-opacity:1;fill-rule:nonzero;stroke:none"
       d="m 390.89062,243.70312 v 25.94141 h -5.67968 v -25.94141 h 5.67968"
       id="path62"
       inkscape:connector-curvature="0" />
    <path
       style="fill:#211e1e;fill-opacity:1;fill-rule:nonzero;stroke:none"
       d="m 395.85937,250.47266 h 5.05469 v 2.60546 c 0.54688,-1.08984 1.51953,-3.03515 4.66797,-3.03515 3.26953,0 3.8125,1.90625 4.12109,3.03515 0.58594,-1.28515 1.59766,-3.03515 4.70704,-3.03515 4.90234,0 4.90234,3.57812 4.90234,7.03906 v 12.5625 h -5.32813 v -12.01562 c 0,-2.17969 0,-3.42579 -1.71093,-3.42579 -1.94532,0 -2.02344,1.51954 -2.02344,4.28125 v 11.16016 h -5.32813 v -12.13281 c 0,-2.33203 -0.0781,-3.26953 -1.67578,-3.26953 -1.90234,0 -2.05859,1.55859 -2.05859,4.24218 v 11.16016 h -5.32813 v -19.17187"
       id="path64"
       inkscape:connector-curvature="0" />
    <path
       style="fill:#211e1e;fill-opacity:1;fill-rule:nonzero;stroke:none"
       d="m 428.98047,261.82812 c 0,2.76172 0,4.39454 2.25781,4.39454 2.17578,0 2.37109,-2.3711 2.37109,-6.41797 0,-3.38282 -0.15625,-6.06641 -2.21484,-6.06641 -2.41406,0 -2.41406,2.72266 -2.41406,4.43359 z m -0.3086,-11.35546 v 2.8789 c 0.66016,-1.24609 1.71094,-3.15234 4.31641,-3.15234 1.28516,0 2.72266,0.54297 3.65625,1.48047 1.86719,1.90234 2.48828,4.89843 2.48828,8.125 0,2.72265 -0.38672,10.11328 -6.49609,10.11328 -2.09766,0 -3.07031,-1.05078 -3.65625,-1.67188 v 7.89453 h -5.25 v -25.66796 h 4.9414"
       id="path66"
       inkscape:connector-curvature="0" />
    <path
       style="fill:#211e1e;fill-opacity:1;fill-rule:nonzero;stroke:none"
       d="m 447.64453,250.47266 v 4.6289 c 0.46875,-1.63281 1.40234,-4.90234 4.51172,-4.90234 0.39062,0 0.66016,0.0391 0.93359,0.11719 v 5.21093 c -0.46875,-0.0781 -0.69922,-0.0781 -0.89453,-0.0781 -3.92578,0 -3.92578,4.43359 -3.92578,5.91015 v 8.28516 h -5.33203 v -19.17187 h 4.70703"
       id="path68"
       inkscape:connector-curvature="0" />
    <path
       style="fill:#211e1e;fill-opacity:1;fill-rule:nonzero;stroke:none"
       d="m 463.01953,253.77734 c -1.71094,0 -2.25781,1.55469 -2.25781,6.26172 0,5.09766 0.70312,6.26172 2.29687,6.26172 1.55469,0 2.25391,-1.125 2.25391,-6.26172 0,-4.9375 -0.62109,-6.26172 -2.25391,-6.26172 z m 7.81641,6.26172 c 0,6.14453 -2.21875,9.9961 -7.81641,9.9961 -5.52344,0 -7.78125,-3.8125 -7.78125,-9.9961 0,-5.98828 2.10156,-9.99609 7.82031,-9.99609 5.67578,0 7.77735,4.00781 7.77735,9.99609"
       id="path70"
       inkscape:connector-curvature="0" />
    <path
       style="fill:#211e1e;fill-opacity:1;fill-rule:nonzero;stroke:none"
       d="m 477.35547,250.47266 2.64844,11.3164 2.64062,-11.3164 h 4.47656 l -5.29297,19.17187 h -4.19921 l -5.44141,-19.17187 h 5.16797"
       id="path72"
       inkscape:connector-curvature="0" />
    <path
       style="fill:#211e1e;fill-opacity:1;fill-rule:nonzero;stroke:none"
       d="m 495.00391,250.47266 v 19.17187 h -5.32422 v -19.17187 z m -5.36329,-1.63282 v -5.29297 h 5.40625 v 5.29297 h -5.40625"
       id="path74"
       inkscape:connector-curvature="0" />
    <path
       style="fill:#211e1e;fill-opacity:1;fill-rule:nonzero;stroke:none"
       d="m 504.53906,250.47266 v 2.60546 c 0.78125,-1.59375 1.78906,-3.03515 4.78516,-3.03515 0.73828,0 2.91797,0 4.23828,2.02344 0.77734,1.20703 0.77734,3.07421 0.77734,4.97656 v 12.60156 h -5.32422 v -12.60156 c 0,-1.71094 -0.15625,-2.83985 -1.82812,-2.83985 -2.375,0 -2.375,1.86719 -2.375,4.20313 v 11.23828 h -5.32813 v -19.17187 h 5.05469"
       id="path76"
       inkscape:connector-curvature="0" />
    <path
       style="fill:#211e1e;fill-opacity:1;fill-rule:nonzero;stroke:none"
       d="m 523.98828,256.14844 c 0,1.16797 0.11719,2.95703 1.82813,2.95703 1.40234,0 1.75,-1.05078 1.75,-3.07422 0,-2.37109 -0.58204,-3.10938 -1.67188,-3.10938 -1.39844,0 -1.90625,1.01172 -1.90625,3.22657 z m -2.17969,14.97656 c 0,1.35937 1.36328,1.94141 4.24219,1.94141 2.76172,0 3.92578,-0.58204 3.92578,-2.01954 0,-1.48046 -1.28125,-1.82812 -2.09765,-1.86718 -0.6211,-0.0781 -3.69532,-0.27344 -4.39454,-0.35157 -0.625,0.3125 -1.67578,0.85547 -1.67578,2.29688 z m 13.03125,-20.34375 c -0.30859,-0.0781 -0.66015,-0.15625 -1.16406,-0.15625 -0.625,0 -1.67578,0.0781 -2.02344,1.75391 1.4375,1.47656 1.4375,3.42187 1.4375,3.85156 0,3.84765 -3.26562,5.7539 -6.92187,5.7539 -1.16797,0 -1.86719,-0.19531 -2.52735,-0.34765 -1.24609,0.69922 -1.24609,1.43359 -1.24609,1.58984 0,1.05078 1.12891,1.12891 3.19141,1.28516 4.35547,0.23437 5.67578,0.3125 7.03515,1.28515 1.48047,1.01172 1.98438,2.60547 1.98438,4.23829 0,5.94921 -6.26172,6.3789 -9.3711,6.3789 -1.63281,0 -7.85546,0 -7.85546,-4.55078 0,-2.375 1.90234,-3.14844 3.10937,-3.57812 C 519.86719,267.97266 518,267.11719 518,264.98047 c 0,-2.33594 2.01953,-3.5 3.30469,-4.24219 -1.16407,-0.62109 -2.83985,-1.55469 -2.83985,-4.78516 0,-4.55078 3.85157,-5.91015 7.15625,-5.91015 2.10157,0 3.19141,0.46875 4.1211,0.89453 0.27734,-1.98438 0.70312,-3.80859 3.62109,-3.80859 0.73828,0 1.08984,0.11328 1.47656,0.1914 v 3.46094"
       id="path78"
       inkscape:connector-curvature="0" />
    <path
       style="fill:#211e1e;fill-opacity:1;fill-rule:nonzero;stroke:none"
       d="m 554.4375,243.70312 v 21.08204 h 8.36719 v 4.85937 h -14.04297 v -25.94141 h 5.67578"
       id="path80"
       inkscape:connector-curvature="0" />
    <path
       style="fill:#211e1e;fill-opacity:1;fill-rule:nonzero;stroke:none"
       d="m 571.20312,250.47266 v 19.17187 h -5.32421 v -19.17187 z m -5.36328,-1.63282 v -5.29297 h 5.40235 v 5.29297 h -5.40235"
       id="path82"
       inkscape:connector-curvature="0" />
    <path
       style="fill:#211e1e;fill-opacity:1;fill-rule:nonzero;stroke:none"
       d="m 578.98828,250.47266 2.64844,11.3164 2.64453,-11.3164 h 4.47266 l -5.28907,19.17187 h -4.20312 l -5.44531,-19.17187 h 5.17187"
       id="path84"
       inkscape:connector-curvature="0" />
    <path
       style="fill:#211e1e;fill-opacity:1;fill-rule:nonzero;stroke:none"
       d="m 600.48437,257.85937 c 0.0391,-1.04687 0.11719,-4.27734 -2.48828,-4.27734 -2.41015,0 -2.44922,2.91797 -2.48828,4.27734 z m -5.01562,3.07422 c -0.0391,2.60547 -0.0781,5.40625 2.56641,5.40625 2.29296,0 2.5664,-2.0625 2.72265,-3.30468 l 4.78516,0.30859 c -0.39063,1.79297 -1.44141,6.69141 -7.625,6.69141 -5.8711,0 -7.97266,-4.62891 -7.97266,-9.72266 0,-1.24609 0.15625,-4.28125 1.4375,-6.61328 1.36328,-2.44922 3.89063,-3.65625 6.4961,-3.65625 3.34765,0 5.40625,1.86719 6.26562,3.5 1.35938,2.60547 1.39844,5.05859 1.39844,7.39062 h -10.07422"
       id="path86"
       inkscape:connector-curvature="0" />
    <path
       style="fill:#211e1e;fill-opacity:1;fill-rule:nonzero;stroke:none"
       d="m 618.35547,256.19141 c -0.3125,-0.97266 -0.85938,-2.60938 -2.80078,-2.60938 -1.2461,0 -1.67188,0.89453 -1.67188,1.67188 0,1.51953 1.05078,1.86718 3.1875,2.64453 2.6836,0.93359 5.67969,1.98437 5.67969,5.875 0,2.83984 -1.98438,6.26172 -7.27344,6.26172 -6.30078,0 -6.96094,-4.27735 -7.19531,-5.71875 l 4.23828,-0.69922 c 0.15625,0.73828 0.62109,2.8789 3.03516,2.8789 0.54297,0 2.13672,-0.11718 2.13672,-1.78906 0,-1.51562 -1.16407,-1.90625 -3.07032,-2.52734 -2.02343,-0.625 -5.75781,-1.90625 -5.75781,-6.03125 0,-4.1211 3.38672,-6.10547 6.80859,-6.10547 3.22657,0 5.79688,1.86719 6.4961,5.01953 l -3.8125,1.12891"
       id="path88"
       inkscape:connector-curvature="0" />
    <path
       style="fill:#211e1e;fill-opacity:1;fill-rule:nonzero;stroke:none"
       d="m 631.97656,263.89062 v 5.75391 h -5.28906 v -5.75391 h 5.28906"
       id="path90"
       inkscape:connector-curvature="0" />
  </g>
</svg>
