<?xml version="1.0" encoding="utf-8"?>
<!-- Generator: Adobe Illustrator 21.0.2, SVG Export Plug-In . SVG Version: 6.00 Build 0)  -->
<svg version="1.1" id="Layer_2" xmlns="http://www.w3.org/2000/svg" xmlns:xlink="http://www.w3.org/1999/xlink" x="0px" y="0px"
	 viewBox="0 0 94 21" style="enable-background:new 0 0 94 21;" xml:space="preserve">
<style type="text/css">
	.st0{fill:#FFFFFF;}
</style>
<g>
	<path class="st0" d="M16.6,0.3c-0.7,0-1.3,0-1.3,0s-0.6,0-1.3,0H1.1c-0.7,0-1.3,0.6-1.3,1.3v2.6c0,0.7,0,1.3,0,1.4c0,0,0,0.6,0,1.4
		v12.4c0,0.7,0.6,1.3,1.3,1.3h2.7c0.7,0,1.3-0.6,1.3-1.3V7c0-0.7,0.6-1.3,1.3-1.3h7.1c0.7,0,1.3,0.6,1.3,1.3V14
		c0,0.7-0.6,1.3-1.3,1.3H9.5c-0.7,0-1.3,0.6-1.3,1.3v2.7c0,0.7,0.6,1.3,1.3,1.3h4.1c0.7,0,1.3,0,1.3,0s0.6,0,1.3,0h2.7
		c0.7,0,1.3-0.6,1.3-1.3V1.6c0-0.7-0.6-1.3-1.3-1.3H16.6z"/>
	<g>
		<path class="st0" d="M24.8,9h1.8v1.1h0c0.5-0.6,1.6-1.3,3.4-1.3c2.9,0,4.3,1.9,4.3,4.1c0,2.2-1.3,4.3-4.3,4.3
			c-1.8,0-2.8-0.6-3.3-1.3h0v4.4h-1.8V9z M29.6,10c-2,0-3,1.5-3,3c0,1.3,0.9,3,2.9,3c2,0,2.8-1.8,2.8-3C32.4,11.5,31.6,10,29.6,10z"
			/>
		<path class="st0" d="M36.6,9.6c0.9-0.4,2-0.8,3.3-0.8c2.9,0,4,1.1,4,3.3v3.3c0,0.9,0,1.3,0.1,1.6h-1.7v-1h0
			c-0.4,0.5-1.4,1.2-3.1,1.2c-2.2,0-3.7-0.8-3.7-2.5c0-2,2.7-2.6,4.7-2.6c0.7,0,1.2,0,2,0c0-1.4-0.6-2.1-2.5-2.1
			c-1,0-2.2,0.3-2.9,0.8L36.6,9.6z M42.1,13.2c-0.4,0-0.8,0-1.2,0c-1,0-3.5,0.1-3.5,1.5c0,0.8,1,1.3,1.9,1.3c1.8,0,2.8-0.9,2.8-2.1
			V13.2z"/>
		<path class="st0" d="M45.7,19.2c0.2,0.1,0.6,0.1,0.9,0.1c1.6,0,2.2-1.8,2.2-2c0-0.2-0.2-0.6-0.4-0.8L45,9h2l2.7,6.6h0L52.5,9h1.9
			l-3.7,8.2c-0.7,1.5-1.4,3.3-3.8,3.3c-0.6,0-0.9-0.1-1.3-0.1L45.7,19.2z"/>
		<path class="st0" d="M61.9,10.3c-0.7-0.2-1.4-0.3-2-0.3c-2.1,0-3.2,1.5-3.2,3c0,1.4,1,3,3.3,3c0.6,0,1.4-0.2,2-0.5l0.1,1.3
			c-0.8,0.3-1.7,0.3-2.3,0.3c-3,0-5.1-1.9-5.1-4.2c0-2.4,2-4.2,5.1-4.2c0.7,0,1.7,0.1,2.2,0.3L61.9,10.3z"/>
		<path class="st0" d="M68.1,8.8c3,0,5.1,1.8,5.1,4.2c0,2.3-2.1,4.2-5.1,4.2c-3,0-5.1-1.9-5.1-4.2C63,10.6,65,8.8,68.1,8.8z
			 M68.1,16c2.2,0,3.1-1.6,3.1-3c0-1.5-1.2-3-3.1-3c-2,0-3.1,1.5-3.1,3C64.9,14.4,65.9,16,68.1,16z"/>
		<path class="st0" d="M75,9h1.7v1.2h0c0.7-0.9,1.7-1.4,3.2-1.4c1.2,0,2.3,0.5,2.8,1.6c0.7-1.1,2.2-1.6,3.1-1.6
			c2.6,0,3.5,1.3,3.5,3.1V17h-1.8v-4.8c0-1-0.3-2.2-1.8-2.2c-1.9,0-2.6,1.5-2.6,3v4h-1.8v-4.8c0-1-0.3-2.2-1.8-2.2
			c-1.9,0-2.6,1.5-2.6,3v4H75V9z"/>
		<path class="st0" d="M90.4,10.4C90.4,9.6,91,9,91.8,9c0.7,0,1.4,0.6,1.4,1.4c0,0.7-0.6,1.4-1.4,1.4C91,11.7,90.4,11.1,90.4,10.4z
			 M92.8,10.4c0-0.6-0.5-1.1-1-1.1c-0.6,0-1,0.5-1,1.1c0,0.6,0.5,1.1,1,1.1C92.3,11.5,92.8,11,92.8,10.4z M91.2,9.6h0.6
			c0.4,0,0.6,0.1,0.6,0.5c0,0.3-0.2,0.4-0.4,0.4l0.4,0.7h-0.3l-0.4-0.7h-0.2v0.7h-0.3V9.6z M91.5,10.3h0.3c0.2,0,0.3,0,0.3-0.2
			c0-0.2-0.2-0.2-0.3-0.2h-0.3V10.3z"/>
	</g>
</g>
</svg>
