<?xml version="1.0" standalone="no"?>
<!DOCTYPE svg PUBLIC "-//W3C//DTD SVG 1.1//EN" "http://www.w3.org/Graphics/SVG/1.1/DTD/svg11.dtd">
<svg version="1.1" viewBox="0 0 26 6" xmlns="http://www.w3.org/2000/svg">
    <g fill="#000000">
        <path
        d="
        M 1 1 v -1 h 2 v 1 h 1 
        v 1 h -1 v 3 h 1 v 1 h -3
        v -4 h -1 v -1 h 1 v -1
        Z"/>
        <path
        d="
        M 5 1 h 2 v 4 h 1 v -4
        h 1 v 5 h -4 v -5
        Z"/>
        <path
        d="
        M 10 1 h 4 v 5 h -1 v -2 h -1 v 2
        h -2 v -5 m 2 1 v 1 h 1 v -1 h -1
        Z"/>
        <path
        d="
        M 15 1 h 4 v 2 h -1 v -1 h -1 v 3
        h 1 v -1 h 1 v 2 h -4 v -5 
        Z"/>
        <path
        d="
        M 20 1 h 6 v 5 h -1 v -4 h -1 v 4
        h -1 v -4 h -1 v 4 h -2 v -5 
        Z"/>
    </g>
</svg>