<?xml version="1.0" encoding="UTF-8" standalone="no"?>
<!-- Created with Inkscape (http://www.inkscape.org/) -->

<svg
   xmlns:osb="http://www.openswatchbook.org/uri/2009/osb"
   xmlns:dc="http://purl.org/dc/elements/1.1/"
   xmlns:cc="http://creativecommons.org/ns#"
   xmlns:rdf="http://www.w3.org/1999/02/22-rdf-syntax-ns#"
   xmlns:svg="http://www.w3.org/2000/svg"
   xmlns="http://www.w3.org/2000/svg"
   xmlns:sodipodi="http://sodipodi.sourceforge.net/DTD/sodipodi-0.dtd"
   xmlns:inkscape="http://www.inkscape.org/namespaces/inkscape"
   width="800"
   height="1100"
   viewBox="0 0 800 1100"
   version="1.1"
   id="svg8"
   inkscape:export-filename="/Users/nikitazdvijkov/Documents/sample-art-phillips66-conocophillips-paycom-logos.png"
   inkscape:export-xdpi="103.6"
   inkscape:export-ydpi="103.6"
   inkscape:version="0.92.2 5c3e80d, 2017-08-06"
   sodipodi:docname="tuacm-tshirt-back.svg">
  <defs
     id="defs2">
    <linearGradient
       id="linearGradient870"
       osb:paint="solid">
      <stop
         style="stop-color:#ffffff;stop-opacity:1;"
         offset="0"
         id="stop868" />
    </linearGradient>
    <clipPath
       id="clip1">
      <path
         id="path1026"
         d="M 0 0 L 536.78125 0 L 536.78125 535.46875 L 0 535.46875 Z M 0 0 " />
    </clipPath>
    <clipPath
       id="clip2">
      <path
         id="path1029"
         d="M 502 461 L 536.78125 461 L 536.78125 497 L 502 497 Z M 502 461 " />
    </clipPath>
  </defs>
  <sodipodi:namedview
     id="base"
     pagecolor="#ffffff"
     bordercolor="#666666"
     borderopacity="1.0"
     inkscape:pageopacity="0.0"
     inkscape:pageshadow="2"
     inkscape:zoom="0.5"
     inkscape:cx="342.28493"
     inkscape:cy="639.59575"
     inkscape:document-units="px"
     inkscape:current-layer="layer1"
     showgrid="false"
     units="px"
     inkscape:window-width="2560"
     inkscape:window-height="1418"
     inkscape:window-x="1508"
     inkscape:window-y="95"
     inkscape:window-maximized="0" />
  <metadata
     id="metadata5">
    <rdf:RDF>
      <cc:Work
         rdf:about="">
        <dc:format>image/svg+xml</dc:format>
        <dc:type
           rdf:resource="http://purl.org/dc/dcmitype/StillImage" />
        <dc:title></dc:title>
      </cc:Work>
    </rdf:RDF>
  </metadata>
  <g
     inkscape:label="Layer 1"
     inkscape:groupmode="layer"
     id="layer1"
     transform="translate(0,-5.9583165)">
    <path
       style="fill:#000000;fill-opacity:1;stroke:none;stroke-width:0.79202598px;stroke-linecap:butt;stroke-linejoin:miter;stroke-opacity:1"
       d="m 399.98633,738.41438 c -26.63127,21.18053 -45.09828,7.98165 -54.31445,0.8457 l -40.89258,40.88086 c 19.50641,22.65515 17.69329,31.98109 8.39258,56.625 -4.18958,11.1093 -4.40626,18.45801 -4.40626,26.21484 0,11.53338 4.50869,24.20929 11.95508,32.07422 11.59713,12.24988 20.3462,14.48145 39.63086,16.35938 17.19336,1.67415 29.9862,4.40017 39.63477,16.97851 9.64164,-12.78345 23.02143,-15.40138 39.62305,-16.97851 19.63945,-1.86545 28.40571,-3.86558 39.63281,-16.35938 7.04725,-7.82474 11.95312,-20.54638 11.95312,-32.07422 0,-8.04786 -0.4157,-14.68423 -4.40429,-26.21484 -8.5357,-24.70211 -11.21746,-33.96985 8.39843,-56.625 l -40.90429,-40.88086 c -8.79625,7.32997 -27.88099,20.12975 -54.29883,-0.8457 z m 0,3.7871 c 30.18608,23.26079 53.88086,1.2461 53.88086,1.2461 l 36.91211,36.91211 c -15.33211,18.4559 -17.52255,29.35118 -7.76172,55.77734 3.58114,9.6846 4.81445,19.0994 4.81445,26.84375 0,11.52784 -4.52636,22.88606 -11.31445,30.18555 -10.46209,11.24927 -17.82932,13.20673 -36.71485,15.0957 -15.03414,1.50924 -29.96272,3.99308 -39.8164,15.09961 -9.85091,-11.10653 -24.74007,-13.41575 -39.84766,-15.09961 -18.81208,-2.09269 -25.86149,-4.06679 -36.68945,-15.0957 -6.86986,-6.98489 -11.33008,-18.87529 -11.33008,-30.18555 0,-7.74435 1.05189,-17.13559 4.83398,-26.84375 10.17524,-26.22243 7.93205,-37.32144 -7.77148,-55.77734 l 36.9082,-36.91211 c 0,0 23.90305,22.01469 53.89649,-1.2461 z m 0,7.74805 c -30.19717,19.70459 -53.27344,1.46875 -53.27344,1.46875 l -29.37305,29.35742 c 8.2017,10.48288 17.22336,25.58418 7.15625,52.01172 -8.6438,22.67456 -9.64671,42.54926 4.19141,56.61328 9.84952,9.98534 18.69735,11.02121 32.49805,12.9961 16.15255,2.29919 23.49085,2.09138 38.80078,11.94922 15.31132,-9.85784 23.05971,-9.65003 38.78125,-11.94922 13.64409,-2.01231 22.56984,-3.08421 32.5039,-12.9961 14.05432,-14.06402 12.69561,-34.02049 4.20704,-56.61328 -9.87032,-26.21689 -1.15299,-41.52884 7.11523,-52.01172 l -29.35547,-29.35742 c 0,0 -23.06587,18.23584 -53.25195,-1.46875 z m 54.4414,20.49414 c 7.72219,0 8.29422,4.88695 8.1875,8.70508 h -5.36914 c -0.0222,-5.96626 -5.86963,-5.05996 -5.81836,-1.35547 0.0194,2.05112 3.78101,4.21777 6.89649,6.12891 2.79118,1.72821 4.71983,4.50062 4.79883,7.53711 0.0499,2.66091 -1.1533,7.66015 -8.69532,7.66015 -7.69307,0 -8.32069,-5.7216 -8.33593,-8.96875 h 5.14258 c -10e-6,6.63426 6.2289,5.83482 6.2871,1.50391 0,0 0.37287,-2.02315 -3.05859,-4.08399 -3.86248,-2.30331 -8.22554,-4.03489 -8.11328,-9.66992 0,-1.55219 0.33238,-7.45703 8.07812,-7.45703 z m -109.46875,0.83594 c 2.9935,-0.0474 9.89629,0.34535 9.64649,9.67187 -0.20789,9.607 -9.13788,8.67869 -10.6582,8.73829 v 8.90039 h -5.47266 v -27.28711 h 5.47266 c 0.23577,0 0.58407,-0.0167 1.01171,-0.0234 z m 89.88282,0 c 2.99169,-0.0474 9.89197,0.34535 9.65429,9.67187 -0.22036,9.607 -9.15123,8.67869 -10.66601,8.73829 v 8.90039 h -5.4707 v -27.28711 h 5.4707 c 0.2356,0 0.58433,-0.0167 1.01172,-0.0234 z m -45.45899,0.0664 h 5.45508 v 22.82226 h 5.9043 v 4.23438 h -11.35938 z m -10.94531,0.0469 h 5.4668 v 27.06641 h -5.4668 z m -21.02734,0.0137 h 5.03906 v 10.69922 h 5.20898 v -10.69922 h 5.29492 v 27.04883 h -5.29492 v -11.57227 h -5.20898 v 11.57227 h -5.03906 v -24.43359 z m 46.06445,0 h 5.45508 v 22.81055 h 5.91601 v 4.24219 h -11.37109 z m 14.04297,0 h 5.47265 v 27.04883 h -5.47265 z m -72.22852,3.99024 c -0.5777,-0.0265 -1.06531,0.0117 -1.34179,0.0117 v 9.77148 c 0.80658,0 5.63747,1.10132 5.625,-4.98828 -0.0146,-4.05165 -2.55011,-4.71554 -4.28321,-4.79492 z m 89.88282,0 c -0.57689,-0.0265 -1.06497,0.0117 -1.3418,0.0117 v 9.77148 c 0.80381,0 5.6255,1.10132 5.61719,-4.98828 -0.0156,-4.05165 -2.54478,-4.71554 -4.27539,-4.79492 z m -98.71485,31.81054 h 127.04883 c -0.95904,14.28438 4.85943,28.57947 7.43164,36.05078 0.74838,2.17312 1.67321,6.17262 2.16797,8.72266 2.01231,10.33459 3.95828,36.93285 -27.84375,41.82227 -18.59865,2.84662 -28.6946,1.91065 -45.27539,11.10742 -16.59466,-9.19677 -25.44513,-7.93651 -45.30078,-11.10742 -33.14219,-5.28994 -29.52977,-34.16719 -27.54102,-43.21289 0.37835,-1.71158 1.09572,-4.57747 1.64453,-6.16016 2.48629,-7.09022 8.86122,-22.29939 7.66797,-37.22266 z m 41.43555,11.80274 c -12.91739,-0.26012 -22.38142,8.88675 -27.83594,24.04883 -4.76469,13.25327 -9.12306,29.34996 5.33594,34.91015 9.07342,3.49106 24.4409,2.09532 31.46875,-9.43945 5.61978,-9.24112 8.38203,-23.58718 -2.83399,-27.64649 -9.89941,-3.58113 -16.20898,1.75 -16.20898,1.75 0,2e-5 4.26367,-14.07031 10.86328,-14.07031 4.3018,0 3.35156,6.16016 3.35156,6.16016 l 14.99024,1.10156 c 0.92993,-2.6914 -0.38067,-12.0589 -9.64258,-15.08984 -3.34173,-1.1036 -6.50735,-1.66458 -9.48828,-1.72461 z m 54.28515,0 c -12.16175,0.24176 -21.49004,9.03003 -26.85156,24.04883 -4.74251,13.27405 -9.11417,29.34996 5.33789,34.91015 9.06927,3.49106 24.43164,2.09532 31.45117,-9.43945 5.64058,-9.24112 8.40238,-23.58718 -2.8164,-27.64649 -9.89942,-3.58113 -16.21485,1.75 -16.21485,1.75 0,2e-5 4.26449,-14.07031 10.86133,-14.07031 4.30181,0 3.35938,6.16016 3.35938,6.16016 l 14.99023,1.10156 c 0.92716,-2.6914 -0.399,-12.02425 -9.64844,-15.08984 -3.24246,-1.08412 -6.34284,-1.64638 -9.2832,-1.72071 -0.39817,-0.0101 -0.79323,-0.0117 -1.18555,-0.004 z m -61.3125,29.82812 c 0.22501,0.009 0.45441,0.0356 0.6875,0.084 5.03217,1.04357 3.28611,7.72289 1.53711,12.46679 -1.77394,4.78548 -5.31236,9.98409 -9.66406,8.80469 -4.06204,-1.07268 -2.25247,-8.62581 -0.14453,-13.41406 1.73713,-3.90561 4.20886,-8.07293 7.58398,-7.94141 z m 55.27344,0 c 0.22541,0.009 0.45324,0.0356 0.68555,0.084 5.01554,1.04357 3.29133,7.72289 1.53125,12.46679 -1.76562,4.78548 -5.31073,9.98409 -9.66797,8.80469 -4.04403,-1.07268 -2.36266,-8.62581 -0.25195,-13.41406 1.72024,-3.90561 4.32205,-8.07293 7.70312,-7.94141 z m 62.96289,53.39258 c -3.34138,0 -6.15039,2.62915 -6.15039,6.07031 0,3.50631 2.80901,6.13086 6.15039,6.13086 3.32753,0 6.11914,-2.62455 6.11914,-6.13086 0,-3.44116 -2.79161,-6.07031 -6.11914,-6.07031 z m 0,0.89649 c 2.82445,0 5.00586,2.25236 5.00586,5.17382 0,2.98521 -2.18141,5.23438 -5.00586,5.23438 -2.85493,0 -5.03906,-2.24917 -5.03906,-5.23438 0,-2.92146 2.18413,-5.17382 5.03906,-5.17382 z m -2.38281,1.63085 v 7.12891 h 1.11133 v -3.06641 h 1.17578 l 1.9375,3.06641 h 1.19336 l -2.03906,-3.14844 c 1.0602,-0.11364 1.87695,-0.65253 1.87695,-1.9414 0,-1.36788 -0.80033,-2.03907 -2.49805,-2.03907 z m 1.11133,0.89844 h 1.46875 c 0.74838,0 1.56445,0.14858 1.56445,1.09375 0,1.12535 -0.89435,1.17383 -1.87695,1.17383 h -1.15625 z"
       id="path1480"
       inkscape:connector-curvature="0" />
    <g
       id="surface124956"
       transform="matrix(0.35478797,0,0,0.35478797,308.02684,645.38081)"
       style="fill:#34dc0e;fill-opacity:1;stroke:none">
      <g
         id="g1036"
         clip-path="url(#clip1)"
         style="clip-rule:nonzero;fill:#34dc0e;fill-opacity:1;stroke:none" />
      <g
         id="g1064"
         clip-path="url(#clip2)"
         style="clip-rule:nonzero;fill:#34dc0e;fill-opacity:1;stroke:none" />
    </g>
    <text
       xml:space="preserve"
       style="font-style:normal;font-weight:normal;font-size:32px;line-height:1.25;font-family:sans-serif;letter-spacing:0px;word-spacing:0px;fill:#000000;fill-opacity:1;stroke:none;"
       x="397.33124"
       y="230.99249"
       id="text1096"><tspan
         sodipodi:role="line"
         x="397.83124"
         y="230.99249"
         style="font-style:oblique;font-variant:normal;font-weight:bold;font-stretch:normal;font-size:64px;line-height:1.45000005;font-family:Helvetica;-inkscape-font-specification:'Helvetica Bold Oblique';text-align:center;letter-spacing:1px;text-anchor:middle;fill:#000000;fill-opacity:1;stroke:none;"
         id="tspan1224"
         dx="0">2020 SPONSORS</tspan></text>
    <g
       id="g1204"
       transform="matrix(4.9186295,0,0,4.9186295,171.28373,437.00558)"
       style="fill:#000000;fill-opacity:1;stroke:none">
      <path
         id="path1186"
         d="m 16.6,0.3 c -0.7,0 -1.3,0 -1.3,0 0,0 -0.6,0 -1.3,0 H 1.1 c -0.7,0 -1.3,0.6 -1.3,1.3 v 2.6 c 0,0.7 0,1.3 0,1.4 0,0 0,0.6 0,1.4 v 12.4 c 0,0.7 0.6,1.3 1.3,1.3 h 2.7 c 0.7,0 1.3,-0.6 1.3,-1.3 V 7 C 5.1,6.3 5.7,5.7 6.4,5.7 h 7.1 c 0.7,0 1.3,0.6 1.3,1.3 v 7 c 0,0.7 -0.6,1.3 -1.3,1.3 h -4 c -0.7,0 -1.3,0.6 -1.3,1.3 v 2.7 c 0,0.7 0.6,1.3 1.3,1.3 h 4.1 c 0.7,0 1.3,0 1.3,0 0,0 0.6,0 1.3,0 h 2.7 c 0.7,0 1.3,-0.6 1.3,-1.3 V 1.6 c 0,-0.7 -0.6,-1.3 -1.3,-1.3 z"
         class="st0"
         inkscape:connector-curvature="0"
         style="fill:#000000;fill-opacity:1;stroke:none" />
      <g
         id="g1202"
         style="fill:#000000;fill-opacity:1;stroke:none">
        <path
           id="path1188"
           d="m 24.8,9 h 1.8 v 1.1 0 c 0.5,-0.6 1.6,-1.3 3.4,-1.3 2.9,0 4.3,1.9 4.3,4.1 0,2.2 -1.3,4.3 -4.3,4.3 -1.8,0 -2.8,-0.6 -3.3,-1.3 v 0 4.4 H 24.9 V 9 Z m 4.8,1 c -2,0 -3,1.5 -3,3 0,1.3 0.9,3 2.9,3 2,0 2.8,-1.8 2.8,-3 0.1,-1.5 -0.7,-3 -2.7,-3 z"
           class="st0"
           inkscape:connector-curvature="0"
           style="fill:#000000;fill-opacity:1;stroke:none" />
        <path
           id="path1190"
           d="m 36.6,9.6 c 0.9,-0.4 2,-0.8 3.3,-0.8 2.9,0 4,1.1 4,3.3 v 3.3 c 0,0.9 0,1.3 0.1,1.6 h -1.7 v -1 0 c -0.4,0.5 -1.4,1.2 -3.1,1.2 -2.2,0 -3.7,-0.8 -3.7,-2.5 0,-2 2.7,-2.6 4.7,-2.6 0.7,0 1.2,0 2,0 0,-1.4 -0.6,-2.1 -2.5,-2.1 -1,0 -2.2,0.3 -2.9,0.8 z m 5.5,3.6 c -0.4,0 -0.8,0 -1.2,0 -1,0 -3.5,0.1 -3.5,1.5 0,0.8 1,1.3 1.9,1.3 1.8,0 2.8,-0.9 2.8,-2.1 z"
           class="st0"
           inkscape:connector-curvature="0"
           style="fill:#000000;fill-opacity:1;stroke:none" />
        <path
           id="path1192"
           d="m 45.7,19.2 c 0.2,0.1 0.6,0.1 0.9,0.1 1.6,0 2.2,-1.8 2.2,-2 0,-0.2 -0.2,-0.6 -0.4,-0.8 L 45,9 h 2 l 2.7,6.6 v 0 L 52.5,9 h 1.9 l -3.7,8.2 c -0.7,1.5 -1.4,3.3 -3.8,3.3 -0.6,0 -0.9,-0.1 -1.3,-0.1 z"
           class="st0"
           inkscape:connector-curvature="0"
           style="fill:#000000;fill-opacity:1;stroke:none" />
        <path
           id="path1194"
           d="m 61.9,10.3 c -0.7,-0.2 -1.4,-0.3 -2,-0.3 -2.1,0 -3.2,1.5 -3.2,3 0,1.4 1,3 3.3,3 0.6,0 1.4,-0.2 2,-0.5 l 0.1,1.3 c -0.8,0.3 -1.7,0.3 -2.3,0.3 -3,0 -5.1,-1.9 -5.1,-4.2 0,-2.4 2,-4.2 5.1,-4.2 0.7,0 1.7,0.1 2.2,0.3 z"
           class="st0"
           inkscape:connector-curvature="0"
           style="fill:#000000;fill-opacity:1;stroke:none" />
        <path
           id="path1196"
           d="m 68.1,8.8 c 3,0 5.1,1.8 5.1,4.2 0,2.3 -2.1,4.2 -5.1,4.2 -3,0 -5.1,-1.9 -5.1,-4.2 0,-2.4 2,-4.2 5.1,-4.2 z m 0,7.2 c 2.2,0 3.1,-1.6 3.1,-3 0,-1.5 -1.2,-3 -3.1,-3 -2,0 -3.1,1.5 -3.1,3 -0.1,1.4 0.9,3 3.1,3 z"
           class="st0"
           inkscape:connector-curvature="0"
           style="fill:#000000;fill-opacity:1;stroke:none" />
        <path
           id="path1198"
           d="m 75,9 h 1.7 v 1.2 0 c 0.7,-0.9 1.7,-1.4 3.2,-1.4 1.2,0 2.3,0.5 2.8,1.6 0.7,-1.1 2.2,-1.6 3.1,-1.6 2.6,0 3.5,1.3 3.5,3.1 V 17 h -1.8 v -4.8 c 0,-1 -0.3,-2.2 -1.8,-2.2 -1.9,0 -2.6,1.5 -2.6,3 v 4 h -1.8 v -4.8 c 0,-1 -0.3,-2.2 -1.8,-2.2 -1.9,0 -2.6,1.5 -2.6,3 v 4 H 75 Z"
           class="st0"
           inkscape:connector-curvature="0"
           style="fill:#000000;fill-opacity:1;stroke:none" />
        <path
           id="path1200"
           d="M 90.4,10.4 C 90.4,9.6 91,9 91.8,9 c 0.7,0 1.4,0.6 1.4,1.4 0,0.7 -0.6,1.4 -1.4,1.4 -0.8,-0.1 -1.4,-0.7 -1.4,-1.4 z m 2.4,0 c 0,-0.6 -0.5,-1.1 -1,-1.1 -0.6,0 -1,0.5 -1,1.1 0,0.6 0.5,1.1 1,1.1 0.5,0 1,-0.5 1,-1.1 z M 91.2,9.6 h 0.6 c 0.4,0 0.6,0.1 0.6,0.5 0,0.3 -0.2,0.4 -0.4,0.4 l 0.4,0.7 h -0.3 l -0.4,-0.7 h -0.2 v 0.7 h -0.3 z m 0.3,0.7 h 0.3 c 0.2,0 0.3,0 0.3,-0.2 0,-0.2 -0.2,-0.2 -0.3,-0.2 h -0.3 z"
           class="st0"
           inkscape:connector-curvature="0"
           style="fill:#000000;fill-opacity:1;stroke:none" />
      </g>
    </g>
  </g>
  <style
     id="style1184"
     type="text/css">
	.st0{fill:#FFFFFF;}
</style>
</svg>
