<svg class="mx-auto mb-2" viewBox="0 0 39.054 7.938" xmlns="http://www.w3.org/2000/svg" style="width:50%"><path d="M0 .001v1.268h1.412V0zm2.464 0v1.268h3.601v.904h-3.6v3.182c0 .657.156 1.143.471 1.458.324.314.782.471 1.376.471.404 0 .755-.076 1.052-.229.306-.152.58-.32.823-.5l.35.797a3.748 3.748 0 0 1-1.08.586h4.31a1.458 1.458 0 0 1-.497-.398c-.188-.233-.328-.543-.418-.93-.09-.396-.134-.886-.134-1.47V2.173h-.904v-.904H9.77v3.655c0 .369.014.701.04.998.037.288.103.536.202.742.1.198.244.351.433.459.197.099.458.148.782.148.467 0 .872-.153 1.214-.458.35-.306.616-.689.795-1.147V2.173h-.862v-.904h1.915v4.6c0 .44.027.862.081 1.267h.903v.802h2.412a1.878 1.878 0 0 1-.528-.316c-.387-.342-.58-.81-.58-1.403 0-.459.099-.841.297-1.147.207-.306.499-.54.877-.701.377-.162.83-.256 1.361-.283a9.245 9.245 0 0 1 1.808.107c.045-.413.05-.755.013-1.024-.027-.28-.098-.5-.215-.662a.837.837 0 0 0-.472-.336 2.198 2.198 0 0 0-.743-.108c-.404 0-.791.058-1.16.175-.368.108-.697.22-.984.337l-.337-.782a4.284 4.284 0 0 1 1.308-.486 7.155 7.155 0 0 1 1.43-.148c.459 0 .832.072 1.12.216.297.144.526.332.687.566.171.225.284.485.338.782.063.288.094.58.094.877 0 .342-.009.706-.027 1.092a49.81 49.81 0 0 0-.04 1.16c0 .45.027.878.08 1.282h.905v.802h3.575l-.02-.006c-.44-.17-.81-.41-1.106-.715a3.136 3.136 0 0 1-.674-1.12 4.417 4.417 0 0 1-.23-1.456c0-.567.077-1.07.23-1.51.162-.441.39-.81.687-1.107a2.895 2.895 0 0 1 1.08-.674 3.932 3.932 0 0 1 1.416-.243c.665 0 1.206.058 1.62.175.422.117.777.247 1.065.391l-.014.041V3.59h-.971V2.307a4.604 4.604 0 0 0-.674-.175 3.11 3.11 0 0 0-.702-.081c-.881 0-1.537.207-1.97.62-.43.414-.647 1.07-.647 1.97 0 .395.063.75.19 1.065.125.306.305.567.539.783.233.216.512.382.836.499.333.117.697.175 1.093.175.422 0 .831-.072 1.227-.215a3.125 3.125 0 0 0 1.012-.568l.472.783c-.126.108-.283.22-.472.337-.189.117-.41.23-.661.338a4.11 4.11 0 0 1-.288.1h2.764v-6.67h.702l.202.823h.054c.09-.135.176-.26.257-.377a1.72 1.72 0 0 1 .296-.324c.117-.09.252-.157.405-.202.153-.054.346-.081.58-.081a1.4 1.4 0 0 1 .418.067c.144.036.274.1.391.19.126.08.234.192.324.336.09.144.148.32.175.526.207-.35.436-.624.688-.822.261-.198.616-.297 1.066-.297.296 0 .535.05.715.149a1 1 0 0 1 .432.431c.022.037.036.082.055.123V0zm32.11 2.05c-.306 0-.566.126-.782.378a2.588 2.588 0 0 0-.473.944v4.565h1.957V3.52c0-.189-.01-.368-.027-.54a1.47 1.47 0 0 0-.095-.472.685.685 0 0 0-.216-.336.524.524 0 0 0-.364-.122zm3.009 0c-.315 0-.58.126-.797.378-.215.252-.377.611-.485 1.08v4.429h1.956V3.427c0-.19-.01-.365-.027-.526a1.535 1.535 0 0 0-.108-.445.65.65 0 0 0-.203-.297.489.489 0 0 0-.336-.108zM0 2.173v5.765h2.808a2.25 2.25 0 0 1-.6-.384 2.308 2.308 0 0 1-.58-.823c-.145-.342-.216-.746-.216-1.213V2.173zm19.625 2.724c-.396 0-.738.045-1.025.135-.288.08-.514.211-.676.39-.161.18-.242.415-.242.702 0 .297.099.558.297.782.207.216.548.325 1.025.325.252 0 .485-.041.701-.122a2.138 2.138 0 0 0 .972-.715c.108-.153.189-.296.243-.431v-.944c-.468-.081-.9-.122-1.295-.122zm-6.241 1.969a2.83 2.83 0 0 1-.93.944c-.078.049-.16.09-.244.128h1.266l-.038-1.072zm7.549.135c-.054.081-.135.185-.243.31s-.252.252-.431.378a2.635 2.635 0 0 1-.487.249h1.34L21.001 7z" fill="#000000"/></svg>
