<?xml version="1.0" encoding="UTF-8" standalone="no"?>
<!-- Created with Inkscape (http://www.inkscape.org/) -->

<svg
   xmlns:dc="http://purl.org/dc/elements/1.1/"
   xmlns:cc="http://creativecommons.org/ns#"
   xmlns:rdf="http://www.w3.org/1999/02/22-rdf-syntax-ns#"
   xmlns:svg="http://www.w3.org/2000/svg"
   xmlns="http://www.w3.org/2000/svg"
   xmlns:sodipodi="http://sodipodi.sourceforge.net/DTD/sodipodi-0.dtd"
   xmlns:inkscape="http://www.inkscape.org/namespaces/inkscape"
   width="147.60381"
   height="30.000069"
   viewBox="0 0 39.053506 7.9375181"
   version="1.1"
   id="svg8"
   inkscape:version="0.92.2 5c3e80d, 2017-08-06"
   sodipodi:docname="tuacm-logo.svg">
  <defs
     id="defs2" />
  <sodipodi:namedview
     id="base"
     pagecolor="#ffffff"
     bordercolor="#666666"
     borderopacity="1.0"
     inkscape:pageopacity="0.0"
     inkscape:pageshadow="2"
     inkscape:zoom="7.919596"
     inkscape:cx="52.908544"
     inkscape:cy="16.815865"
     inkscape:document-units="mm"
     inkscape:current-layer="layer1"
     showgrid="true"
     fit-margin-top="0"
     fit-margin-left="0"
     fit-margin-right="0"
     fit-margin-bottom="0"
     units="px"
     scale-x="1"
     inkscape:window-width="1440"
     inkscape:window-height="855"
     inkscape:window-x="0"
     inkscape:window-y="1"
     inkscape:window-maximized="1">
    <inkscape:grid
       type="xygrid"
       id="grid814"
       originx="3.3e-07"
       originy="-8.2297314e-07" />
  </sodipodi:namedview>
  <metadata
     id="metadata5">
    <rdf:RDF>
      <cc:Work
         rdf:about="">
        <dc:format>image/svg+xml</dc:format>
        <dc:type
           rdf:resource="http://purl.org/dc/dcmitype/StillImage" />
        <dc:title></dc:title>
      </cc:Work>
    </rdf:RDF>
  </metadata>
  <g
     inkscape:label="Layer 1"
     inkscape:groupmode="layer"
     id="layer1"
     transform="translate(-41.866695,-54.292272)">
    <path
       style="opacity:0.98999999;fill:#0b0001;fill-opacity:1;stroke:none;stroke-width:0.53547329;stroke-miterlimit:4;stroke-dasharray:none;stroke-dashoffset:0;stroke-opacity:1"
       d="m 41.866695,54.292816 v 1.267807 h 1.41197 v -1.267807 z m 2.464153,0 v 1.267807 h 3.60114 v 0.90393 h -3.60114 v 3.182697 c 0,0.656422 0.157008,1.14243 0.471754,1.457154 0.323737,0.314726 0.782225,0.471724 1.375743,0.471724 0.404671,0 0.755428,-0.07599 1.052187,-0.228864 0.30575,-0.152867 0.580501,-0.319873 0.823304,-0.499716 l 0.350727,0.796084 c -0.301715,0.241363 -0.662767,0.435693 -1.080177,0.586158 h 4.308363 C 51.441305,62.135726 51.275467,62.003433 51.137119,61.832159 50.948272,61.598362 50.808803,61.288543 50.718878,60.901885 50.628948,60.50623 50.58468,60.01604 50.58468,59.431557 v -2.967004 h -0.903989 v -0.90393 h 1.956171 v 3.655242 c 0,0.368673 0.01337,0.701042 0.04034,0.997782 0.03595,0.287745 0.102789,0.535754 0.201707,0.742569 0.09892,0.197829 0.243384,0.350663 0.432235,0.458551 0.197838,0.09891 0.458403,0.148189 0.782141,0.148189 0.467619,0 0.872653,-0.152821 1.214377,-0.458552 0.350715,-0.30573 0.615458,-0.688195 0.795314,-1.146792 v -3.493059 h -0.862827 v -0.90393 h 1.915009 v 4.599509 c 0,0.440612 0.02757,0.863167 0.08151,1.267811 h 0.903168 v 0.801847 h 2.411462 c -0.195456,-0.08157 -0.375494,-0.181597 -0.527738,-0.316129 -0.386685,-0.341702 -0.580429,-0.809345 -0.580429,-1.402824 0,-0.458597 0.09938,-0.841058 0.297208,-1.146789 0.206835,-0.30573 0.49913,-0.539551 0.876824,-0.701409 0.377692,-0.161859 0.831181,-0.256224 1.361746,-0.283201 0.539562,-0.02698 1.142523,0.0089 1.80798,0.107846 0.04496,-0.413635 0.04911,-0.755185 0.01316,-1.024948 -0.02698,-0.278754 -0.0988,-0.499214 -0.215701,-0.661072 -0.107913,-0.161858 -0.264924,-0.273763 -0.471759,-0.336711 -0.197829,-0.07193 -0.44586,-0.107842 -0.742619,-0.107846 -0.404671,0 -0.791338,0.05846 -1.16004,0.175355 -0.368697,0.107905 -0.696907,0.219811 -0.984669,0.33671 l -0.336735,-0.782089 c 0.386685,-0.224801 0.822626,-0.386808 1.308231,-0.485717 0.485606,-0.09891 0.962465,-0.148189 1.430084,-0.148189 0.458628,0 0.831933,0.07182 1.119694,0.215692 0.29676,0.143873 0.525593,0.332602 0.687462,0.566397 0.170861,0.224803 0.283599,0.485351 0.337556,0.78209 0.06295,0.287749 0.09386,0.580025 0.09386,0.876765 0,0.341702 -0.0084,0.705793 -0.02635,1.092457 -0.018,0.386658 -0.03136,0.773301 -0.04034,1.15996 0,0.449608 0.02672,0.877157 0.08069,1.281805 h 0.903989 v 0.801847 h 3.574794 c -0.0061,-0.0021 -0.01286,-0.0034 -0.01893,-0.0058 -0.440642,-0.170852 -0.809763,-0.409673 -1.106523,-0.715408 -0.29676,-0.31472 -0.521411,-0.688001 -0.674288,-1.119623 -0.152878,-0.440611 -0.229702,-0.925797 -0.229702,-1.456334 0,-0.566502 0.07682,-1.070053 0.229702,-1.510665 0.161868,-0.440611 0.390702,-0.809711 0.687461,-1.106451 0.296758,-0.296739 0.656697,-0.521376 1.079355,-0.674243 0.422653,-0.161858 0.894508,-0.242859 1.416084,-0.242859 0.665461,0 1.205778,0.05846 1.619443,0.17535 0.422654,0.116901 0.777593,0.247175 1.065357,0.391048 l -0.01399,0.04118 v 1.874547 h -0.97068 v -1.281805 c -0.20683,-0.07194 -0.431485,-0.130389 -0.674284,-0.175351 -0.233811,-0.05396 -0.467648,-0.08068 -0.70146,-0.08068 -0.881285,0 -1.537695,0.207095 -1.969346,0.620734 -0.431647,0.413636 -0.64794,1.070008 -0.64794,1.969217 0,0.395654 0.06346,0.750565 0.18936,1.065291 0.125895,0.30573 0.305456,0.567101 0.539262,0.782912 0.233811,0.21581 0.512744,0.381993 0.836481,0.498889 0.332729,0.116899 0.696849,0.175355 1.092528,0.175355 0.422654,0 0.831873,-0.07182 1.227545,-0.215693 0.404676,-0.143873 0.742066,-0.333428 1.011847,-0.567219 l 0.471755,0.782912 c -0.125901,0.107905 -0.282908,0.21981 -0.471755,0.33671 -0.188847,0.116896 -0.409321,0.229628 -0.661114,0.337533 -0.09023,0.03676 -0.189243,0.06865 -0.288161,0.100436 h 2.764664 v -6.669167 h 0.701454 l 0.202536,0.822429 h 0.05351 c 0.08993,-0.134882 0.175941,-0.260149 0.256874,-0.377049 0.08993,-0.125887 0.188482,-0.234438 0.296388,-0.324362 0.116904,-0.08992 0.252192,-0.156735 0.405067,-0.201693 0.152874,-0.05396 0.345798,-0.0815 0.579608,-0.0815 0.13489,0 0.274356,0.02255 0.418239,0.0675 0.143884,0.03596 0.274165,0.09943 0.391071,0.189349 0.125899,0.08093 0.233634,0.192838 0.323559,0.33671 0.08993,0.143873 0.148389,0.31924 0.175363,0.52606 0.206831,-0.350692 0.436485,-0.624603 0.688287,-0.822429 0.260783,-0.197828 0.615717,-0.297194 1.065354,-0.297194 0.29676,0 0.535601,0.0501 0.715454,0.149006 0.188847,0.09891 0.332493,0.242547 0.43141,0.431386 0.02209,0.0368 0.03608,0.08248 0.05516,0.122666 V 54.29279 Z m 32.10975,2.049897 c -0.305753,0 -0.566318,0.126093 -0.782141,0.377876 -0.206835,0.251777 -0.364666,0.566599 -0.472576,0.944267 v 4.564934 h 1.956171 v -4.41675 c 0,-0.188833 -0.0092,-0.368378 -0.02715,-0.539227 -0.009,-0.179843 -0.04076,-0.337668 -0.09468,-0.472549 -0.04496,-0.143872 -0.116784,-0.255782 -0.215705,-0.336711 -0.08993,-0.08092 -0.211029,-0.12184 -0.363901,-0.12184 z m 3.008359,0 c -0.314745,0 -0.580311,0.126093 -0.796137,0.377876 -0.215826,0.251777 -0.377839,0.611692 -0.485752,1.07928 v 4.429921 h 1.956177 v -4.511424 c 0,-0.188834 -0.0092,-0.364197 -0.02719,-0.526055 -0.018,-0.170853 -0.05389,-0.318666 -0.107847,-0.444557 -0.04496,-0.125891 -0.112606,-0.225257 -0.202534,-0.297195 -0.08093,-0.07193 -0.192852,-0.107846 -0.336732,-0.107846 z m -37.582262,0.12184 v 5.765237 h 2.808296 c -0.219892,-0.09578 -0.419943,-0.223427 -0.60019,-0.383637 -0.242803,-0.215811 -0.436548,-0.490544 -0.58043,-0.82325 -0.143886,-0.341702 -0.215706,-0.745883 -0.215706,-1.213475 v -3.344875 z m 19.625138,2.724145 c -0.395679,0 -0.73725,0.04509 -1.025014,0.135013 -0.287768,0.08092 -0.513242,0.211199 -0.67511,0.391042 -0.161869,0.179843 -0.242053,0.413665 -0.242053,0.70141 0,0.29674 0.09855,0.557289 0.296389,0.78209 0.206832,0.21581 0.548402,0.324361 1.025015,0.324361 0.251794,0 0.485635,-0.04093 0.70146,-0.121841 0.215817,-0.08093 0.404571,-0.184475 0.56643,-0.310367 0.161872,-0.125886 0.297156,-0.260342 0.405067,-0.404214 0.107912,-0.152867 0.188918,-0.296504 0.242874,-0.431385 v -0.944268 c -0.467619,-0.08093 -0.89938,-0.121845 -1.295058,-0.121841 z m -6.240658,1.969217 c -0.233807,0.386659 -0.54365,0.701481 -0.930335,0.944268 -0.07715,0.04845 -0.160101,0.08882 -0.2437,0.127607 h 1.266246 l -0.03785,-1.071875 z m 7.548889,0.135012 c -0.05396,0.08093 -0.134961,0.184476 -0.242874,0.310367 -0.107913,0.125891 -0.251566,0.251984 -0.431409,0.377875 -0.134634,0.0921 -0.301695,0.17326 -0.486574,0.248621 h 1.340343 l -0.111972,-0.936863 z"
       id="rect819"
       inkscape:connector-curvature="0" />
    <g
       aria-label="tuacm"
       style="font-style:normal;font-weight:normal;font-size:8.46666622px;line-height:1.25;font-family:sans-serif;letter-spacing:0px;word-spacing:0px;fill:#000000;fill-opacity:1;stroke:none;stroke-width:0.26458332"
       id="text1139" />
  </g>
</svg>
