<?xml version="1.0" encoding="UTF-8" standalone="no"?>
<!-- Created with Inkscape (http://www.inkscape.org/) -->

<svg
   xmlns:dc="http://purl.org/dc/elements/1.1/"
   xmlns:cc="http://creativecommons.org/ns#"
   xmlns:rdf="http://www.w3.org/1999/02/22-rdf-syntax-ns#"
   xmlns:svg="http://www.w3.org/2000/svg"
   xmlns="http://www.w3.org/2000/svg"
   xmlns:sodipodi="http://sodipodi.sourceforge.net/DTD/sodipodi-0.dtd"
   xmlns:inkscape="http://www.inkscape.org/namespaces/inkscape"
   width="149.60381"
   height="32.000069"
   viewBox="0 0 39.582673 8.4666848"
   version="1.1"
   id="svg8"
   inkscape:version="0.92.2 5c3e80d, 2017-08-06"
   sodipodi:docname="tuacm-logo-inkscape.svg">
  <defs
     id="defs2" />
  <sodipodi:namedview
     id="base"
     pagecolor="#ffffff"
     bordercolor="#666666"
     borderopacity="1.0"
     inkscape:pageopacity="0.0"
     inkscape:pageshadow="2"
     inkscape:zoom="7.919596"
     inkscape:cx="76.763244"
     inkscape:cy="17.815868"
     inkscape:document-units="mm"
     inkscape:current-layer="layer1"
     showgrid="true"
     fit-margin-top="1"
     fit-margin-left="1"
     fit-margin-right="1"
     fit-margin-bottom="1"
     units="px"
     scale-x="1"
     inkscape:window-width="1440"
     inkscape:window-height="855"
     inkscape:window-x="0"
     inkscape:window-y="1"
     inkscape:window-maximized="1">
    <inkscape:grid
       type="xygrid"
       id="grid814"
       originx="0.26458333"
       originy="0.26458333" />
  </sodipodi:namedview>
  <metadata
     id="metadata5">
    <rdf:RDF>
      <cc:Work
         rdf:about="">
        <dc:format>image/svg+xml</dc:format>
        <dc:type
           rdf:resource="http://purl.org/dc/dcmitype/StillImage" />
        <dc:title></dc:title>
      </cc:Work>
    </rdf:RDF>
  </metadata>
  <g
     inkscape:label="Layer 1"
     inkscape:groupmode="layer"
     id="layer1"
     transform="translate(-41.602112,-54.027689)">
    <path
       style="opacity:0.98999999;fill:#0b0001;fill-opacity:1;stroke:none;stroke-width:0.53549075;stroke-miterlimit:4;stroke-dasharray:none;stroke-dashoffset:0;stroke-opacity:1"
       d="m 41.866695,54.292298 v 1.26789 h 1.41197 v -1.26789 z m 2.464153,0 v 1.26789 h 3.60114 v 0.903989 h -3.60114 v 3.182904 c 0,0.656465 0.157008,1.142505 0.471754,1.45725 0.323737,0.314746 0.782225,0.471754 1.375743,0.471754 0.404671,0 0.755428,-0.076 1.052187,-0.228879 0.30575,-0.152877 0.580501,-0.319893 0.823304,-0.499748 l 0.350727,0.796136 c -0.301715,0.241378 -0.662767,0.435721 -1.080177,0.586196 h 4.308363 c -0.191444,-0.09407 -0.357282,-0.226372 -0.49563,-0.397657 -0.188847,-0.233812 -0.328316,-0.543651 -0.418241,-0.930335 -0.08993,-0.39568 -0.134198,-0.885902 -0.134198,-1.470424 v -2.967197 h -0.903989 v -0.903989 h 1.956171 v 3.65548 c 0,0.368697 0.01337,0.701088 0.04034,0.997847 0.03595,0.287764 0.102789,0.535789 0.201707,0.742618 0.09892,0.197842 0.243384,0.350686 0.432235,0.458581 0.197838,0.09892 0.458403,0.148198 0.782141,0.148198 0.467619,0 0.872653,-0.15283 1.214377,-0.458581 0.350715,-0.30575 0.615458,-0.68824 0.795314,-1.146867 v -3.493287 h -0.862827 v -0.903989 h 1.915009 v 4.599809 c 0,0.440641 0.02757,0.863223 0.08151,1.267894 h 0.903168 v 0.801899 h 2.411462 c -0.195456,-0.08157 -0.375494,-0.181609 -0.527738,-0.31615 -0.386685,-0.341724 -0.580429,-0.809397 -0.580429,-1.402915 0,-0.458627 0.09938,-0.841113 0.297208,-1.146864 0.206835,-0.30575 0.49913,-0.539586 0.876824,-0.701455 0.377692,-0.161869 0.831181,-0.256241 1.361746,-0.283219 0.539562,-0.02698 1.142523,0.0089 1.80798,0.107853 0.04496,-0.413662 0.04911,-0.755235 0.01316,-1.025015 -0.02698,-0.278772 -0.0988,-0.499247 -0.215701,-0.661115 -0.107913,-0.161869 -0.264924,-0.273781 -0.471759,-0.336733 -0.197829,-0.07193 -0.44586,-0.107849 -0.742619,-0.107853 -0.404671,0 -0.791338,0.05846 -1.16004,0.175366 -0.368697,0.107912 -0.696907,0.219825 -0.984669,0.336732 l -0.336735,-0.78214 c 0.386685,-0.224816 0.822626,-0.386833 1.308231,-0.485749 0.485606,-0.09892 0.962465,-0.148198 1.430084,-0.148198 0.458628,0 0.831933,0.07182 1.119694,0.215706 0.29676,0.143882 0.525593,0.332623 0.687462,0.566434 0.170861,0.224817 0.283599,0.485382 0.337556,0.782141 0.06295,0.287768 0.09386,0.580063 0.09386,0.876822 0,0.341724 -0.0084,0.705839 -0.02635,1.092528 -0.018,0.386684 -0.03136,0.773352 -0.04034,1.160036 0,0.449637 0.02672,0.877214 0.08069,1.281889 h 0.903989 v 0.801899 h 3.574794 c -0.0061,-0.0021 -0.01286,-0.0034 -0.01893,-0.0058 -0.440642,-0.170864 -0.809763,-0.4097 -1.106523,-0.715455 -0.29676,-0.314741 -0.521411,-0.688046 -0.674288,-1.119696 -0.152878,-0.44064 -0.229702,-0.925858 -0.229702,-1.456429 0,-0.566539 0.07682,-1.070123 0.229702,-1.510764 0.161868,-0.44064 0.390702,-0.809764 0.687461,-1.106523 0.296758,-0.296758 0.656697,-0.52141 1.079355,-0.674287 0.422653,-0.161869 0.894508,-0.242875 1.416084,-0.242875 0.665461,0 1.205778,0.05846 1.619443,0.175362 0.422654,0.116908 0.777593,0.247191 1.065357,0.391073 l -0.01399,0.04118 v 1.874669 h -0.97068 v -1.281889 c -0.20683,-0.07194 -0.431485,-0.130397 -0.674284,-0.175362 -0.233811,-0.05396 -0.467648,-0.08069 -0.70146,-0.08069 -0.881285,0 -1.537695,0.207108 -1.969346,0.620774 -0.431647,0.413663 -0.64794,1.070078 -0.64794,1.969346 0,0.39568 0.06346,0.750614 0.18936,1.06536 0.125895,0.30575 0.305456,0.567138 0.539262,0.782963 0.233811,0.215825 0.512744,0.382018 0.836481,0.498922 0.332729,0.116907 0.696849,0.175366 1.092528,0.175366 0.422654,0 0.831873,-0.07182 1.227545,-0.215707 0.404676,-0.143882 0.742066,-0.333449 1.011847,-0.567256 l 0.471755,0.782963 c -0.125901,0.107912 -0.282908,0.219825 -0.471755,0.336732 -0.188847,0.116904 -0.409321,0.229643 -0.661114,0.337555 -0.09023,0.03676 -0.189243,0.06865 -0.288161,0.100443 h 2.764664 v -6.669602 h 0.701454 l 0.202536,0.822482 h 0.05351 c 0.08993,-0.13489 0.175941,-0.260166 0.256874,-0.377073 0.08993,-0.125895 0.188482,-0.234453 0.296388,-0.324383 0.116904,-0.08993 0.252192,-0.156746 0.405067,-0.201707 0.152874,-0.05396 0.345798,-0.08151 0.579608,-0.08151 0.13489,0 0.274356,0.02255 0.418239,0.06751 0.143884,0.03596 0.274165,0.09944 0.391071,0.189361 0.125899,0.08093 0.233634,0.192851 0.323559,0.336732 0.08993,0.143882 0.148389,0.319261 0.175363,0.526094 0.206831,-0.350715 0.436485,-0.624644 0.688287,-0.822482 0.260783,-0.197841 0.615717,-0.297214 1.065354,-0.297214 0.29676,0 0.535601,0.0501 0.715454,0.149016 0.188847,0.09892 0.332493,0.242563 0.43141,0.431414 0.02209,0.0368 0.03608,0.08248 0.05516,0.122674 v -1.808805 z m 32.10975,2.050031 c -0.305753,0 -0.566318,0.126101 -0.782141,0.3779 -0.206835,0.251794 -0.364666,0.566636 -0.472576,0.944329 v 4.565232 h 1.956171 v -4.417038 c 0,-0.188846 -0.0092,-0.368402 -0.02715,-0.539262 -0.009,-0.179855 -0.04076,-0.33769 -0.09468,-0.47258 -0.04496,-0.143882 -0.116784,-0.255799 -0.215705,-0.336733 -0.08993,-0.08093 -0.211029,-0.121848 -0.363901,-0.121848 z m 3.008359,0 c -0.314745,0 -0.580311,0.126101 -0.796137,0.3779 -0.215826,0.251794 -0.377839,0.611732 -0.485752,1.079351 v 4.43021 h 1.956177 v -4.511718 c 0,-0.188847 -0.0092,-0.364221 -0.02719,-0.52609 -0.018,-0.170864 -0.05389,-0.318687 -0.107847,-0.444586 -0.04496,-0.125899 -0.112606,-0.225271 -0.202534,-0.297214 -0.08093,-0.07194 -0.192852,-0.107853 -0.336732,-0.107853 z m -37.582262,0.121848 v 5.765613 h 2.808296 C 44.455099,62.134 44.255048,62.006348 44.074801,61.846128 43.831998,61.630303 43.638253,61.355552 43.494371,61.022824 43.350485,60.6811 43.278665,60.276893 43.278665,59.80927 V 56.464177 Z M 61.491833,59.1885 c -0.395679,0 -0.73725,0.04509 -1.025014,0.135021 -0.287768,0.08093 -0.513242,0.211213 -0.67511,0.391068 -0.161869,0.179855 -0.242053,0.413692 -0.242053,0.701456 0,0.296759 0.09855,0.557325 0.296389,0.782141 0.206832,0.215824 0.548402,0.324382 1.025015,0.324382 0.251794,0 0.485635,-0.04093 0.70146,-0.121849 0.215817,-0.08093 0.404571,-0.184487 0.56643,-0.310387 0.161872,-0.125895 0.297156,-0.260359 0.405067,-0.404241 0.107912,-0.152877 0.188918,-0.296523 0.242874,-0.431413 v -0.94433 c -0.467619,-0.08093 -0.89938,-0.121852 -1.295058,-0.121848 z m -6.240658,1.969345 c -0.233807,0.386684 -0.54365,0.701527 -0.930335,0.94433 -0.07715,0.04845 -0.160101,0.08883 -0.2437,0.127615 h 1.266246 l -0.03785,-1.071945 z m 7.548889,0.135021 c -0.05396,0.08093 -0.134961,0.184488 -0.242874,0.310387 -0.107913,0.125899 -0.251566,0.252001 -0.431409,0.3779 -0.134634,0.09211 -0.301695,0.173271 -0.486574,0.248637 h 1.340343 l -0.111972,-0.936924 z"
       id="rect819"
       inkscape:connector-curvature="0" />
    <g
       aria-label="tuacm"
       style="font-style:normal;font-weight:normal;font-size:8.46666622px;line-height:1.25;font-family:sans-serif;letter-spacing:0px;word-spacing:0px;fill:#000000;fill-opacity:1;stroke:none;stroke-width:0.26458332"
       id="text1139" />
  </g>
</svg>
